<svg width="379" height="271" viewBox="0 0 379 271" fill="none" xmlns="http://www.w3.org/2000/svg">
<path d="M611.397 73.5846V73.5846ZM611.397 73.5846L611.4 76.7621L611.316 79.9385L611.143 83.1115L610.882 86.279L610.533 89.4387L610.097 92.5884L609.574 95.726L608.966 98.8493L608.273 101.956L607.496 105.045L606.637 108.113L605.698 111.159L604.678 114.181L603.582 117.177L602.409 120.145L601.163 123.084L599.844 125.992L598.456 128.869L597.001 131.712L595.48 134.52L593.896 137.292L592.252 140.028L590.55 142.726L588.793 145.385L586.983 148.006L585.122 150.586L583.214 153.126L581.261 155.626L579.265 158.084L577.229 160.501L575.156 162.877L573.048 165.212L570.907 167.506L568.737 169.758L566.538 171.969L564.314 174.14L562.066 176.271L559.797 178.361L557.509 180.412L555.202 182.424L552.88 184.397L550.544 186.332L548.194 188.229L545.833 190.089L543.461 191.912L541.08 193.698L538.69 195.448L536.292 197.162L533.888 198.841L531.478 200.484L529.062 202.093L526.642 203.667L524.217 205.207L521.789 206.713L519.357 208.185L516.923 209.624L514.486 211.029L512.048 212.401L509.607 213.741L507.165 215.048L504.722 216.322L502.278 217.563L499.833 218.773L497.388 219.949L494.942 221.094L492.496 222.206L490.05 223.286L487.604 224.333L485.159 225.349L482.714 226.332L480.269 227.282L477.826 228.201L475.383 229.087L472.942 229.941L470.502 230.763L468.065 231.553L465.629 232.31L463.196 233.036L460.766 233.73L458.338 234.392L455.915 235.023L453.495 235.623L451.08 236.191L448.669 236.73L446.263 237.238L443.864 237.717L441.47 238.166L439.083 238.587L436.703 238.98L434.331 239.345L431.967 239.684L429.612 239.997L427.266 240.286L424.93 240.55L422.603 240.791L420.287 241.01L417.982 241.208L415.688 241.385L413.406 241.544L411.136 241.685L408.878 241.809L406.632 241.918L404.399 242.012L402.179 242.094L399.972 242.164L397.778 242.223L395.597 242.273L393.429 242.316L391.274 242.353L389.132 242.384L387.003 242.412L384.887 242.438L382.782 242.463L380.69 242.489L378.609 242.516L376.539 242.547L374.48 242.583L372.431 242.625L370.391 242.673L368.36 242.731L366.337 242.798L364.321 242.876L362.312 242.966L360.308 243.069L358.309 243.186L356.313 243.319L354.32 243.467L352.329 243.632L350.338 243.815L348.346 244.016L346.353 244.237L344.356 244.476L342.355 244.736L340.349 245.016L338.336 245.317L336.314 245.639L334.284 245.983L332.242 246.348L330.189 246.734L328.122 247.141L326.04 247.569L323.943 248.017L321.828 248.486L319.694 248.974L317.541 249.482L315.367 250.007L313.17 250.549L310.951 251.108L308.706 251.682L306.436 252.271L304.14 252.871L301.816 253.484L299.464 254.106L297.083 254.736L294.672 255.373L292.23 256.016L289.757 256.661L287.253 257.308L284.716 257.954L282.147 258.597L279.546 259.236L276.911 259.868L274.244 260.491L271.544 261.102L268.812 261.701L266.047 262.283L263.25 262.848L260.422 263.392L257.562 263.913L254.672 264.41L251.753 264.879L248.804 265.319L245.828 265.727L242.825 266.1L239.796 266.438L236.743 266.737L233.666 266.995L230.568 267.21L227.449 267.38L224.311 267.504L221.156 267.579L217.985 267.604L214.799 267.577L211.601 267.498L208.391 267.364L205.171 267.175L201.943 266.93L198.707 266.628L195.465 266.269L192.219 265.852L188.97 265.377L185.718 264.843L182.466 264.25L179.214 263.599L175.963 262.889L172.714 262.119L169.468 261.292L166.227 260.405L162.991 259.46L159.761 258.457L156.538 257.396L153.322 256.277L150.115 255.101L146.917 253.868L143.73 252.579L140.552 251.233L137.387 249.831L134.233 248.374L131.092 246.862L127.965 245.295L124.851 243.674L121.753 241.999L118.671 240.269L115.605 238.486L112.556 236.65L109.526 234.761L106.514 232.819L103.523 230.825L100.553 228.778L97.6049 226.678L94.6805 224.527L91.7808 222.323L88.9072 220.068L86.061 217.76L83.244 215.401L80.4576 212.989L77.7034 210.527L74.9829 208.013L72.2976 205.448L69.6489 202.832L67.0383 200.166L64.4672 197.45L61.9369 194.685L59.4488 191.871L57.0042 189.009L54.6042 186.099L52.25 183.143L49.9429 180.141L47.6837 177.094L45.4737 174.003L43.3136 170.868L41.2045 167.69L39.1471 164.471L37.1423 161.212L35.1909 157.913L33.2933 154.575L31.4504 151.2L29.6627 147.789L27.9306 144.342L26.2547 140.861L24.6354 137.346L23.073 133.8L21.5678 130.222L20.1203 126.615L18.7305 122.979L17.3989 119.315L16.1254 115.625L14.9103 111.909L13.7538 108.169L12.656 104.406L11.6169 100.62L10.6368 96.8129L9.71558 92.9858L8.85346 89.1396L8.0505 85.2754L7.3068 81.3941L6.62245 77.4968L5.99757 73.5846L5.43227 69.6584L4.92661 65.7192L4.4805 61.7682L4.09377 57.8062L3.76616 53.8342L3.49729 49.8532L3.28676 45.8642L3.13406 41.8679L3.03867 37.8653L3 33.8572L3.01745 29.8443L3.0904 25.8275L3.21822 21.8076L3.40027 17.785L3.63593 13.7607L3.9246 9.73511L4.26568 5.70895L4.65862 1.68283L5.10291 -2.34271L5.59805 -6.3671L6.14361 -10.3898L6.73919 -14.4102L7.38445 -18.4278L8.07909 -22.4421L8.82286 -26.4525L9.61558 -30.4585L10.4571 -34.4595L11.3473 -38.455L12.2861 -42.4443L13.2735 -46.427L14.3096 -50.4022L15.3944 -54.3696L16.528 -58.3282L17.7104 -62.2776L18.9419 -66.217L20.2225 -70.1456L21.5524 -74.0629L22.9318 -77.9679L24.3607 -81.86L25.8393 -85.7384L27.3677 -89.6023L28.9459 -93.4509L30.574 -97.2836L32.2519 -101.099L33.9796 -104.898L35.7569 -108.678L37.5837 -112.439L39.46 -116.18L41.3857 -119.901L43.3608 -123.6L45.3853 -127.277L47.4591 -130.931L49.5824 -134.561L51.7551 -138.166L53.9774 -141.744L56.2493 -145.296L58.5707 -148.819L60.9418 -152.314L63.3626 -155.777L65.8331 -159.21L68.3533 -162.609L70.9231 -165.975L73.5424 -169.305L76.2113 -172.599L78.9295 -175.856L81.6968 -179.073L84.5132 -182.251L87.3783 -185.388L90.2917 -188.481L93.2533 -191.531L96.2626 -194.536L99.3192 -197.495L102.423 -200.407L105.572 -203.269L108.767 -206.082L112.008 -208.844L115.292 -211.554L118.621 -214.211L121.992 -216.814L125.405 -219.361L128.86 -221.853L132.355 -224.287L135.889 -226.663L139.461 -228.981L143.071 -231.238L146.717 -233.436L150.399 -235.572L154.114 -237.646L157.863 -239.658L161.643 -241.606L165.454 -243.491L169.294 -245.311L173.163 -247.066L177.06 -248.755L180.982 -250.377L184.93 -251.931L188.902 -253.416L192.897 -254.831L196.914 -256.175L200.953 -257.446L205.011 -258.644L209.088 -259.767L213.183 -260.814L217.295 -261.784L221.421 -262.675L225.562 -263.486L229.715 -264.216L233.879 -264.864L238.053 -265.428L242.235 -265.908L246.424 -266.302L250.618 -266.609L254.815 -266.828L259.014 -266.959L263.213 -267L267.409 -266.951L271.602 -266.811L275.79 -266.579L279.969 -266.256L284.139 -265.84L288.298 -265.332L292.442 -264.732L296.571 -264.039L300.682 -263.255L304.772 -262.379L308.841 -261.412L312.885 -260.355L316.904 -259.208L320.893 -257.974L324.853 -256.653L328.78 -255.246L332.673 -253.756L336.53 -252.185L340.349 -250.534L344.128 -248.805L347.866 -247.002L351.562 -245.126L355.213 -243.181L358.818 -241.169L362.377 -239.093L365.888 -236.956L369.35 -234.76L372.762 -232.509L376.124 -230.205L379.435 -227.851L382.693 -225.451L385.9 -223.007L389.054 -220.523L392.155 -218L395.203 -215.444L398.199 -212.855L401.141 -210.238L404.031 -207.595L406.869 -204.929L409.655 -202.243L412.39 -199.54L415.074 -196.822L417.708 -194.092L420.293 -191.352L422.83 -188.606L425.319 -185.855L427.762 -183.102L430.16 -180.349L432.514 -177.598L434.824 -174.851L437.094 -172.111L439.323 -169.378L441.513 -166.656L443.666 -163.945L445.783 -161.247L447.866 -158.563L449.915 -155.895L451.933 -153.244L453.921 -150.61L455.88 -147.996L457.812 -145.401L459.719 -142.827L461.602 -140.274L463.462 -137.742L465.301 -135.232L467.12 -132.744L468.922 -130.279L470.707 -127.837L472.477 -125.419L474.234 -123.024L475.979 -120.653L477.714 -118.306L479.441 -115.984L481.161 -113.686L482.877 -111.412L484.589 -109.163L486.3 -106.938L488.01 -104.737L489.722 -102.56L491.438 -100.406L493.158 -98.276L494.885 -96.168L496.619 -94.0818L498.362 -92.0168L500.115 -89.9721L501.88 -87.9467L503.658 -85.9397L505.449 -83.9498L507.254 -81.9761L509.076 -80.0171L510.913 -78.0715L512.766 -76.138L514.637 -74.2149L516.526 -72.3006L518.432 -70.3937L520.356 -68.4924L522.297 -66.5949L524.257 -64.6996L526.233 -62.8045L528.227 -60.9079L530.237 -59.0079L532.262 -57.1027L534.302 -55.1904L536.357 -53.2692L538.424 -51.3373L540.503 -49.3928L542.592 -47.4339L544.69 -45.4591L546.796 -43.4664L548.909 -41.4544L551.025 -39.4214L553.144 -37.3659L555.264 -35.2863L557.383 -33.1812L559.498 -31.0493L561.607 -28.889L563.709 -26.6993L565.799 -24.479L567.877 -22.2269L569.939 -19.9421L571.983 -17.6237L574.006 -15.2709L576.005 -12.883L577.977 -10.4595L579.92 -7.99991L581.83 -5.50385L583.705 -2.97116L585.542 -0.401733L587.337 2.20441L589.089 4.84711L590.793 7.52606L592.447 10.2408L594.049 12.991L595.596 15.7757L597.084 18.5944L598.511 21.446L599.875 24.3295L601.173 27.2439L602.403 30.1878L603.562 33.1599L604.648 36.1588L605.66 39.1829L606.595 42.2305L607.451 45.2999L608.227 48.3893L608.922 51.4968L609.533 54.6205L610.06 57.7582L610.501 60.908L610.856 64.0677L611.124 67.2351L611.304 70.4082L611.397 73.5846" stroke="#FDC93A" stroke-width="5"/>
</svg>
