<svg width="294" height="134" viewBox="0 0 294 134" fill="none" xmlns="http://www.w3.org/2000/svg">
<path fill-rule="evenodd" clip-rule="evenodd" d="M487.878 -109.659L486.843 -105.923L485.791 -102.213L484.727 -98.5284L483.653 -94.8693L482.573 -91.234L481.487 -87.6214L480.397 -84.0305L479.304 -80.4601L478.207 -76.909L477.105 -73.3765L475.998 -69.8616L474.882 -66.3636L473.757 -62.8822L472.618 -59.417L471.463 -55.968L470.288 -52.5358L469.086 -49.121L467.855 -45.7248L466.587 -42.3486L465.277 -38.9945L463.919 -35.6645L462.509 -32.3611L461.042 -29.0871L459.512 -25.845L457.917 -22.6378L456.254 -19.4682L454.521 -16.3387L452.718 -13.2518L450.843 -10.2099L448.896 -7.21524L446.878 -4.27036L444.787 -1.37769L442.625 1.46036L440.391 4.2413L438.085 6.96268L435.709 9.6221L433.262 12.2172L430.746 14.7459L428.163 17.2061L425.515 19.596L422.802 21.9139L420.028 24.1584L417.196 26.3283L414.308 28.4228L411.367 30.4411L408.377 32.3829L405.342 34.2482L402.265 36.0372L399.15 37.7502L396.001 39.3882L392.823 40.9521L389.619 42.4431L386.393 43.8628L383.151 45.2129L379.894 46.4954L376.628 47.7123L373.356 48.8659L370.082 49.9587L366.809 50.9931L363.541 51.9717L360.28 52.8972L357.03 53.7725L353.793 54.6L350.571 55.3828L347.368 56.1234L344.183 56.8247L341.021 57.4892L337.881 58.1196L334.765 58.7185L331.675 59.2883L328.611 59.8313L325.574 60.3499L322.564 60.8464L319.582 61.3228L316.628 61.781L313.703 62.2232L310.805 62.6511L307.935 63.0664L305.092 63.4708L302.276 63.8658L299.487 64.253L296.724 64.6336L293.986 65.0088L291.273 65.3795L288.583 65.7468L285.915 66.1111L283.269 66.4728L280.642 66.8319L278.034 67.1879L275.444 67.5402L272.869 67.888L270.308 68.2304L267.761 68.5664L265.226 68.8957L262.703 69.2189L260.19 69.5372L257.689 69.8524L255.198 70.1674L252.717 70.4851L250.247 70.8093L247.786 71.1443L245.335 71.4946L242.893 71.8655L240.459 72.2624L238.032 72.6913L235.612 73.1585L233.196 73.6706L230.782 74.2336L228.369 74.8534L225.954 75.5352L223.534 76.2839L221.106 77.1036L218.666 77.998L216.211 78.9698L213.736 80.0212L211.238 81.1535L208.713 82.3671L206.157 83.6617L203.565 85.0359L200.934 86.4877L198.259 88.0141L195.536 89.6112L192.763 91.2746L189.936 92.9987L187.052 94.7775L184.108 96.6042L181.102 98.4713L178.032 100.371L174.897 102.294L171.696 104.232L168.429 106.176L165.095 108.115L161.696 110.04L158.232 111.94L154.706 113.805L151.119 115.624L147.475 117.387L143.777 119.083L140.028 120.702L136.234 122.234L132.399 123.669L128.529 124.997L124.629 126.21L120.705 127.298L116.764 128.253L112.813 129.068L108.859 129.735L104.908 130.248L100.969 130.602L97.0496 130.791L93.1562 130.812L89.2969 130.661L85.479 130.335L81.7099 129.834L77.9964 129.156L74.3455 128.301L70.7635 127.271L67.2564 126.068L63.8299 124.693L60.4888 123.152L57.2377 121.448L54.0805 119.587L51.0204 117.575L48.0599 115.418L45.2012 113.122L42.4453 110.697L39.7931 108.149L37.2444 105.488L34.7986 102.721L32.4544 99.8565L30.21 96.9045L28.063 93.8732L26.0112 90.7705L24.0528 87.6033L22.186 84.3782L20.4094 81.1008L18.7218 77.7761L17.1223 74.4086L15.6103 71.0023L14.1858 67.5604L12.8488 64.086L11.6001 60.5812L10.4408 57.0482L9.37257 53.4884L8.3977 49.9029L7.51857 46.2927L6.73752 42.6591L6.05674 39.0035L5.47826 35.3278L5.00378 31.6337L4.63471 27.9236L4.37204 24.2001L4.21638 20.4658L4.1679 16.7239L4.22632 12.9776L4.39089 9.23038L4.66038 5.4859L5.03306 1.74792L5.50667 -1.97964L6.07847 -5.69284L6.74519 -9.38763L7.50304 -13.0599L8.34774 -16.7058L9.27451 -20.3212L10.2781 -23.9023L11.3527 -27.4453L12.4921 -30.9466L13.6898 -34.4028L14.9386 -37.8107L16.2312 -41.1674L17.5599 -44.4702L18.9164 -47.7168L20.2926 -50.9052L21.6798 -54.0337L23.0693 -57.101L24.4521 -60.1063L25.8193 -63.0491L27.1618 -65.9294L28.4705 -68.7477L29.7367 -71.5048L30.9513 -74.202L32.1058 -76.8412L33.1919 -79.4245L34.2013 -81.9546L35.1264 -84.4346L35.9601 -86.8681L36.6954 -89.2589L37.3263 -91.6113L37.8472 -93.93L38.2532 -96.2199L38.5402 -98.4862L38.7048 -100.734L38.7447 -102.97L38.6581 -105.199L38.4445 -107.426L38.1039 -109.659L37.6378 -111.903L37.0481 -114.163L36.3381 -116.445L35.5117 -118.754L34.5741 -121.096L33.531 -123.476L32.389 -125.898L31.1556 -128.367L29.8386 -130.885L28.4465 -133.456L26.9883 -136.084L25.4736 -138.77L23.9124 -141.516L22.3152 -144.323L20.6934 -147.192L19.0597 -150.123L17.4278 -153.113L15.812 -156.162L14.2277 -159.265L12.69 -162.42L11.2148 -165.62L9.81727 -168.862L8.51278 -172.137L7.31595 -175.439L6.24077 -178.761L5.3003 -182.093L4.50658 -185.427L3.87045 -188.755L3.40173 -192.066L3.10909 -195.352L3 -198.602L3.08075 -201.808L3.3565 -204.958L3.83118 -208.044L4.50747 -211.056L5.38668 -213.985L6.46874 -216.822L7.7522 -219.56L9.23421 -222.191L10.9106 -224.707L12.7758 -227.104L14.8232 -229.375L17.0448 -231.518L19.4317 -233.528L21.9741 -235.404L24.6612 -237.144L27.4814 -238.749L30.4228 -240.219L33.4727 -241.557L36.6182 -242.765L39.8462 -243.847L43.1433 -244.809L46.4962 -245.655L49.8919 -246.394L53.3172 -247.031L56.7597 -247.576L60.2072 -248.037L63.6479 -248.424L67.0709 -248.745L70.4656 -249.012L73.8226 -249.235L77.1328 -249.423L80.3884 -249.589L83.5821 -249.742L86.7077 -249.894L89.7599 -250.055L92.7343 -250.234L95.6274 -250.443L98.4366 -250.69L101.16 -250.985L103.798 -251.336L106.35 -251.751L108.816 -252.238L111.199 -252.803L113.501 -253.452L115.725 -254.191L117.874 -255.023L119.954 -255.953L121.969 -256.982L123.925 -258.114L125.826 -259.348L127.679 -260.686L129.491 -262.126L131.268 -263.667L133.016 -265.307L134.743 -267.042L136.455 -268.868L138.159 -270.78L139.862 -272.772L141.571 -274.838L143.292 -276.97L145.031 -279.161L146.794 -281.403L148.586 -283.687L150.413 -286.002L152.279 -288.34L154.19 -290.689L156.148 -293.037L158.157 -295.374L160.22 -297.688L162.34 -299.967L164.517 -302.199L166.752 -304.373L169.046 -306.479L171.398 -308.505L173.808 -310.442L176.273 -312.279L178.793 -314.009L181.363 -315.623L183.981 -317.112L186.643 -318.47L189.346 -319.69L192.085 -320.767L194.856 -321.694L197.654 -322.47L200.473 -323.089L203.31 -323.551L206.157 -323.855L209.011 -324L211.865 -323.988L214.714 -323.822L217.555 -323.504L220.381 -323.04L223.188 -322.435L225.972 -321.694L228.731 -320.826L231.459 -319.839L234.155 -318.741L236.817 -317.541L239.442 -316.249L242.029 -314.876L244.579 -313.431L247.091 -311.927L249.565 -310.373L252.004 -308.782L254.409 -307.163L256.781 -305.528L259.125 -303.888L261.444 -302.253L263.742 -300.633L266.022 -299.038L268.29 -297.477L270.552 -295.958L272.811 -294.489L275.075 -293.079L277.349 -291.732L279.64 -290.456L281.952 -289.255L284.294 -288.133L286.67 -287.093L289.087 -286.138L291.551 -285.27L294.068 -284.49L296.643 -283.796L299.282 -283.189L301.989 -282.666L304.769 -282.224L307.626 -281.861L310.563 -281.571L313.583 -281.35L316.688 -281.192L319.881 -281.091L323.161 -281.039L326.53 -281.029L329.986 -281.053L333.53 -281.103L337.157 -281.169L340.867 -281.241L344.655 -281.312L348.517 -281.37L352.449 -281.407L356.444 -281.413L360.498 -281.378L364.604 -281.295L368.757 -281.157L372.952 -280.955L377.181 -280.683L381.439 -280.335L385.719 -279.906L390.016 -279.39L394.322 -278.781L398.63 -278.076L402.934 -277.27L407.227 -276.36L411.501 -275.341L415.748 -274.21L419.961 -272.965L424.133 -271.603L428.255 -270.121L432.32 -268.519L436.319 -266.795L440.245 -264.947L444.088 -262.975L447.841 -260.879L451.497 -258.659L455.048 -256.317L458.486 -253.852L461.805 -251.268L464.998 -248.567L468.06 -245.751L470.984 -242.824L473.767 -239.79L476.405 -236.652L478.892 -233.416L481.228 -230.087L483.408 -226.668L485.432 -223.167L487.298 -219.588L489.007 -215.937L490.557 -212.221L491.951 -208.444L493.189 -204.614L494.273 -200.736L495.207 -196.817L495.993 -192.861L496.636 -188.876L497.138 -184.866L497.505 -180.837L497.742 -176.795L497.854 -172.744L497.848 -168.69L497.728 -164.636L497.502 -160.587L497.176 -156.547L496.757 -152.519L496.251 -148.506L495.665 -144.511L495.005 -140.537L494.28 -136.585L493.495 -132.658L492.657 -128.757L491.772 -124.882L490.846 -121.034L489.885 -117.215L488.894 -113.423L487.878 -109.659Z" stroke="#FDC93A" stroke-width="5"/>
</svg>
