<svg width="549" height="896" viewBox="0 0 549 896" fill="none" xmlns="http://www.w3.org/2000/svg">
<path fill-rule="evenodd" clip-rule="evenodd" d="M223.793 447.811L224.594 448.939L226.955 450.114L230.854 451.384L236.318 452.795L243.41 454.397L252.224 456.247L262.875 458.404L275.483 460.934L290.162 463.908L306.995 467.396L326.01 471.47L347.147 476.19L370.22 481.597L394.883 487.704L420.593 494.481L446.596 501.841L471.932 509.631L495.473 517.629L515.998 525.547L532.308 533.053L543.354 539.795L548.374 545.439L546.992 549.71L539.279 552.424L525.742 553.509L507.251 553.011L484.926 551.078L460 547.939L433.688 543.868L407.083 539.155L381.093 534.075L356.409 528.874L333.507 523.754L312.674 518.87L294.042 514.337L277.626 510.231L263.365 506.6L251.146 503.47L240.836 500.854L232.297 498.759L225.404 497.19L220.049 496.155L216.159 495.675L213.691 495.783L212.654 496.532L213.056 497.982L214.836 500.153L217.959 503.082L222.433 506.825L228.298 511.458L235.615 517.072L244.464 523.773L254.923 531.673L267.062 540.884L280.922 551.505L296.488 563.605L313.67 577.208L332.268 592.259L351.945 608.606L372.207 625.97L392.392 643.927L411.684 661.906L429.153 679.203L443.823 695.022L454.769 708.543L461.224 719.006L462.681 725.804L458.964 728.555L450.26 727.16L437.094 721.808L420.258 712.946L400.711 701.211L379.464 687.354L357.483 672.148L335.61 656.318L314.522 640.495L294.713 625.183L276.505 610.754L260.072 597.461L245.472 585.452L232.677 574.794L221.604 565.497L212.14 557.533L204.157 550.855L197.529 545.408L192.143 541.142L187.901 538.024L184.729 536.039L182.581 535.206L181.443 535.581L181.291 537.212L182.06 540.091L183.708 544.24L186.218 549.717L189.597 556.611L193.861 565.034L199.037 575.117L205.146 586.996L212.2 600.799L220.189 616.628L229.066 634.535L238.732 654.485L249.021 676.33L259.686 699.764L270.392 724.3L280.716 749.242L290.164 773.7L298.2 796.619L304.294 816.852L307.979 833.269L308.912 844.875L306.921 850.938L302.04 851.088L294.503 845.365L284.719 834.214L273.22 818.416L260.596 798.984L247.43 777.039L234.247 753.688L221.477 729.936L209.445 706.621L198.363 684.387L188.351 663.69L179.446 644.812L171.63 627.896L164.847 612.982L159.014 600.034L154.04 588.975L149.833 579.703L146.302 572.117L143.368 566.124L140.958 561.654L139.015 558.667L137.489 557.165L136.345 557.195L135.538 558.784L135.013 561.894L134.723 566.532L134.631 572.75L134.701 580.632L134.903 590.292L135.2 601.858L135.555 615.462L135.92 631.224L136.242 649.223L136.454 669.476L136.479 691.896L136.234 716.257L135.627 742.155L134.568 768.977L132.981 795.888L130.809 821.848L128.033 845.659L124.677 866.057L120.82 881.833L116.588 891.973L112.15 895.79L107.695 893.017L103.418 883.848L99.4918 868.908L96.05 849.169L93.1785 825.817L90.9107 800.116L89.233 773.282L88.0952 746.384L87.4218 720.292L87.1249 695.654L87.1135 672.906L87.301 652.299L87.6096 633.939L87.9721 617.826L88.3317 603.885L88.641 592.003L88.8601 582.048L88.9538 573.891L88.8894 567.415L88.6333 562.529L88.1485 559.178L87.3904 557.345L86.3035 557.065L84.8407 558.328L82.9667 561.079L80.6353 565.312L77.7888 571.058L74.3583 578.385L70.2643 587.381L65.419 598.149L59.7292 610.79L53.1028 625.387L45.4564 641.984L36.7276 660.556L26.8903 680.979L15.9734 702.993L4.08081 726.174L-8.58978 749.908L-21.7335 773.386L-34.9355 795.628L-47.6841 815.536L-59.402 831.985L-69.4967 843.936L-77.4231 850.562L-82.7481 851.361L-85.2062 846.226L-84.7326 835.462L-81.4668 819.751L-75.7278 800.051L-67.9668 777.482L-58.7076 753.195L-48.4884 728.266L-37.813 703.614L-27.1166 679.966L-16.7491 657.843L-6.97079 637.577L2.04007 619.341L10.175 603.182L17.3799 589.062L23.639 576.885L28.9616 566.525L33.3696 557.847L36.8878 550.717L39.5357 545.021L41.321 540.665L42.232 537.587L42.2316 535.756L41.2533 535.183L39.2662 535.829L36.2599 537.632L32.1926 540.569L26.9944 544.65L20.5721 549.906L12.8132 556.385L3.59338 564.141L-7.21487 573.222L-19.7289 583.663L-34.0381 595.46L-50.1805 608.556L-68.1142 622.818L-87.6858 638.011L-108.599 653.783L-130.387 669.651L-152.403 685.003L-173.829 699.126L-193.715 711.25L-211.049 720.617L-224.859 726.564L-234.316 728.609L-238.849 726.519L-238.214 720.347L-232.529 710.432L-222.252 697.35L-208.116 681.842L-191.028 664.726L-171.962 646.806L-151.86 628.803L-131.562 611.312L-111.754 594.781L-92.9583 579.51L-75.5343 565.672L-59.7021 553.331L-45.5684 542.479L-33.1566 533.05L-22.4337 524.948L-13.3341 518.064L-5.77817 512.284L0.312805 507.501L5.00479 503.622L8.34171 500.568L10.3367 498.279L10.963 496.715L10.156 495.857L7.91498 495.652L4.25247 496.041L-0.86441 496.989L-7.50638 498.474L-15.7748 500.486L-25.7936 503.019L-37.6993 506.067L-51.6273 509.62L-67.6939 513.653L-85.9718 518.122L-106.46 522.956L-129.047 528.049L-153.474 533.249L-179.297 538.364L-205.858 543.153L-232.286 547.346L-257.512 550.653L-280.335 552.794L-299.516 553.533L-313.908 552.706L-322.593 550.25L-325 546.217L-320.986 540.775L-310.858 534.187L-295.322 526.78L-275.39 518.904L-252.247 510.898L-227.118 503.058L-201.152 495.618L-175.339 488.741L-150.468 482.523L-127.113 477.004L-105.652 472.177L-86.2919 468.004L-69.1115 464.427L-54.0943 461.376L-41.1634 458.78L-30.209 456.568L-21.1099 454.674L-13.7505 453.036L-8.03296 451.598L-3.88754 450.309L-1.28137 449.122L-0.227814 447.989L-0.775177 446.864L-2.89072 445.7L-6.54428 444.448L-11.755 443.063L-18.582 441.495L-27.115 439.688L-37.4653 437.585L-49.7538 435.118L-64.096 432.22L-80.5821 428.818L-99.2509 424.842L-120.059 420.229L-142.842 414.933L-167.283 408.936L-192.871 402.262L-218.887 394.986L-244.401 387.252L-268.308 379.269L-289.396 371.317L-306.453 363.722L-318.397 356.835L-324.413 350.996L-324.057 346.491L-317.329 343.522L-304.67 342.177L-286.898 342.43L-265.102 344.148L-240.507 347.113L-214.338 351.055L-187.714 355.685L-161.575 360.723L-136.645 365.92L-113.436 371.065L-92.2607 375.995L-73.2742 380.59L-56.5083 384.768L-41.9102 388.477L-29.3745 391.687L-18.7698 394.385L-9.95807 396.564L-2.81024 398.218L2.78311 399.338L6.90338 399.908L9.59625 399.897L10.8642 399.255L10.6873 397.919L9.1232 395.864L6.21344 393.059L1.95654 389.45L-3.68253 384.965L-10.7637 379.514L-19.3628 372.993L-29.5604 365.292L-41.4287 356.297L-55.0132 345.906L-70.3114 334.044L-87.2463 320.68L-105.637 305.852L-125.171 289.696L-145.38 272.47L-165.628 254.573L-185.123 236.553L-202.947 219.096L-218.127 202.987L-229.723 189.046L-236.936 178.05L-239.21 170.637L-236.313 167.227L-228.377 167.966L-215.874 172.712L-199.561 181.054L-180.378 192.379L-159.335 205.95L-137.41 220.993L-115.471 236.768L-94.2202 252.629L-74.1816 268.051L-55.7033 282.64L-38.9811 296.127L-24.089 308.347L-11.0108 319.222L0.328949 328.734L10.0411 336.907L18.2514 343.787L25.0866 349.427L30.6635 353.878L35.0823 357.177L38.4206 359.342L40.7297 360.361L42.0295 360.185L42.3334 358.753L41.7072 356.073L40.1982 352.13L37.825 346.869L34.5857 340.208L30.4637 332.037L25.4352 322.227L19.4762 310.643L12.5724 297.155L4.72989 281.653L-4.01083 264.078L-13.5604 244.446L-23.7643 222.887L-34.3896 199.678L-45.1151 175.277L-55.5316 150.345L-65.1541 125.743L-73.451 102.503L-79.8877 81.7645L-83.9834 64.6684L-85.3709 52.2395L-83.8495 45.2586L-79.418 44.1589L-72.2804 48.9659L-62.8212 59.297L-51.5569 74.4181L-39.0722 93.3449L-25.9551 114.966L-12.7428 138.164L0.116974 161.913L12.2838 185.346L23.5268 207.787L33.7143 228.752L42.7956 247.933L50.7814 265.165L57.7245 280.398L63.7027 293.654L68.8069 305.008L73.1303 314.557L76.7631 322.405L79.7876 328.647L82.2762 333.356L84.2904 336.578L85.8799 338.319L87.0828 338.537L87.9391 337.193L88.5057 334.325L88.8303 329.932L88.952 323.971L88.9051 316.361L88.7223 306.992L88.4377 295.739L88.0894 282.468L87.7222 267.057L87.3896 249.417L87.1555 229.52L87.0945 207.434L87.2907 183.36L87.8343 157.671L88.8152 130.947L90.314 103.985L92.3904 77.7964L95.0709 53.5589L98.3377 32.5335L102.122 15.9469L106.305 4.85329L110.723 0L115.188 1.7247L119.506 9.90666L123.498 23.9843L127.024 43.0346L129.99 65.8957L132.354 91.3064L134.123 118.037L135.343 144.988L136.084 171.257L136.435 196.161L136.486 219.232L136.325 240.19L136.03 258.91L135.672 275.378L135.309 289.658L134.989 301.859L134.753 312.111L134.637 320.547L134.674 327.284L134.897 332.418L135.343 336.012L136.054 338.087L137.085 338.617L138.486 337.595L140.291 335.079L142.546 331.084L145.306 325.583L148.639 318.513L152.621 309.789L157.341 299.311L162.89 286.974L169.361 272.693L176.84 256.415L185.394 238.152L195.055 218.011L205.805 196.226L217.552 173.195L230.117 149.5L243.21 125.919L256.435 103.409L269.293 83.0533L281.215 65.9803L291.607 53.2508L299.911 45.7331L305.673 43.9881L308.598 48.1887L308.587 58.0926L305.748 73.0744L300.376 92.2111L292.903 114.401L283.846 138.489L273.745 163.383L263.111 188.133L252.392 211.98L241.952 234.373L232.066 254.95L222.924 273.515L214.645 290.004L207.29 304.444L200.88 316.922L195.41 327.562L190.858 336.5L187.2 343.868L184.414 349.785L182.491 354.349L181.439 357.629L181.291 359.658L182.109 360.431L183.935 359.974L186.777 358.353L190.672 355.596L195.684 351.699L201.904 346.633L209.442 340.352L218.421 332.804L228.968 323.936L241.203 313.713L255.222 302.13L271.073 289.234L288.728 275.145L308.055 260.08L328.781 244.371L350.468 228.481L372.498 213.001L394.079 198.631L414.278 186.137L432.086 176.283L446.517 169.753L456.714 167.064L462.057 168.492L462.246 174.029L457.343 183.381L447.754 196.005L434.176 211.18L417.493 228.096L398.677 245.939L378.681 263.972L358.364 281.578L338.438 298.286L319.453 313.772L301.793 327.846L285.697 340.426L271.29 351.512L258.605 361.162L247.617 369.468L238.264 376.538L230.467 382.487L224.148 387.422L219.237 391.439L215.686 394.62L213.476 397.028L212.628 398.705L213.204 399.673L215.219 399.978L218.654 399.681L223.535 398.82L229.928 397.42L237.93 395.491L247.661 393.041L259.257 390.074L272.854 386.6L288.574 382.642L306.497 378.238L326.638 373.456L348.904 368.396L373.062 363.201L398.701 358.058L425.197 353.199L451.714 348.892L477.209 345.425L500.498 343.08L520.34 342.104L535.564 342.675L545.206 344.873L548.634 348.663L545.634 353.895L536.441 360.321L521.705 367.622L502.397 375.447L479.683 383.453L454.79 391.337L428.886 398.853L402.99 405.828L377.925 412.155L354.299 417.786L332.518 422.721L312.816 426.994L295.287 430.662L279.93 433.792L266.673 436.456L255.412 438.724L246.025 440.665L238.396 442.34L232.423 443.806L228.03 445.115L225.179 446.316L223.875 447.454L223.793 447.811Z" fill="#FDC93A"/>
</svg>
