<svg width="537" height="383" viewBox="0 0 537 383" fill="none" xmlns="http://www.w3.org/2000/svg">
<path fill-rule="evenodd" clip-rule="evenodd" d="M548.793 -65.1891L549.594 -64.0611L551.955 -62.8856L555.854 -61.6162L561.318 -60.2055L568.41 -58.6028L577.224 -56.7531L587.875 -54.5961L600.483 -52.0659L615.162 -49.0924L631.995 -45.6036L651.01 -41.5298L672.147 -36.8103L695.22 -31.403L719.883 -25.2955L745.593 -18.5186L771.596 -11.1588L796.932 -3.36877L820.473 4.62891L840.998 12.5475L857.308 20.0535L868.354 26.7949L873.374 32.4388L871.992 36.7098L864.279 39.4238L850.742 40.5093L832.251 40.0111L809.926 38.0785L785 34.9393L758.688 30.8683L732.083 26.1548L706.093 21.0753L681.409 15.8741L658.507 10.7535L637.674 5.86987L619.042 1.33685L602.626 -2.76901L588.365 -6.40009L576.146 -9.52991L565.836 -12.1455L557.297 -14.2408L550.404 -15.8104L545.049 -16.8448L541.159 -17.3249L538.691 -17.2173L537.654 -16.4679L538.056 -15.0183L539.836 -12.8466L542.959 -9.91763L547.433 -6.17477L553.298 -1.5423L560.615 4.07196L569.464 10.773L579.923 18.6732L592.062 27.884L605.922 38.5046L621.488 50.6054L638.67 64.2077L657.268 79.2589L676.945 95.6059L697.207 112.97L717.392 130.927L736.684 148.906L754.153 166.203L768.823 182.022L779.769 195.543L786.224 206.006L787.681 212.804L783.964 215.555L775.26 214.16L762.094 208.808L745.258 199.946L725.711 188.211L704.464 174.354L682.483 159.148L660.61 143.318L639.522 127.495L619.713 112.183L601.505 97.7542L585.072 84.4611L570.472 72.4517L557.677 61.7939L546.604 52.4971L537.14 44.5334L529.157 37.855L522.529 32.4077L517.143 28.1422L512.901 25.0238L509.729 23.0395L507.581 22.2064L506.443 22.5805L506.291 24.2116L507.06 27.0908L508.708 31.2397L511.218 36.7168L514.597 43.6106L518.861 52.0342L524.037 62.1172L530.146 73.996L537.2 87.7991L545.189 103.628L554.066 121.535L563.732 141.485L574.021 163.33L584.686 186.764L595.392 211.3L605.716 236.242L615.164 260.7L623.2 283.619L629.294 303.852L632.979 320.269L633.912 331.875L631.921 337.938L627.04 338.088L619.503 332.365L609.719 321.214L598.22 305.416L585.596 285.984L572.43 264.039L559.247 240.688L546.477 216.936L534.445 193.621L523.363 171.387L513.351 150.69L504.446 131.812L496.63 114.896L489.847 99.982L484.014 87.0343L479.04 75.9746L474.833 66.7031L471.302 59.1169L468.368 53.124L465.958 48.654L464.015 45.6673L462.489 44.1647L461.345 44.1953L460.538 45.784L460.013 48.8939L459.723 53.5322L459.631 59.7497L459.701 67.6321L459.903 77.292L460.2 88.858L460.555 102.462L460.92 118.224L461.242 136.223L461.454 156.476L461.479 178.896L461.234 203.257L460.627 229.155L459.568 255.977L457.981 282.888L455.809 308.848L453.033 332.659L449.677 353.057L445.82 368.833L441.588 378.973L437.15 382.79L432.695 380.017L428.418 370.848L424.492 355.908L421.05 336.169L418.179 312.817L415.911 287.116L414.233 260.282L413.095 233.384L412.422 207.292L412.125 182.654L412.113 159.906L412.301 139.299L412.61 120.939L412.972 104.826L413.332 90.8849L413.641 79.0029L413.86 69.0485L413.954 60.891L413.889 54.4149L413.633 49.5294L413.148 46.1779L412.39 44.3453L411.303 44.0649L409.841 45.328L407.967 48.0795L405.635 52.3116L402.789 58.0579L399.358 65.3846L395.264 74.381L390.419 85.1489L384.729 97.7899L378.103 112.387L370.456 128.984L361.728 147.556L351.89 167.979L340.973 189.993L329.081 213.174L316.41 236.908L303.266 260.386L290.064 282.628L277.316 302.536L265.598 318.985L255.503 330.936L247.577 337.562L242.252 338.361L239.794 333.226L240.267 322.462L243.533 306.751L249.272 287.051L257.033 264.482L266.292 240.195L276.512 215.266L287.187 190.614L297.883 166.966L308.251 144.843L318.029 124.577L327.04 106.341L335.175 90.1824L342.38 76.0624L348.639 63.8854L353.962 53.5255L358.37 44.8466L361.888 37.7172L364.536 32.0212L366.321 27.6655L367.232 24.5865L367.232 22.7563L366.253 22.1831L364.266 22.8288L361.26 24.6318L357.193 27.5694L351.994 31.6503L345.572 36.9064L337.813 43.3852L328.593 51.1406L317.785 60.2225L305.271 70.663L290.962 82.4598L274.82 95.5561L256.886 109.818L237.314 125.011L216.401 140.783L194.613 156.651L172.597 172.003L151.171 186.126L131.285 198.25L113.951 207.617L100.141 213.564L90.6837 215.609L86.1507 213.519L86.7859 207.347L92.4713 197.432L102.748 184.35L116.884 168.842L133.972 151.726L153.038 133.806L173.14 115.803L193.438 98.3124L213.246 81.7812L232.042 66.5104L249.466 52.6716L265.298 40.3315L279.432 29.4789L291.843 20.0496L302.566 11.948L311.666 5.0636L319.222 -0.716431L325.313 -5.49875L330.005 -9.37778L333.342 -12.4321L335.337 -14.7214L335.963 -16.2846L335.156 -17.1426L332.915 -17.3482L329.252 -16.959L324.136 -16.0113L317.494 -14.5261L309.225 -12.5142L299.206 -9.98111L287.301 -6.93256L273.373 -3.38L257.306 0.652771L239.028 5.12207L218.54 9.95642L195.953 15.0486L171.526 20.2493L145.703 25.3636L119.142 30.1533L92.7138 34.3458L67.4877 37.6526L44.6652 39.7943L25.4842 40.5333L11.0916 39.7059L2.40671 37.2495L0 33.2169L4.01365 27.7753L14.1423 21.1874L29.6783 13.7797L49.6103 5.90356L72.7531 -2.1022L97.8821 -9.94193L123.848 -17.3823L149.661 -24.2595L174.532 -30.477L197.887 -35.9959L219.348 -40.8227L238.708 -44.9957L255.888 -48.5732L270.906 -51.6238L283.837 -54.2198L294.791 -56.4318L303.89 -58.3262L311.25 -59.9644L316.967 -61.4023L321.112 -62.6909L323.719 -63.8783L324.772 -65.0107L324.225 -66.1356L322.109 -67.3004L318.456 -68.5517L313.245 -69.9366L306.418 -71.5052L297.885 -73.3116L287.535 -75.4155L275.246 -77.8816L260.904 -80.7797L244.418 -84.1816L225.749 -88.1579L204.941 -92.7711L182.158 -98.0671L157.717 -104.064L132.129 -110.738L106.113 -118.014L80.5992 -125.748L56.6923 -133.731L35.6045 -141.683L18.5474 -149.278L6.60268 -156.165L0.587392 -162.004L0.942881 -166.509L7.67054 -169.478L20.3303 -170.823L38.1024 -170.57L59.8978 -168.852L84.4927 -165.887L110.662 -161.945L137.286 -157.315L163.425 -152.277L188.355 -147.08L211.564 -141.935L232.739 -137.005L251.726 -132.41L268.492 -128.232L283.09 -124.523L295.625 -121.313L306.23 -118.615L315.042 -116.436L322.19 -114.782L327.783 -113.662L331.903 -113.092L334.596 -113.103L335.864 -113.745L335.687 -115.081L334.123 -117.136L331.213 -119.941L326.957 -123.55L321.317 -128.035L314.236 -133.486L305.637 -140.007L295.44 -147.708L283.571 -156.703L269.987 -167.094L254.689 -178.956L237.754 -192.32L219.363 -207.148L199.829 -223.304L179.62 -240.53L159.372 -258.427L139.877 -276.447L122.053 -293.904L106.873 -310.013L95.2767 -323.954L88.0643 -334.95L85.7905 -342.363L88.6865 -345.773L96.6233 -345.034L109.126 -340.288L125.439 -331.946L144.622 -320.621L165.665 -307.05L187.59 -292.007L209.529 -276.232L230.78 -260.371L250.818 -244.949L269.297 -230.36L286.019 -216.873L300.911 -204.653L313.989 -193.778L325.329 -184.266L335.041 -176.093L343.251 -169.213L350.087 -163.573L355.664 -159.122L360.082 -155.823L363.421 -153.658L365.73 -152.639L367.03 -152.815L367.333 -154.247L366.707 -156.927L365.198 -160.87L362.825 -166.131L359.586 -172.792L355.464 -180.963L350.435 -190.773L344.476 -202.357L337.572 -215.845L329.73 -231.347L320.989 -248.922L311.44 -268.554L301.236 -290.113L290.61 -313.322L279.885 -337.723L269.468 -362.655L259.846 -387.257L251.549 -410.497L245.112 -431.235L241.017 -448.332L239.629 -460.761L241.15 -467.741L245.582 -468.841L252.72 -464.034L262.179 -453.703L273.443 -438.582L285.928 -419.655L299.045 -398.034L312.257 -374.836L325.117 -351.087L337.284 -327.654L348.527 -305.213L358.714 -284.248L367.796 -265.067L375.781 -247.835L382.724 -232.602L388.703 -219.346L393.807 -207.992L398.13 -198.443L401.763 -190.595L404.788 -184.353L407.276 -179.644L409.29 -176.422L410.88 -174.681L412.083 -174.463L412.939 -175.807L413.506 -178.675L413.83 -183.068L413.952 -189.029L413.905 -196.639L413.722 -206.008L413.438 -217.261L413.089 -230.532L412.722 -245.943L412.39 -263.583L412.156 -283.48L412.095 -305.566L412.291 -329.64L412.834 -355.329L413.815 -382.053L415.314 -409.015L417.39 -435.204L420.071 -459.441L423.338 -480.466L427.122 -497.053L431.305 -508.147L435.723 -513L440.188 -511.275L444.506 -503.093L448.498 -489.016L452.024 -469.965L454.99 -447.104L457.354 -421.694L459.123 -394.963L460.343 -368.012L461.084 -341.743L461.435 -316.839L461.486 -293.768L461.325 -272.81L461.03 -254.09L460.672 -237.622L460.309 -223.342L459.989 -211.141L459.753 -200.889L459.637 -192.453L459.674 -185.716L459.897 -180.582L460.343 -176.988L461.054 -174.913L462.085 -174.383L463.486 -175.405L465.291 -177.921L467.546 -181.916L470.306 -187.417L473.639 -194.487L477.621 -203.211L482.341 -213.689L487.89 -226.026L494.361 -240.307L501.84 -256.585L510.394 -274.848L520.055 -294.989L530.805 -316.774L542.552 -339.805L555.117 -363.5L568.21 -387.081L581.435 -409.591L594.293 -429.947L606.215 -447.02L616.607 -459.749L624.911 -467.267L630.673 -469.012L633.598 -464.811L633.587 -454.907L630.748 -439.926L625.376 -420.789L617.903 -398.599L608.846 -374.511L598.745 -349.617L588.111 -324.867L577.392 -301.02L566.952 -278.627L557.066 -258.05L547.924 -239.485L539.645 -222.996L532.29 -208.556L525.88 -196.078L520.41 -185.438L515.858 -176.5L512.2 -169.132L509.414 -163.215L507.491 -158.651L506.439 -155.371L506.291 -153.342L507.109 -152.569L508.935 -153.026L511.777 -154.647L515.672 -157.404L520.684 -161.301L526.904 -166.367L534.442 -172.648L543.421 -180.196L553.968 -189.064L566.203 -199.287L580.222 -210.87L596.073 -223.766L613.728 -237.855L633.055 -252.92L653.781 -268.629L675.468 -284.519L697.498 -299.999L719.079 -314.369L739.278 -326.863L757.086 -336.717L771.517 -343.247L781.714 -345.936L787.057 -344.508L787.246 -338.971L782.343 -329.619L772.754 -316.995L759.176 -301.82L742.493 -284.904L723.677 -267.061L703.681 -249.028L683.364 -231.422L663.438 -214.714L644.453 -199.228L626.793 -185.154L610.697 -172.574L596.29 -161.488L583.605 -151.838L572.617 -143.532L563.264 -136.462L555.467 -130.513L549.148 -125.578L544.237 -121.561L540.686 -118.38L538.476 -115.972L537.628 -114.295L538.204 -113.327L540.219 -113.022L543.654 -113.319L548.535 -114.18L554.928 -115.58L562.93 -117.509L572.661 -119.959L584.257 -122.926L597.854 -126.4L613.574 -130.358L631.497 -134.762L651.638 -139.544L673.904 -144.604L698.062 -149.799L723.701 -154.942L750.197 -159.801L776.714 -164.108L802.209 -167.575L825.498 -169.92L845.34 -170.896L860.564 -170.325L870.206 -168.127L873.634 -164.337L870.634 -159.105L861.441 -152.679L846.705 -145.378L827.397 -137.553L804.683 -129.547L779.79 -121.663L753.886 -114.147L727.99 -107.172L702.925 -100.845L679.299 -95.2144L657.518 -90.2793L637.816 -86.0057L620.287 -82.3378L604.93 -79.208L591.673 -76.5444L580.412 -74.2758L571.025 -72.3351L563.396 -70.6599L557.423 -69.1938L553.03 -67.8846L550.179 -66.6843L548.875 -65.5462L548.793 -65.1891Z" fill="#FDC93A"/>
</svg>
