<svg width="321" height="161" viewBox="0 0 321 161" fill="none" xmlns="http://www.w3.org/2000/svg">
<path fill-rule="evenodd" clip-rule="evenodd" d="M282.538 160.499L282.605 161.72L282.799 162.945L283.118 164.178L283.555 165.424L284.106 166.684L284.767 167.964L285.534 169.265L286.402 170.592L287.367 171.948L288.424 173.334L289.569 174.754L290.796 176.21L292.101 177.704L293.477 179.238L294.917 180.814L296.415 182.433L297.963 184.095L299.551 185.802L301.172 187.553L302.813 189.347L304.466 191.184L306.116 193.061L307.752 194.977L309.36 196.927L310.926 198.909L312.434 200.916L313.869 202.945L315.215 204.988L316.458 207.039L317.58 209.089L318.566 211.132L319.403 213.158L320.076 215.158L320.573 217.123L320.884 219.044L321 220.912L320.914 222.718L320.622 224.454L320.122 226.112L319.414 227.687L318.501 229.171L317.389 230.561L316.086 231.854L314.601 233.047L312.946 234.139L311.134 235.131L309.181 236.024L307.1 236.821L304.91 237.525L302.625 238.142L300.263 238.677L297.841 239.135L295.373 239.523L292.875 239.848L290.361 240.118L287.846 240.338L285.341 240.518L282.857 240.664L280.406 240.783L277.997 240.883L275.637 240.97L273.333 241.052L271.093 241.134L268.922 241.224L266.823 241.326L264.801 241.448L262.859 241.594L261 241.77L259.226 241.981L257.538 242.233L255.938 242.531L254.427 242.88L253.006 243.284L251.676 243.751L250.436 244.284L249.289 244.889L248.235 245.573L247.274 246.341L246.407 247.2L245.632 248.154L244.941 249.201L244.33 250.341L243.791 251.573L243.32 252.896L242.911 254.31L242.558 255.814L242.256 257.407L242.001 259.087L241.786 260.855L241.608 262.707L241.459 264.643L241.336 266.658L241.232 268.751L241.142 270.917L241.059 273.152L240.978 275.45L240.891 277.806L240.793 280.212L240.675 282.66L240.532 285.141L240.355 287.645L240.138 290.16L239.873 292.674L239.552 295.174L239.169 297.645L238.717 300.072L238.189 302.439L237.579 304.73L236.881 306.929L236.092 309.019L235.206 310.983L234.222 312.807L233.138 314.475L231.954 315.973L230.669 317.292L229.286 318.419L227.809 319.348L226.242 320.072L224.59 320.589L222.86 320.898L221.059 321L219.196 320.9L217.278 320.604L215.317 320.121L213.319 319.462L211.295 318.638L209.253 317.663L207.203 316.551L205.152 315.318L203.108 313.979L201.078 312.55L199.069 311.047L197.085 309.486L195.132 307.881L193.214 306.246L191.333 304.596L189.493 302.944L187.695 301.301L185.941 299.679L184.231 298.087L182.565 296.536L180.942 295.034L179.363 293.588L177.826 292.207L176.329 290.897L174.87 289.663L173.447 288.511L172.058 287.447L170.701 286.474L169.371 285.599L168.068 284.824L166.787 284.154L165.525 283.594L164.278 283.148L163.044 282.82L161.818 282.615L160.597 282.538L159.376 282.594L158.151 282.779L156.919 283.087L155.675 283.515L154.416 284.057L153.138 284.71L151.838 285.468L150.513 286.328L149.16 287.286L147.776 288.336L146.359 289.474L144.906 290.695L143.415 291.994L141.884 293.364L140.312 294.799L138.697 296.293L137.038 297.837L135.334 299.423L133.587 301.041L131.796 302.681L129.963 304.333L128.088 305.984L126.176 307.622L124.228 309.233L122.249 310.802L120.243 312.315L118.216 313.757L116.174 315.111L114.124 316.362L112.073 317.494L110.029 318.492L108.002 319.341L105.999 320.028L104.031 320.54L102.106 320.866L100.234 320.997L98.4226 320.928L96.6807 320.652L95.0158 320.168L93.4345 319.477L91.9426 318.58L90.5447 317.484L89.2443 316.196L88.0436 314.725L86.9434 313.083L85.9437 311.283L85.0428 309.34L84.2382 307.27L83.5263 305.087L82.9026 302.81L82.3618 300.453L81.8978 298.035L81.5044 295.57L81.1745 293.074L80.901 290.561L80.6767 288.045L80.494 285.539L80.3458 283.053L80.2247 280.599L80.1236 278.186L80.0354 275.822L79.9536 273.514L79.8715 271.268L79.7828 269.091L79.6815 266.987L79.5618 264.958L79.4179 263.01L79.2445 261.144L79.0361 259.363L78.7876 257.668L78.4937 256.061L78.1492 254.543L77.7491 253.115L77.288 251.777L76.7605 250.531L76.161 249.376L75.4837 248.314L74.7224 247.346L73.8705 246.472L72.9245 245.689L71.8848 244.993L70.7523 244.375L69.5278 243.831L68.2119 243.354L66.8052 242.94L65.3084 242.583L63.7226 242.277L62.0487 242.018L60.288 241.801L58.4422 241.62L56.5135 241.469L54.5042 241.344L52.4175 241.239L50.2572 241.148L48.0276 241.065L45.7341 240.983L43.3827 240.897L40.9804 240.8L38.5354 240.684L36.0566 240.543L33.5543 240.369L31.0397 240.156L28.525 239.895L26.0236 239.579L23.5499 239.201L21.1188 238.755L18.7461 238.233L16.4481 237.63L14.2414 236.939L12.1425 236.157L10.1676 235.279L8.33235 234.303L6.65156 233.227L5.13871 232.051L3.80577 230.774L2.66288 229.399L1.71812 227.929L0.977297 226.369L0.443806 224.723L0.118566 222.999L0 221.204L0.0841011 219.345L0.364551 217.432L0.832901 215.473L1.47879 213.478L2.29023 211.456L3.25386 209.415L4.35527 207.365L5.5793 205.314L6.9103 203.27L8.33245 201.238L9.82996 199.227L11.3873 197.241L12.9895 195.285L14.622 193.364L16.2711 191.48L17.9238 189.637L19.568 187.836L21.1925 186.078L22.7869 184.364L24.3416 182.695L25.8479 181.069L27.298 179.486L28.6845 177.946L30.0008 176.445L31.2409 174.983L32.3993 173.558L33.4709 172.166L34.4507 170.806L35.3344 169.475L36.1175 168.169L36.7957 166.887L37.3648 165.623L37.8204 164.376L38.158 163.141L38.3728 161.915L38.4599 160.693L38.4147 159.472L38.24 158.248L37.9409 157.016L37.5224 155.773L36.989 154.515L36.3451 153.239L35.595 151.941L34.7429 150.618L33.7932 149.268L32.7503 147.886L31.619 146.472L30.4043 145.022L29.1117 143.534L27.7468 142.006L26.3163 140.437L24.827 138.825L23.2868 137.17L21.7041 135.47L20.0881 133.726L18.449 131.939L16.7978 130.109L15.1461 128.238L13.5069 126.328L11.8935 124.383L10.3203 122.406L8.80202 120.402L7.35416 118.377L5.9924 116.335L4.73259 114.286L3.59045 112.234L2.58133 110.19L1.71991 108.161L1.01991 106.156L0.4938 104.185L0.152485 102.256L0.00504893 100.379L0.058511 98.5629L0.317631 96.8152L0.784767 95.1439L1.4598 93.5557L2.34012 92.0565L3.42067 90.6509L4.69408 89.3427L6.15084 88.1339L7.77953 87.0258L9.56711 86.018L11.4992 85.1094L13.5604 84.2972L15.7345 83.5781L18.0052 82.9476L20.3559 82.4003L22.7701 81.9305L25.232 81.5317L27.7261 81.197L30.238 80.9193L32.7541 80.6913L35.2616 80.5056L37.749 80.3549L40.2058 80.2319L42.6226 80.1294L44.9911 80.0405L47.3037 79.9584L49.5543 79.8765L51.7372 79.7886L53.8477 79.6886L55.882 79.5705L57.8368 79.4288L59.7092 79.2579L61.4972 79.0525L63.1989 78.8073L64.8129 78.5172L66.3382 78.177L67.7736 77.7815L69.1185 77.3254L70.3723 76.8034L71.5341 76.2099L72.6034 75.539L73.5794 74.7846L74.4612 73.9402L75.2506 73.0016L75.954 71.9693L76.5776 70.8443L77.1274 69.627L77.6091 68.3183L78.0281 66.9188L78.3897 65.4292L78.6991 63.8504L78.9616 62.1835L79.1822 60.4296L79.3662 58.5906L79.5189 56.6683L79.6457 54.6653L79.7522 52.5847L79.8442 50.4301L79.9277 48.2058L80.009 45.9172L80.0944 43.5701L80.1907 41.1716L80.3046 38.7296L80.4435 36.2532L80.6143 33.7524L80.8246 31.2383L81.0816 28.7231L81.3927 26.2202L81.7652 23.7436L82.2059 21.3086L82.7216 18.9306L83.3183 16.6261L84.0016 14.4115L84.7762 12.3034L85.6461 10.318L86.6141 8.47111L87.6822 6.7775L88.8509 5.25081L90.1198 3.90314L91.487 2.74479L92.9494 1.784L94.5027 1.02678L96.1417 0.47671L97.8599 0.134909L99.6499 0L101.504 0.0681645L103.413 0.333263L105.368 0.787007L107.361 1.41919L109.381 2.21792L111.421 3.16995L113.47 4.26094L115.521 5.47577L117.567 6.79884L119.599 8.21431L121.613 9.70641L123.601 11.2596L125.559 12.8587L127.483 14.4893L129.37 16.1376L131.217 17.7905L133.021 19.4358L134.783 21.0623L136.5 22.6594L138.173 24.2176L139.802 25.7281L141.388 27.1829L142.932 28.5747L144.436 29.8969L145.9 31.1433L147.329 32.3084L148.723 33.387L150.085 34.3744L151.419 35.2659L152.726 36.0571L154.011 36.7438L155.276 37.3218L156.524 37.7866L157.76 38.1337L158.987 38.3586L160.208 38.456L161.429 38.4213L162.653 38.2567L163.884 37.9674L165.126 37.5582L166.383 37.0338L167.657 36.3985L168.954 35.6567L170.274 34.8126L171.622 33.8705L173.001 32.8348L174.413 31.7104L175.86 30.5022L177.345 29.2155L178.869 27.8562L180.435 26.4306L182.043 24.9458L183.695 23.4093L185.391 21.8296L187.132 20.2159L188.916 18.5783L190.743 16.9275L192.61 15.2755L194.517 13.6348L196.46 12.0188L198.434 10.4418L200.436 8.91864L202.46 7.46459L204.5 6.0954L206.55 4.82688L208.601 3.6748L210.646 2.65453L212.677 1.78082L214.684 1.06749L216.658 0.527111L218.59 0.170721L220.472 0.00755936L222.293 0.0448183L224.047 0.287443L225.724 0.737988L227.319 1.39653L228.826 2.26066L230.239 3.32551L231.555 4.58389L232.772 6.02645L233.888 7.64192L234.904 9.41737L235.82 11.3385L236.64 13.39L237.366 15.5558L238.004 17.8194L238.557 20.1643L239.033 22.574L239.437 25.0327L239.777 27.5248L240.059 30.0359L240.291 32.5521L240.479 35.0607L240.633 37.5501L240.757 40.0098L240.861 42.4301L240.951 44.8026L241.033 47.12L241.115 49.3757L241.202 51.5642L241.301 53.6807L241.418 55.7212L241.557 57.6824L241.726 59.5615L241.928 61.3562L242.17 63.0649L242.456 64.686L242.792 66.2183L243.183 67.6609L243.634 69.0131L244.151 70.2741L244.738 71.4433L245.403 72.52L246.15 73.5035L246.987 74.3928L247.919 75.1894L248.943 75.8994L250.061 76.5291L251.271 77.0846L252.572 77.5715L253.965 77.9952L255.447 78.3612L257.019 78.6747L258.679 78.9407L260.426 79.1644L262.258 79.3511L264.174 79.5061L266.17 79.6348L268.245 79.7427L270.394 79.8357L272.613 79.9196L274.897 80.0008L277.239 80.0857L279.634 80.1808L282.073 80.2931L284.547 80.4297L287.046 80.5977L289.559 80.8046L292.075 81.0576L294.579 81.3642L297.059 81.7315L299.497 82.1666L301.881 82.676L304.191 83.2661L306.414 83.9423L308.531 84.7095L310.527 85.5716L312.385 86.5318L314.092 87.5919L315.632 88.7526L316.994 90.0135L318.168 91.373L319.145 92.8279L319.918 94.3743L320.485 96.0067L320.844 97.7188L320.995 99.5034L320.943 101.352L320.693 103.258L320.254 105.21L319.635 107.2L318.85 109.218L317.909 111.256L316.829 113.305L315.623 115.357L314.308 117.403L312.899 119.437L311.413 121.452L309.864 123.442L308.268 125.403L306.639 127.33L304.992 129.22L303.339 131.07L301.693 132.878L300.064 134.643L298.465 136.363L296.903 138.04L295.388 139.673L293.929 141.262L292.532 142.809L291.204 144.316L289.951 145.784L288.779 147.215L287.694 148.612L286.699 149.976L285.8 151.312L285 152.622L284.305 153.908L283.718 155.174L283.244 156.424L282.888 157.661L282.653 158.888L282.545 160.11L282.538 160.499Z" fill="#91A0E2"/>
</svg>
