<svg width="42" height="67" viewBox="0 0 42 67" fill="none" xmlns="http://www.w3.org/2000/svg">
<path d="M20.2083 29.7478C17.0254 24.3136 14.262 17.8111 9.22373 13.7921C5.80719 11.0668 0.285499 11.4014 2.51541 16.8523C4.12342 20.783 6.94489 24.3488 9.34399 27.8101C13.3422 33.5786 17.1501 39.4354 20.7695 45.4496C23.5652 50.095 26.4523 54.7526 28.5336 59.775C28.9003 60.6599 29.3154 61.6075 29.5625 62.5411C29.7891 63.3969 28.9297 60.8875 28.6271 60.0556" stroke="white" stroke-width="3" stroke-linecap="round"/>
<path d="M20.4489 31.1911C24.3007 22.3 28.1454 12.9224 34.5337 5.48029C36.3847 3.32397 40.3066 -0.682088 40.3066 4.65177C40.3066 11.4907 38.0718 18.515 36.3778 25.0708C32.9711 38.2549 30.1116 51.57 27.1839 64.8664" stroke="white" stroke-width="3" stroke-linecap="round"/>
</svg>
