<svg width="614" height="329" viewBox="0 0 614 329" fill="none" xmlns="http://www.w3.org/2000/svg">
<path d="M611.397 131.585V131.585ZM611.397 131.585L611.4 134.762L611.316 137.938L611.143 141.112L610.882 144.279L610.533 147.439L610.097 150.588L609.574 153.726L608.966 156.849L608.273 159.956L607.496 163.045L606.637 166.113L605.698 169.159L604.678 172.181L603.582 175.177L602.409 178.145L601.163 181.084L599.844 183.992L598.456 186.869L597.001 189.712L595.48 192.52L593.896 195.292L592.252 198.028L590.55 200.726L588.793 203.385L586.983 206.006L585.122 208.586L583.214 211.126L581.261 213.626L579.265 216.084L577.229 218.501L575.156 220.877L573.048 223.212L570.907 225.506L568.737 227.758L566.538 229.969L564.314 232.14L562.066 234.271L559.797 236.361L557.509 238.412L555.202 240.424L552.88 242.397L550.544 244.332L548.194 246.229L545.833 248.089L543.461 249.912L541.08 251.698L538.69 253.448L536.292 255.162L533.888 256.841L531.478 258.484L529.062 260.093L526.642 261.667L524.217 263.207L521.789 264.713L519.357 266.185L516.923 267.624L514.486 269.029L512.048 270.401L509.607 271.741L507.165 273.048L504.722 274.322L502.278 275.563L499.833 276.773L497.388 277.949L494.942 279.094L492.496 280.206L490.05 281.286L487.604 282.333L485.159 283.349L482.714 284.332L480.269 285.282L477.826 286.201L475.383 287.087L472.942 287.941L470.502 288.763L468.065 289.553L465.629 290.31L463.196 291.036L460.766 291.73L458.338 292.392L455.915 293.023L453.495 293.623L451.08 294.191L448.669 294.73L446.263 295.238L443.864 295.717L441.47 296.166L439.083 296.587L436.703 296.98L434.331 297.345L431.967 297.684L429.612 297.997L427.266 298.286L424.93 298.55L422.603 298.791L420.287 299.01L417.982 299.208L415.688 299.385L413.406 299.544L411.136 299.685L408.878 299.809L406.632 299.918L404.399 300.012L402.179 300.094L399.972 300.164L397.778 300.223L395.597 300.273L393.429 300.316L391.274 300.353L389.132 300.384L387.003 300.412L384.887 300.438L382.782 300.463L380.69 300.489L378.609 300.516L376.539 300.547L374.48 300.583L372.431 300.625L370.391 300.673L368.36 300.731L366.337 300.798L364.321 300.876L362.312 300.966L360.308 301.069L358.309 301.186L356.313 301.319L354.32 301.467L352.329 301.632L350.338 301.815L348.346 302.016L346.353 302.237L344.356 302.476L342.355 302.736L340.349 303.016L338.336 303.317L336.314 303.639L334.284 303.983L332.242 304.348L330.189 304.734L328.122 305.141L326.04 305.569L323.943 306.017L321.828 306.486L319.694 306.974L317.541 307.482L315.367 308.007L313.17 308.549L310.951 309.108L308.706 309.682L306.436 310.271L304.14 310.871L301.816 311.484L299.464 312.106L297.083 312.736L294.672 313.373L292.23 314.016L289.757 314.661L287.253 315.308L284.716 315.954L282.147 316.597L279.546 317.236L276.911 317.868L274.244 318.491L271.544 319.102L268.812 319.701L266.047 320.283L263.25 320.848L260.422 321.392L257.562 321.913L254.672 322.41L251.753 322.879L248.804 323.319L245.828 323.727L242.825 324.1L239.796 324.438L236.743 324.737L233.666 324.995L230.568 325.21L227.449 325.38L224.311 325.504L221.156 325.579L217.985 325.604L214.799 325.577L211.601 325.498L208.391 325.364L205.171 325.175L201.943 324.93L198.707 324.628L195.465 324.269L192.219 323.852L188.97 323.377L185.718 322.843L182.466 322.25L179.214 321.599L175.963 320.889L172.714 320.119L169.468 319.292L166.227 318.405L162.991 317.46L159.761 316.457L156.538 315.396L153.322 314.277L150.115 313.101L146.917 311.868L143.73 310.579L140.552 309.233L137.387 307.831L134.233 306.374L131.092 304.862L127.965 303.295L124.851 301.674L121.753 299.999L118.671 298.269L115.605 296.486L112.556 294.65L109.526 292.761L106.514 290.819L103.523 288.825L100.553 286.778L97.6049 284.678L94.6805 282.527L91.7808 280.323L88.9072 278.068L86.061 275.76L83.244 273.401L80.4576 270.989L77.7034 268.527L74.9829 266.013L72.2976 263.448L69.6489 260.832L67.0383 258.166L64.4672 255.45L61.9369 252.685L59.4488 249.871L57.0042 247.009L54.6042 244.099L52.25 241.143L49.9429 238.141L47.6837 235.094L45.4737 232.003L43.3136 228.868L41.2045 225.69L39.1471 222.471L37.1423 219.212L35.1909 215.913L33.2933 212.575L31.4504 209.2L29.6627 205.789L27.9306 202.342L26.2547 198.861L24.6354 195.346L23.073 191.8L21.5678 188.222L20.1203 184.615L18.7305 180.979L17.3989 177.315L16.1254 173.625L14.9103 169.909L13.7538 166.169L12.656 162.406L11.6169 158.62L10.6368 154.813L9.71558 150.986L8.85346 147.14L8.0505 143.275L7.3068 139.394L6.62245 135.497L5.99757 131.585L5.43227 127.658L4.92661 123.719L4.4805 119.768L4.09377 115.806L3.76616 111.834L3.49729 107.853L3.28676 103.864L3.13406 99.8679L3.03867 95.8653L3 91.8572L3.01745 87.8443L3.0904 83.8275L3.21822 79.8076L3.40027 75.785L3.63593 71.7607L3.9246 67.7351L4.26568 63.709L4.65862 59.6828L5.10291 55.6573L5.59805 51.6329L6.14361 47.6102L6.73919 43.5898L7.38445 39.5722L8.07909 35.5579L8.82286 31.5475L9.61558 27.5415L10.4571 23.5405L11.3473 19.545L12.2861 15.5557L13.2735 11.573L14.3096 7.59776L15.3944 3.63045L16.528 -0.328217L17.7104 -4.2776L18.9419 -8.21698L20.2225 -12.1456L21.5524 -16.0629L22.9318 -19.9679L24.3607 -23.86L25.8393 -27.7384L27.3677 -31.6023L28.9459 -35.4509L30.574 -39.2836L32.2519 -43.0994L33.9796 -46.8977L35.7569 -50.6777L37.5837 -54.4387L39.46 -58.18L41.3857 -61.9007L43.3608 -65.6001L45.3853 -69.2772L47.4591 -72.9311L49.5824 -76.5609L51.7551 -80.1657L53.9774 -83.7444L56.2493 -87.296L58.5707 -90.8194L60.9418 -94.3135L63.3626 -97.7773L65.8331 -101.21L68.3533 -104.609L70.9231 -107.975L73.5424 -111.305L76.2113 -114.599L78.9295 -117.856L81.6968 -121.073L84.5132 -124.251L87.3783 -127.388L90.2917 -130.481L93.2533 -133.531L96.2626 -136.536L99.3192 -139.495L102.423 -142.407L105.572 -145.269L108.767 -148.082L112.008 -150.844L115.292 -153.554L118.621 -156.211L121.992 -158.814L125.405 -161.361L128.86 -163.853L132.355 -166.287L135.889 -168.663L139.461 -170.981L143.071 -173.238L146.717 -175.436L150.399 -177.572L154.114 -179.646L157.863 -181.658L161.643 -183.606L165.454 -185.491L169.294 -187.311L173.163 -189.066L177.06 -190.755L180.982 -192.377L184.93 -193.931L188.902 -195.416L192.897 -196.831L196.914 -198.175L200.953 -199.446L205.011 -200.644L209.088 -201.767L213.183 -202.814L217.295 -203.784L221.421 -204.675L225.562 -205.486L229.715 -206.216L233.879 -206.864L238.053 -207.428L242.235 -207.908L246.424 -208.302L250.618 -208.609L254.815 -208.828L259.014 -208.959L263.213 -209L267.409 -208.951L271.602 -208.811L275.79 -208.579L279.969 -208.256L284.139 -207.84L288.298 -207.332L292.442 -206.732L296.571 -206.039L300.682 -205.255L304.772 -204.379L308.841 -203.412L312.885 -202.355L316.904 -201.208L320.893 -199.974L324.853 -198.653L328.78 -197.246L332.673 -195.756L336.53 -194.185L340.349 -192.534L344.128 -190.805L347.866 -189.002L351.562 -187.126L355.213 -185.181L358.818 -183.169L362.377 -181.093L365.888 -178.956L369.35 -176.76L372.762 -174.509L376.124 -172.205L379.435 -169.851L382.693 -167.451L385.9 -165.007L389.054 -162.523L392.155 -160L395.203 -157.444L398.199 -154.855L401.141 -152.238L404.031 -149.595L406.869 -146.929L409.655 -144.243L412.39 -141.54L415.074 -138.822L417.708 -136.092L420.293 -133.352L422.83 -130.606L425.319 -127.855L427.762 -125.102L430.16 -122.349L432.514 -119.598L434.824 -116.851L437.094 -114.111L439.323 -111.378L441.513 -108.656L443.666 -105.945L445.783 -103.247L447.866 -100.563L449.915 -97.8949L451.933 -95.2437L453.921 -92.6104L455.88 -89.996L457.812 -87.4012L459.719 -84.8269L461.602 -82.2736L463.462 -79.7418L465.301 -77.2319L467.12 -74.7443L468.922 -72.2794L470.707 -69.8374L472.477 -67.4189L474.234 -65.024L475.979 -62.653L477.714 -60.3062L479.441 -57.9836L481.161 -55.6855L482.877 -53.4119L484.589 -51.1626L486.3 -48.9377L488.01 -46.7369L489.722 -44.5599L491.438 -42.4064L493.158 -40.276L494.885 -38.168L496.619 -36.0818L498.362 -34.0168L500.115 -31.9721L501.88 -29.9467L503.658 -27.9397L505.449 -25.9498L507.254 -23.9761L509.076 -22.0171L510.913 -20.0715L512.766 -18.138L514.637 -16.2149L516.526 -14.3006L518.432 -12.3937L520.356 -10.4924L522.297 -8.59492L524.257 -6.69955L526.233 -4.80449L528.227 -2.90788L530.237 -1.0079L532.262 0.897293L534.302 2.80959L536.357 4.73077L538.424 6.66273L540.503 8.60722L542.592 10.5661L544.69 12.5409L546.796 14.5336L548.909 16.5456L551.025 18.5786L553.144 20.6341L555.264 22.7137L557.383 24.8188L559.498 26.9507L561.607 29.111L563.709 31.3007L565.799 33.521L567.877 35.7731L569.939 38.0579L571.983 40.3763L574.006 42.7291L576.005 45.117L577.977 47.5405L579.92 50.0001L581.83 52.4962L583.705 55.0288L585.542 57.5983L587.337 60.2044L589.089 62.8471L590.793 65.5261L592.447 68.2408L594.049 70.991L595.596 73.7757L597.084 76.5944L598.511 79.446L599.875 82.3295L601.173 85.2439L602.403 88.1878L603.562 91.1599L604.648 94.1588L605.66 97.1829L606.595 100.23L607.451 103.3L608.227 106.389L608.922 109.497L609.533 112.62L610.06 115.758L610.501 118.908L610.856 122.068L611.124 125.235L611.304 128.408L611.397 131.585" stroke="#F8ECDE" stroke-width="5"/>
</svg>
