<svg width="360" height="500" viewBox="0 0 360 500" fill="none" xmlns="http://www.w3.org/2000/svg">
<path d="M351.958 243.567V243.567ZM351.958 243.567L353.165 246.947L354.189 250.357L355.032 253.791L355.695 257.241L356.183 260.703L356.5 264.171L356.651 267.64L356.643 271.104L356.482 274.559L356.176 278.002L355.732 281.429L355.161 284.837L354.47 288.222L353.67 291.585L352.772 294.923L351.784 298.235L350.719 301.522L349.584 304.784L348.392 308.021L347.152 311.237L345.873 314.431L344.562 317.606L343.226 320.765L341.871 323.908L340.5 327.038L339.115 330.156L337.719 333.264L336.313 336.363L334.899 339.454L333.476 342.538L332.045 345.617L330.605 348.69L329.156 351.759L327.694 354.823L326.219 357.883L324.727 360.938L323.217 363.986L321.684 367.027L320.127 370.06L318.541 373.081L316.924 376.091L315.272 379.086L313.581 382.063L311.85 385.021L310.074 387.956L308.251 390.865L306.38 393.746L304.457 396.596L302.481 399.411L300.45 402.19L298.365 404.929L296.223 407.625L294.025 410.277L291.771 412.882L289.461 415.439L287.096 417.945L284.678 420.4L282.207 422.801L279.686 425.15L277.116 427.444L274.5 429.685L271.84 431.872L269.138 434.005L266.397 436.086L263.62 438.115L260.809 440.095L257.966 442.025L255.096 443.909L252.199 445.748L249.279 447.544L246.338 449.299L243.378 451.016L240.402 452.698L237.411 454.346L234.406 455.965L231.391 457.555L228.365 459.119L225.33 460.661L222.288 462.182L219.238 463.686L216.182 465.173L213.119 466.646L210.049 468.107L206.973 469.557L203.89 470.996L200.8 472.427L197.701 473.848L194.592 475.259L191.473 476.659L188.341 478.045L185.196 479.415L182.035 480.766L178.857 482.094L175.662 483.394L172.446 484.662L169.21 485.893L165.953 487.081L162.673 488.221L159.372 489.309L156.048 490.34L152.703 491.31L149.337 492.215L145.951 493.051L142.546 493.816L139.124 494.505L135.686 495.116L132.234 495.647L128.77 496.095L125.295 496.458L121.813 496.733L118.324 496.92L114.831 497.015L111.338 497.019L107.845 496.929L104.356 496.744L100.874 496.464L97.4007 496.086L93.9394 495.611L90.4926 495.037L87.0633 494.365L83.6543 493.593L80.2685 492.723L76.9086 491.753L73.5777 490.685L70.2784 489.519L67.0136 488.256L63.7861 486.897L60.5983 485.443L57.453 483.897L54.3526 482.26L51.2993 480.535L48.2953 478.723L45.3427 476.829L42.4432 474.854L39.5984 472.803L36.8098 470.679L34.0785 468.486L31.4054 466.228L28.7914 463.909L26.2367 461.533L23.7417 459.105L21.3064 456.63L18.9304 454.111L16.6134 451.554L14.3548 448.962L12.1537 446.341L10.0093 443.693L7.92038 441.023L5.88594 438.335L3.90483 435.632L1.97589 432.916L0.0980377 430.19L-1.72977 427.457L-3.50839 424.718L-5.23858 421.975L-6.92087 419.229L-8.55561 416.48L-10.1429 413.729L-11.6827 410.976L-13.1747 408.22L-14.6184 405.462L-16.0133 402.7L-17.3589 399.935L-18.6546 397.167L-19.9002 394.395L-21.0958 391.621L-22.2414 388.846L-23.3373 386.069L-24.3828 383.291L-25.3773 380.512L-26.3197 377.732L-27.2086 374.949L-28.0427 372.164L-28.8208 369.377L-29.542 366.587L-30.2058 363.795L-30.8125 361.004L-31.3625 358.213L-31.8564 355.426L-32.2953 352.643L-32.6807 349.866L-33.0143 347.098L-33.2985 344.341L-33.5359 341.598L-33.7292 338.871L-33.8815 336.161L-33.9961 333.472L-34.0765 330.806L-34.1263 328.163L-34.1494 325.547L-34.1497 322.959L-34.1312 320.401L-34.0982 317.873L-34.0551 315.377L-34.0062 312.914L-33.9561 310.484L-33.9095 308.09L-33.8711 305.729L-33.8458 303.404L-33.8384 301.114L-33.854 298.858L-33.8974 296.636L-33.9739 294.448L-34.0884 292.293L-34.246 290.168L-34.4517 288.074L-34.7104 286.008L-35.0272 283.967L-35.4068 281.951L-35.8538 279.956L-36.3727 277.98L-36.9678 276.02L-37.643 274.073L-38.4023 272.134L-39.249 270.201L-40.1862 268.269L-41.2166 266.335L-42.3425 264.393L-43.5657 262.44L-44.8875 260.471L-46.3088 258.482L-47.8297 256.466L-49.4498 254.421L-51.1682 252.34L-52.9833 250.219L-54.8926 248.053L-56.8933 245.837L-58.9817 243.567L-61.1535 241.238L-63.4035 238.846L-65.7262 236.388L-68.1152 233.859L-70.5636 231.256L-73.0639 228.576L-75.6081 225.817L-78.188 222.977L-80.7946 220.053L-83.419 217.045L-86.0523 213.951L-88.6852 210.772L-91.309 207.507L-93.9149 204.156L-96.4939 200.722L-99.0374 197.203L-101.538 193.604L-103.987 189.924L-106.38 186.166L-108.709 182.331L-110.969 178.423L-113.153 174.444L-115.256 170.397L-117.27 166.285L-119.189 162.112L-121.005 157.884L-122.711 153.604L-124.302 149.277L-125.772 144.909L-127.117 140.503L-128.333 136.065L-129.416 131.601L-130.363 127.114L-131.17 122.611L-131.834 118.097L-132.352 113.579L-132.721 109.061L-132.938 104.551L-133 100.054L-132.904 95.5788L-132.649 91.1309L-132.23 86.7179L-131.647 82.3471L-130.898 78.026L-129.981 73.7623L-128.895 69.5635L-127.64 65.4374L-126.214 61.3915L-124.619 57.4335L-122.855 53.5708L-120.923 49.8107L-118.825 46.1602L-116.563 42.6262L-114.14 39.2153L-111.56 35.9334L-108.826 32.7866L-105.942 29.7801L-102.914 26.9188L-99.7458 24.2073L-96.4442 21.6497L-93.0149 19.2493L-89.4642 17.0092L-85.7988 14.9321L-82.0256 13.0198L-78.1517 11.2739L-74.1844 9.69554L-70.1311 8.28531L-65.9992 7.04339L-61.7962 5.96956L-57.5298 5.06322L-53.2072 4.32341L-48.836 3.74886L-44.4232 3.33803L-39.9762 3.08908L-35.5018 3L-31.0068 3.06853L-26.4979 3.29227L-21.9815 3.66862L-17.4637 4.19488L-12.9507 4.86816L-8.44816 5.68545L-3.96184 6.64355L0.502838 7.73907L4.94054 8.96838L9.3461 10.3276L13.7144 11.8124L18.0406 13.418L22.3197 15.1391L26.547 16.9698L30.7179 18.9032L34.8277 20.9323L38.8723 23.049L42.8475 25.2441L46.7491 27.5072L50.5735 29.8268L54.3171 32.19L57.9768 34.5829L61.5501 36.9903L65.0348 39.3958L68.4296 41.7822L71.7338 44.131L74.9476 46.4236L78.0722 48.6417L81.11 50.7682L84.0643 52.787L86.9393 54.6831L89.7403 56.4429L92.4729 58.0538L95.144 59.5046L97.7607 60.7854L100.331 61.8878L102.862 62.8046L105.364 63.5301L107.845 64.0604L110.314 64.3929L112.78 64.5268L115.253 64.4628L117.741 64.2035L120.253 63.7529L122.798 63.1168L125.383 62.3028L128.016 61.3198L130.704 60.1786L133.454 58.8912L136.269 57.4713L139.155 55.9337L142.116 54.2947L145.153 52.5715L148.268 50.7823L151.461 48.9462L154.73 47.0831L158.075 45.2131L161.491 43.3569L164.974 41.5353L168.518 39.7692L172.117 38.0793L175.761 36.4858L179.443 35.0084L183.153 33.6663L186.879 32.4775L190.61 31.4592L194.334 30.6272L198.038 29.9961L201.709 29.5789L205.334 29.387L208.899 29.4302L212.39 29.7162L215.795 30.2511L219.101 31.0389L222.295 32.0818L225.365 33.3798L228.301 34.931L231.092 36.7315L233.73 38.7757L236.206 41.0558L238.514 43.5625L240.65 46.285L242.609 49.2107L244.388 52.3259L245.989 55.6157L247.41 59.0641L248.655 62.6547L249.726 66.3704L250.629 70.1938L251.37 74.1077L251.955 78.0949L252.392 82.1385L252.692 86.2213L252.864 90.326L252.922 94.4353L252.88 98.5324L252.75 102.601L252.55 106.625L252.295 110.591L252.001 114.486L251.684 118.297L251.36 122.016L251.044 125.633L250.753 129.14L250.503 132.532L250.307 135.803L250.183 138.949L250.145 141.966L250.207 144.855L250.383 147.614L250.685 150.245L251.124 152.75L251.711 155.133L252.454 157.398L253.362 159.553L254.44 161.602L255.693 163.555L257.124 165.421L258.734 167.208L260.523 168.927L262.489 170.589L264.628 172.204L266.936 173.783L269.405 175.339L272.028 176.882L274.795 178.423L277.695 179.974L280.717 181.544L283.846 183.146L287.07 184.787L290.373 186.477L293.739 188.224L297.153 190.036L300.598 191.919L304.058 193.879L307.515 195.921L310.952 198.049L314.354 200.266L317.705 202.574L320.987 204.974L324.187 207.466L327.291 210.049L330.284 212.722L333.154 215.482L335.89 218.327L338.482 221.252L340.92 224.254L343.196 227.327L345.303 230.466L347.237 233.666L348.992 236.92L350.567 240.222L351.958 243.567" stroke="#F8ECDE" stroke-width="5"/>
</svg>
