<svg width="40" height="40" viewBox="0 0 40 40" fill="none" xmlns="http://www.w3.org/2000/svg">
<path d="M35 2H5C3.34315 2 2 3.34315 2 5V35C2 36.6569 3.34315 38 5 38H35C36.6569 38 38 36.6569 38 35V5C38 3.34315 36.6569 2 35 2Z" stroke="black" stroke-width="4" stroke-linejoin="round"/>
<path d="M14 14C14 13.2044 14.3161 12.4413 14.8787 11.8787C15.4413 11.3161 16.2044 11 17 11H20V17H17C16.2044 17 15.4413 16.6839 14.8787 16.1213C14.3161 15.5587 14 14.7956 14 14ZM14 20C14 19.2044 14.3161 18.4413 14.8787 17.8787C15.4413 17.3161 16.2044 17 17 17H20V23H17C16.2044 23 15.4413 22.6839 14.8787 22.1213C14.3161 21.5587 14 20.7956 14 20ZM14 26C14 25.2044 14.3161 24.4413 14.8787 23.8787C15.4413 23.3161 16.2044 23 17 23H20V26C20 26.7956 19.6839 27.5587 19.1213 28.1213C18.5587 28.6839 17.7956 29 17 29C16.2044 29 15.4413 28.6839 14.8787 28.1213C14.3161 27.5587 14 26.7956 14 26ZM20 11H23C23.7956 11 24.5587 11.3161 25.1213 11.8787C25.6839 12.4413 26 13.2044 26 14C26 14.7956 25.6839 15.5587 25.1213 16.1213C24.5587 16.6839 23.7956 17 23 17H20V11Z" stroke="black" stroke-width="3" stroke-linejoin="round"/>
<path d="M20 20C20 19.2044 20.3161 18.4413 20.8787 17.8787C21.4413 17.3161 22.2044 17 23 17C23.7956 17 24.5587 17.3161 25.1213 17.8787C25.6839 18.4413 26 19.2044 26 20C26 20.7956 25.6839 21.5587 25.1213 22.1213C24.5587 22.6839 23.7956 23 23 23C22.2044 23 21.4413 22.6839 20.8787 22.1213C20.3161 21.5587 20 20.7956 20 20Z" stroke="black" stroke-width="3" stroke-linejoin="round"/>
</svg>
