<svg width="350" height="150" viewBox="0 0 350 150" fill="none" xmlns="http://www.w3.org/2000/svg">
<path d="M336.878 -93.6592V-93.6592ZM336.878 -93.6592L335.843 -89.9225L334.791 -86.2125L333.727 -82.5284L332.653 -78.8693L331.573 -75.234L330.487 -71.6214L329.397 -68.0305L328.304 -64.4601L327.207 -60.909L326.105 -57.3765L324.998 -53.8616L323.882 -50.3636L322.757 -46.8822L321.618 -43.417L320.463 -39.968L319.288 -36.5358L318.086 -33.121L316.855 -29.7248L315.587 -26.3486L314.277 -22.9945L312.919 -19.6645L311.509 -16.3611L310.042 -13.0871L308.512 -9.845L306.917 -6.63782L305.254 -3.4682L303.521 -0.338745L301.718 2.74817L299.843 5.79013L297.896 8.78476L295.878 11.7296L293.787 14.6223L291.625 17.4604L289.391 20.2413L287.085 22.9627L284.709 25.6221L282.262 28.2172L279.746 30.7459L277.163 33.2061L274.515 35.596L271.802 37.9139L269.028 40.1584L266.196 42.3283L263.308 44.4228L260.367 46.4411L257.377 48.3829L254.342 50.2482L251.265 52.0372L248.15 53.7502L245.001 55.3882L241.823 56.9521L238.619 58.4431L235.393 59.8628L232.151 61.2129L228.894 62.4954L225.628 63.7123L222.356 64.8659L219.082 65.9587L215.809 66.9931L212.541 67.9717L209.28 68.8972L206.03 69.7725L202.793 70.6L199.571 71.3828L196.368 72.1234L193.183 72.8247L190.021 73.4892L186.881 74.1196L183.765 74.7185L180.675 75.2883L177.611 75.8313L174.574 76.3499L171.564 76.8464L168.582 77.3228L165.628 77.781L162.703 78.2232L159.805 78.6511L156.935 79.0664L154.092 79.4708L151.276 79.8658L148.487 80.253L145.724 80.6336L142.986 81.0088L140.273 81.3795L137.583 81.7468L134.915 82.1111L132.269 82.4728L129.642 82.8319L127.034 83.1879L124.444 83.5402L121.869 83.888L119.308 84.2304L116.761 84.5664L114.226 84.8957L111.703 85.2189L109.19 85.5372L106.689 85.8524L104.198 86.1674L101.717 86.4851L99.2467 86.8093L96.7862 87.1443L94.3351 87.4946L91.893 87.8655L89.4591 88.2624L87.0323 88.6913L84.6117 89.1585L82.1956 89.6706L79.7822 90.2336L77.3693 90.8534L74.9542 91.5352L72.5341 92.2839L70.1058 93.1036L67.6658 93.998L65.2106 94.9698L62.7361 96.0212L60.2384 97.1535L57.7134 98.3671L55.1571 99.6617L52.5652 101.036L49.9337 102.488L47.2587 104.014L44.5364 105.611L41.7633 107.275L38.9361 108.999L36.0518 110.777L33.1077 112.604L30.1017 114.471L27.0319 116.371L23.897 118.294L20.696 120.232L17.4286 122.176L14.0949 124.115L10.6956 126.04L7.23192 127.94L3.7056 129.805L0.118958 131.624L-3.52515 133.387L-7.22334 135.083L-10.9717 136.702L-14.7658 138.234L-18.6007 139.669L-22.4712 140.997L-26.3714 142.21L-30.2952 143.298L-34.236 144.253L-38.1872 145.068L-42.1415 145.735L-46.0918 146.248L-50.0306 146.602L-53.9504 146.791L-57.8438 146.812L-61.7031 146.661L-65.521 146.335L-69.2901 145.834L-73.0036 145.156L-76.6545 144.301L-80.2365 143.271L-83.7436 142.068L-87.1701 140.693L-90.5112 139.152L-93.7623 137.448L-96.9195 135.587L-99.9796 133.575L-102.94 131.418L-105.799 129.122L-108.555 126.697L-111.207 124.149L-113.756 121.488L-116.201 118.721L-118.546 115.857L-120.79 112.905L-122.937 109.873L-124.989 106.77L-126.947 103.603L-128.814 100.378L-130.591 97.1008L-132.278 93.7761L-133.878 90.4086L-135.39 87.0023L-136.814 83.5604L-138.151 80.086L-139.4 76.5812L-140.559 73.0482L-141.627 69.4884L-142.602 65.9029L-143.481 62.2927L-144.262 58.6591L-144.943 55.0035L-145.522 51.3278L-145.996 47.6337L-146.365 43.9236L-146.628 40.2001L-146.784 36.4658L-146.832 32.7239L-146.774 28.9776L-146.609 25.2304L-146.34 21.4859L-145.967 17.7479L-145.493 14.0204L-144.922 10.3072L-144.255 6.61237L-143.497 2.94006L-142.652 -0.705811L-141.725 -4.3212L-140.722 -7.90228L-139.647 -11.4453L-138.508 -14.9466L-137.31 -18.4028L-136.061 -21.8107L-134.769 -25.1674L-133.44 -28.4702L-132.084 -31.7168L-130.707 -34.9052L-129.32 -38.0337L-127.931 -41.101L-126.548 -44.1063L-125.181 -47.0491L-123.838 -49.9294L-122.529 -52.7477L-121.263 -55.5048L-120.049 -58.202L-118.894 -60.8412L-117.808 -63.4245L-116.799 -65.9546L-115.874 -68.4346L-115.04 -70.8681L-114.305 -73.2589L-113.674 -75.6113L-113.153 -77.93L-112.747 -80.2199L-112.46 -82.4862L-112.295 -84.7344L-112.255 -86.9699L-112.342 -89.1987L-112.556 -91.4265L-112.896 -93.6592L-113.362 -95.9026L-113.952 -98.1626L-114.662 -100.445L-115.488 -102.754L-116.426 -105.096L-117.469 -107.476L-118.611 -109.898L-119.844 -112.367L-121.161 -114.885L-122.553 -117.456L-124.012 -120.084L-125.526 -122.77L-127.088 -125.516L-128.685 -128.323L-130.307 -131.192L-131.94 -134.123L-133.572 -137.113L-135.188 -140.162L-136.772 -143.265L-138.31 -146.42L-139.785 -149.62L-141.183 -152.862L-142.487 -156.137L-143.684 -159.439L-144.759 -162.761L-145.7 -166.093L-146.493 -169.427L-147.13 -172.755L-147.598 -176.066L-147.891 -179.352L-148 -182.602L-147.919 -185.808L-147.644 -188.958L-147.169 -192.044L-146.493 -195.056L-145.613 -197.985L-144.531 -200.822L-143.248 -203.56L-141.766 -206.191L-140.089 -208.707L-138.224 -211.104L-136.177 -213.375L-133.955 -215.518L-131.568 -217.528L-129.026 -219.404L-126.339 -221.144L-123.519 -222.749L-120.577 -224.219L-117.527 -225.557L-114.382 -226.765L-111.154 -227.847L-107.857 -228.809L-104.504 -229.655L-101.108 -230.394L-97.6828 -231.031L-94.2403 -231.576L-90.7928 -232.037L-87.3521 -232.424L-83.9291 -232.745L-80.5344 -233.012L-77.1774 -233.235L-73.8672 -233.423L-70.6116 -233.589L-67.4179 -233.742L-64.2923 -233.894L-61.2401 -234.055L-58.2657 -234.234L-55.3726 -234.443L-52.5634 -234.69L-49.8395 -234.985L-47.2019 -235.336L-44.6504 -235.751L-42.184 -236.238L-39.8011 -236.803L-37.4993 -237.452L-35.2753 -238.191L-33.1256 -239.023L-31.0456 -239.953L-29.0306 -240.982L-27.0754 -242.114L-25.1741 -243.348L-23.3207 -244.686L-21.509 -246.126L-19.7323 -247.667L-17.984 -249.307L-16.2573 -251.042L-14.5453 -252.868L-12.8411 -254.78L-11.138 -256.772L-9.42914 -258.838L-7.70831 -260.97L-5.96933 -263.161L-4.20644 -265.403L-2.41411 -267.687L-0.587112 -270.002L1.27936 -272.34L3.18973 -274.689L5.14789 -277.037L7.15718 -279.374L9.2204 -281.688L11.3397 -283.967L13.5166 -286.199L15.7519 -288.373L18.046 -290.479L20.3984 -292.505L22.8081 -294.442L25.2735 -296.279L27.7925 -298.009L30.3626 -299.623L32.9806 -301.112L35.643 -302.47L38.3459 -303.69L41.0852 -304.767L43.8561 -305.694L46.6539 -306.47L49.4734 -307.089L52.3096 -307.551L55.1571 -307.855L58.0105 -308L60.8646 -307.988L63.7143 -307.822L66.5545 -307.504L69.3805 -307.04L72.1879 -306.435L74.9725 -305.694L77.7307 -304.826L80.4592 -303.839L83.1552 -302.741L85.8166 -301.541L88.4417 -300.249L91.0294 -298.876L93.579 -297.431L96.0909 -295.927L98.5654 -294.373L101.004 -292.782L103.409 -291.163L105.781 -289.528L108.125 -287.888L110.444 -286.253L112.742 -284.633L115.022 -283.038L117.29 -281.477L119.552 -279.958L121.811 -278.489L124.075 -277.079L126.349 -275.732L128.64 -274.456L130.952 -273.255L133.294 -272.133L135.67 -271.093L138.087 -270.138L140.551 -269.27L143.068 -268.49L145.643 -267.796L148.282 -267.189L150.989 -266.666L153.769 -266.224L156.626 -265.861L159.563 -265.571L162.583 -265.35L165.688 -265.192L168.881 -265.091L172.161 -265.039L175.53 -265.029L178.986 -265.053L182.53 -265.103L186.157 -265.169L189.867 -265.241L193.655 -265.312L197.517 -265.37L201.449 -265.407L205.444 -265.413L209.498 -265.378L213.604 -265.295L217.757 -265.157L221.952 -264.955L226.181 -264.683L230.439 -264.335L234.719 -263.906L239.016 -263.39L243.322 -262.781L247.63 -262.076L251.934 -261.27L256.227 -260.36L260.501 -259.341L264.748 -258.21L268.961 -256.965L273.133 -255.603L277.255 -254.121L281.32 -252.519L285.319 -250.795L289.245 -248.947L293.088 -246.975L296.841 -244.879L300.497 -242.659L304.048 -240.317L307.486 -237.852L310.805 -235.268L313.998 -232.567L317.06 -229.751L319.984 -226.824L322.767 -223.79L325.405 -220.652L327.892 -217.416L330.228 -214.087L332.408 -210.668L334.432 -207.167L336.298 -203.588L338.007 -199.937L339.557 -196.221L340.951 -192.444L342.189 -188.614L343.273 -184.736L344.207 -180.817L344.993 -176.861L345.636 -172.876L346.138 -168.866L346.505 -164.837L346.742 -160.795L346.854 -156.744L346.848 -152.69L346.728 -148.636L346.502 -144.587L346.176 -140.547L345.757 -136.519L345.251 -132.506L344.665 -128.511L344.005 -124.537L343.28 -120.585L342.495 -116.658L341.657 -112.757L340.772 -108.882L339.846 -105.034L338.885 -101.215L337.894 -97.4232L336.878 -93.6592" stroke="#D75929" stroke-width="5"/>
</svg>
