<svg width="549" height="367" viewBox="0 0 549 367" fill="none" xmlns="http://www.w3.org/2000/svg">
<path fill-rule="evenodd" clip-rule="evenodd" d="M223.793 -81.1891L224.594 -80.0611L226.955 -78.8856L230.854 -77.6162L236.318 -76.2055L243.41 -74.6028L252.224 -72.7531L262.875 -70.5961L275.483 -68.0659L290.162 -65.0924L306.995 -61.6036L326.01 -57.5298L347.147 -52.8103L370.22 -47.403L394.883 -41.2955L420.593 -34.5186L446.596 -27.1588L471.932 -19.3688L495.473 -11.3711L515.998 -3.45251L532.308 4.05347L543.354 10.7949L548.374 16.4388L546.992 20.7098L539.279 23.4238L525.742 24.5093L507.251 24.0111L484.926 22.0785L460 18.9393L433.688 14.8683L407.083 10.1548L381.093 5.07526L356.409 -0.125854L333.507 -5.24646L312.674 -10.1301L294.042 -14.6631L277.626 -18.769L263.365 -22.4001L251.146 -25.5299L240.836 -28.1455L232.297 -30.2408L225.404 -31.8104L220.049 -32.8448L216.159 -33.3249L213.691 -33.2173L212.654 -32.4679L213.056 -31.0183L214.836 -28.8466L217.959 -25.9176L222.433 -22.1748L228.298 -17.5423L235.615 -11.928L244.464 -5.22699L254.923 2.67316L267.062 11.884L280.922 22.5046L296.488 34.6054L313.67 48.2077L332.268 63.2589L351.945 79.6059L372.207 96.9696L392.392 114.927L411.684 132.906L429.153 150.203L443.823 166.022L454.769 179.543L461.224 190.006L462.681 196.804L458.964 199.555L450.26 198.16L437.094 192.808L420.258 183.946L400.711 172.211L379.464 158.354L357.483 143.148L335.61 127.318L314.522 111.495L294.713 96.1828L276.505 81.7542L260.072 68.4611L245.472 56.4517L232.677 45.7939L221.604 36.4971L212.14 28.5334L204.157 21.855L197.529 16.4077L192.143 12.1422L187.901 9.0238L184.729 7.03949L182.581 6.20642L181.443 6.58051L181.291 8.21161L182.06 11.0908L183.708 15.2397L186.218 20.7168L189.597 27.6106L193.861 36.0342L199.037 46.1172L205.146 57.996L212.2 71.7991L220.189 87.6285L229.066 105.535L238.732 125.485L249.021 147.33L259.686 170.764L270.392 195.3L280.716 220.242L290.164 244.7L298.2 267.619L304.294 287.852L307.979 304.269L308.912 315.875L306.921 321.938L302.04 322.088L294.503 316.365L284.719 305.214L273.22 289.416L260.596 269.984L247.43 248.039L234.247 224.688L221.477 200.936L209.445 177.621L198.363 155.387L188.351 134.69L179.446 115.812L171.63 98.8962L164.847 83.982L159.014 71.0343L154.04 59.9746L149.833 50.7031L146.302 43.1169L143.368 37.124L140.958 32.654L139.015 29.6673L137.489 28.1647L136.345 28.1953L135.538 29.784L135.013 32.8939L134.723 37.5322L134.631 43.7497L134.701 51.6321L134.903 61.292L135.2 72.858L135.555 86.4624L135.92 102.224L136.242 120.223L136.454 140.476L136.479 162.896L136.234 187.257L135.627 213.155L134.568 239.977L132.981 266.888L130.809 292.848L128.033 316.659L124.677 337.057L120.82 352.833L116.588 362.973L112.15 366.79L107.695 364.017L103.418 354.848L99.4918 339.908L96.05 320.169L93.1785 296.817L90.9107 271.116L89.233 244.282L88.0952 217.384L87.4218 191.292L87.1249 166.654L87.1135 143.906L87.301 123.299L87.6096 104.939L87.9721 88.8256L88.3317 74.8849L88.641 63.0029L88.8601 53.0485L88.9538 44.891L88.8894 38.4149L88.6333 33.5294L88.1485 30.1779L87.3904 28.3453L86.3035 28.0649L84.8407 29.328L82.9667 32.0795L80.6353 36.3116L77.7888 42.0579L74.3583 49.3846L70.2643 58.381L65.419 69.1489L59.7292 81.7899L53.1028 96.3871L45.4564 112.984L36.7276 131.556L26.8903 151.979L15.9734 173.993L4.08081 197.174L-8.58978 220.908L-21.7335 244.386L-34.9355 266.628L-47.6841 286.536L-59.402 302.985L-69.4967 314.936L-77.4231 321.562L-82.7481 322.361L-85.2062 317.226L-84.7326 306.462L-81.4668 290.751L-75.7278 271.051L-67.9668 248.482L-58.7076 224.195L-48.4884 199.266L-37.813 174.614L-27.1166 150.966L-16.7491 128.843L-6.97079 108.577L2.04007 90.3409L10.175 74.1824L17.3799 60.0624L23.639 47.8854L28.9616 37.5255L33.3696 28.8466L36.8878 21.7172L39.5357 16.0212L41.321 11.6655L42.232 8.58655L42.2316 6.75635L41.2533 6.18311L39.2662 6.8288L36.2599 8.63177L32.1926 11.5694L26.9944 15.6503L20.5721 20.9064L12.8132 27.3852L3.59338 35.1406L-7.21487 44.2225L-19.7289 54.663L-34.0381 66.4598L-50.1805 79.5561L-68.1142 93.8178L-87.6858 109.011L-108.599 124.783L-130.387 140.651L-152.403 156.003L-173.829 170.126L-193.715 182.25L-211.049 191.617L-224.859 197.564L-234.316 199.609L-238.849 197.519L-238.214 191.347L-232.529 181.432L-222.252 168.35L-208.116 152.842L-191.028 135.726L-171.962 117.806L-151.86 99.8029L-131.562 82.3124L-111.754 65.7812L-92.9583 50.5104L-75.5343 36.6716L-59.7021 24.3315L-45.5684 13.4789L-33.1566 4.04962L-22.4337 -4.052L-13.3341 -10.9364L-5.77817 -16.7164L0.312805 -21.4987L5.00479 -25.3778L8.34171 -28.4321L10.3367 -30.7214L10.963 -32.2846L10.156 -33.1426L7.91498 -33.3482L4.25247 -32.959L-0.86441 -32.0113L-7.50638 -30.5261L-15.7748 -28.5142L-25.7936 -25.9811L-37.6993 -22.9326L-51.6273 -19.38L-67.6939 -15.3472L-85.9718 -10.8779L-106.46 -6.04358L-129.047 -0.951355L-153.474 4.24927L-179.297 9.36359L-205.858 14.1533L-232.286 18.3458L-257.512 21.6526L-280.335 23.7943L-299.516 24.5333L-313.908 23.7059L-322.593 21.2495L-325 17.2169L-320.986 11.7753L-310.858 5.18738L-295.322 -2.22034L-275.39 -10.0964L-252.247 -18.1022L-227.118 -25.9419L-201.152 -33.3823L-175.339 -40.2595L-150.468 -46.477L-127.113 -51.9959L-105.652 -56.8227L-86.2919 -60.9957L-69.1115 -64.5732L-54.0943 -67.6238L-41.1634 -70.2198L-30.209 -72.4318L-21.1099 -74.3262L-13.7505 -75.9644L-8.03296 -77.4023L-3.88754 -78.6909L-1.28137 -79.8783L-0.227814 -81.0107L-0.775177 -82.1356L-2.89072 -83.3004L-6.54428 -84.5517L-11.755 -85.9366L-18.582 -87.5052L-27.115 -89.3116L-37.4653 -91.4155L-49.7538 -93.8816L-64.096 -96.7797L-80.5821 -100.182L-99.2509 -104.158L-120.059 -108.771L-142.842 -114.067L-167.283 -120.064L-192.871 -126.738L-218.887 -134.014L-244.401 -141.748L-268.308 -149.731L-289.396 -157.683L-306.453 -165.278L-318.397 -172.165L-324.413 -178.004L-324.057 -182.509L-317.329 -185.478L-304.67 -186.823L-286.898 -186.57L-265.102 -184.852L-240.507 -181.887L-214.338 -177.945L-187.714 -173.315L-161.575 -168.277L-136.645 -163.08L-113.436 -157.935L-92.2607 -153.005L-73.2742 -148.41L-56.5083 -144.232L-41.9102 -140.523L-29.3745 -137.313L-18.7698 -134.615L-9.95807 -132.436L-2.81024 -130.782L2.78311 -129.662L6.90338 -129.092L9.59625 -129.103L10.8642 -129.745L10.6873 -131.081L9.1232 -133.136L6.21344 -135.941L1.95654 -139.55L-3.68253 -144.035L-10.7637 -149.486L-19.3628 -156.007L-29.5604 -163.708L-41.4287 -172.703L-55.0132 -183.094L-70.3114 -194.956L-87.2463 -208.32L-105.637 -223.148L-125.171 -239.304L-145.38 -256.53L-165.628 -274.427L-185.123 -292.447L-202.947 -309.904L-218.127 -326.013L-229.723 -339.954L-236.936 -350.95L-239.21 -358.363L-236.313 -361.773L-228.377 -361.034L-215.874 -356.288L-199.561 -347.946L-180.378 -336.621L-159.335 -323.05L-137.41 -308.007L-115.471 -292.232L-94.2202 -276.371L-74.1816 -260.949L-55.7033 -246.36L-38.9811 -232.873L-24.089 -220.653L-11.0108 -209.778L0.328949 -200.266L10.0411 -192.093L18.2514 -185.213L25.0866 -179.573L30.6635 -175.122L35.0823 -171.823L38.4206 -169.658L40.7297 -168.639L42.0295 -168.815L42.3334 -170.247L41.7072 -172.927L40.1982 -176.87L37.825 -182.131L34.5857 -188.792L30.4637 -196.963L25.4352 -206.773L19.4762 -218.357L12.5724 -231.845L4.72989 -247.347L-4.01083 -264.922L-13.5604 -284.554L-23.7643 -306.113L-34.3896 -329.322L-45.1151 -353.723L-55.5316 -378.655L-65.1541 -403.257L-73.451 -426.497L-79.8877 -447.235L-83.9834 -464.332L-85.3709 -476.761L-83.8495 -483.741L-79.418 -484.841L-72.2804 -480.034L-62.8212 -469.703L-51.5569 -454.582L-39.0722 -435.655L-25.9551 -414.034L-12.7428 -390.836L0.116974 -367.087L12.2838 -343.654L23.5268 -321.213L33.7143 -300.248L42.7956 -281.067L50.7814 -263.835L57.7245 -248.602L63.7027 -235.346L68.8069 -223.992L73.1303 -214.443L76.7631 -206.595L79.7876 -200.353L82.2762 -195.644L84.2904 -192.422L85.8799 -190.681L87.0828 -190.463L87.9391 -191.807L88.5057 -194.675L88.8303 -199.068L88.952 -205.029L88.9051 -212.639L88.7223 -222.008L88.4377 -233.261L88.0894 -246.532L87.7222 -261.943L87.3896 -279.583L87.1555 -299.48L87.0945 -321.566L87.2907 -345.64L87.8343 -371.329L88.8152 -398.053L90.314 -425.015L92.3904 -451.204L95.0709 -475.441L98.3377 -496.466L102.122 -513.053L106.305 -524.147L110.723 -529L115.188 -527.275L119.506 -519.093L123.498 -505.016L127.024 -485.965L129.99 -463.104L132.354 -437.694L134.123 -410.963L135.343 -384.012L136.084 -357.743L136.435 -332.839L136.486 -309.768L136.325 -288.81L136.03 -270.09L135.672 -253.622L135.309 -239.342L134.989 -227.141L134.753 -216.889L134.637 -208.453L134.674 -201.716L134.897 -196.582L135.343 -192.988L136.054 -190.913L137.085 -190.383L138.486 -191.405L140.291 -193.921L142.546 -197.916L145.306 -203.417L148.639 -210.487L152.621 -219.211L157.341 -229.689L162.89 -242.026L169.361 -256.307L176.84 -272.585L185.394 -290.848L195.055 -310.989L205.805 -332.774L217.552 -355.805L230.117 -379.5L243.21 -403.081L256.435 -425.591L269.293 -445.947L281.215 -463.02L291.607 -475.749L299.911 -483.267L305.673 -485.012L308.598 -480.811L308.587 -470.907L305.748 -455.926L300.376 -436.789L292.903 -414.599L283.846 -390.511L273.745 -365.617L263.111 -340.867L252.392 -317.02L241.952 -294.627L232.066 -274.05L222.924 -255.485L214.645 -238.996L207.29 -224.556L200.88 -212.078L195.41 -201.438L190.858 -192.5L187.2 -185.132L184.414 -179.215L182.491 -174.651L181.439 -171.371L181.291 -169.342L182.109 -168.569L183.935 -169.026L186.777 -170.647L190.672 -173.404L195.684 -177.301L201.904 -182.367L209.442 -188.648L218.421 -196.196L228.968 -205.064L241.203 -215.287L255.222 -226.87L271.073 -239.766L288.728 -253.855L308.055 -268.92L328.781 -284.629L350.468 -300.519L372.498 -315.999L394.079 -330.369L414.278 -342.863L432.086 -352.717L446.517 -359.247L456.714 -361.936L462.057 -360.508L462.246 -354.971L457.343 -345.619L447.754 -332.995L434.176 -317.82L417.493 -300.904L398.677 -283.061L378.681 -265.028L358.364 -247.422L338.438 -230.714L319.453 -215.228L301.793 -201.154L285.697 -188.574L271.29 -177.488L258.605 -167.838L247.617 -159.532L238.264 -152.462L230.467 -146.513L224.148 -141.578L219.237 -137.561L215.686 -134.38L213.476 -131.972L212.628 -130.295L213.204 -129.327L215.219 -129.022L218.654 -129.319L223.535 -130.18L229.928 -131.58L237.93 -133.509L247.661 -135.959L259.257 -138.926L272.854 -142.4L288.574 -146.358L306.497 -150.762L326.638 -155.544L348.904 -160.604L373.062 -165.799L398.701 -170.942L425.197 -175.801L451.714 -180.108L477.209 -183.575L500.498 -185.92L520.34 -186.896L535.564 -186.325L545.206 -184.127L548.634 -180.337L545.634 -175.105L536.441 -168.679L521.705 -161.378L502.397 -153.553L479.683 -145.547L454.79 -137.663L428.886 -130.147L402.99 -123.172L377.925 -116.845L354.299 -111.214L332.518 -106.279L312.816 -102.006L295.287 -98.3378L279.93 -95.208L266.673 -92.5444L255.412 -90.2758L246.025 -88.3351L238.396 -86.6599L232.423 -85.1938L228.03 -83.8846L225.179 -82.6843L223.875 -81.5462L223.793 -81.1891Z" fill="#D75929"/>
</svg>
