<svg width="328" height="461" viewBox="0 0 328 461" fill="none" xmlns="http://www.w3.org/2000/svg">
<path d="M314.878 217.341V217.341ZM314.878 217.341L313.843 221.077L312.791 224.787L311.727 228.472L310.653 232.131L309.573 235.766L308.487 239.379L307.397 242.969L306.304 246.54L305.207 250.091L304.105 253.624L302.998 257.138L301.882 260.636L300.757 264.118L299.618 267.583L298.463 271.032L297.288 274.464L296.086 277.879L294.855 281.275L293.587 284.651L292.277 288.006L290.919 291.336L289.509 294.639L288.042 297.913L286.512 301.155L284.917 304.362L283.254 307.532L281.521 310.661L279.718 313.748L277.843 316.79L275.896 319.785L273.878 322.73L271.787 325.622L269.625 328.46L267.391 331.241L265.085 333.963L262.709 336.622L260.262 339.217L257.746 341.746L255.163 344.206L252.515 346.596L249.802 348.914L247.028 351.158L244.196 353.328L241.308 355.423L238.367 357.441L235.377 359.383L232.342 361.248L229.265 363.037L226.15 364.75L223.001 366.388L219.823 367.952L216.619 369.443L213.393 370.863L210.151 372.213L206.894 373.495L203.628 374.712L200.356 375.866L197.082 376.959L193.809 377.993L190.541 378.972L187.28 379.897L184.03 380.772L180.793 381.6L177.571 382.383L174.368 383.123L171.183 383.825L168.021 384.489L164.881 385.12L161.765 385.719L158.675 386.288L155.611 386.831L152.574 387.35L149.564 387.846L146.582 388.323L143.628 388.781L140.703 389.223L137.805 389.651L134.935 390.066L132.092 390.471L129.276 390.866L126.487 391.253L123.724 391.634L120.986 392.009L118.273 392.38L115.583 392.747L112.915 393.111L110.269 393.473L107.642 393.832L105.034 394.188L102.444 394.54L99.8687 394.888L97.3083 395.23L94.761 395.566L92.226 395.896L89.7026 396.219L87.1902 396.537L84.6887 396.852L82.1977 397.167L79.7171 397.485L77.2467 397.809L74.7862 398.144L72.3351 398.495L69.893 398.865L67.4591 399.262L65.0323 399.691L62.6117 400.159L60.1956 400.671L57.7822 401.234L55.3693 401.853L52.9542 402.535L50.5341 403.284L48.1058 404.104L45.6658 404.998L43.2106 405.97L40.7361 407.021L38.2384 408.154L35.7134 409.367L33.1571 410.662L30.5652 412.036L27.9337 413.488L25.2587 415.014L22.5364 416.611L19.7633 418.275L16.9361 419.999L14.0518 421.777L11.1077 423.604L8.1017 425.471L5.03191 427.371L1.89696 429.294L-1.30403 431.232L-4.57143 433.176L-7.90511 435.115L-11.3044 437.04L-14.7681 438.94L-18.2944 440.805L-21.881 442.624L-25.5251 444.387L-29.2233 446.083L-32.9717 447.702L-36.7658 449.234L-40.6007 450.669L-44.4712 451.997L-48.3714 453.21L-52.2952 454.298L-56.236 455.253L-60.1872 456.068L-64.1415 456.735L-68.0918 457.248L-72.0306 457.602L-75.9504 457.791L-79.8438 457.812L-83.7031 457.661L-87.521 457.335L-91.2901 456.834L-95.0036 456.156L-98.6545 455.301L-102.236 454.271L-105.744 453.068L-109.17 451.693L-112.511 450.152L-115.762 448.448L-118.92 446.587L-121.98 444.575L-124.94 442.418L-127.799 440.122L-130.555 437.697L-133.207 435.149L-135.756 432.488L-138.201 429.721L-140.546 426.857L-142.79 423.905L-144.937 420.873L-146.989 417.77L-148.947 414.603L-150.814 411.378L-152.591 408.101L-154.278 404.776L-155.878 401.409L-157.39 398.002L-158.814 394.56L-160.151 391.086L-161.4 387.581L-162.559 384.048L-163.627 380.488L-164.602 376.903L-165.481 373.293L-166.262 369.659L-166.943 366.004L-167.522 362.328L-167.996 358.634L-168.365 354.924L-168.628 351.2L-168.784 347.466L-168.832 343.724L-168.774 339.978L-168.609 336.23L-168.34 332.486L-167.967 328.748L-167.493 325.02L-166.922 321.307L-166.255 317.612L-165.497 313.94L-164.652 310.294L-163.725 306.679L-162.722 303.098L-161.647 299.555L-160.508 296.053L-159.31 292.597L-158.061 289.189L-156.769 285.833L-155.44 282.53L-154.084 279.283L-152.707 276.095L-151.32 272.966L-149.931 269.899L-148.548 266.894L-147.181 263.951L-145.838 261.071L-144.529 258.252L-143.263 255.495L-142.049 252.798L-140.894 250.159L-139.808 247.576L-138.799 245.045L-137.874 242.565L-137.04 240.132L-136.305 237.741L-135.674 235.389L-135.153 233.07L-134.747 230.78L-134.46 228.514L-134.295 226.266L-134.255 224.03L-134.342 221.801L-134.556 219.574L-134.896 217.341L-135.362 215.097L-135.952 212.837L-136.662 210.555L-137.488 208.246L-138.426 205.904L-139.469 203.524L-140.611 201.102L-141.844 198.633L-143.161 196.115L-144.553 193.544L-146.012 190.916L-147.526 188.23L-149.088 185.484L-150.685 182.677L-152.307 179.808L-153.94 176.877L-155.572 173.887L-157.188 170.838L-158.772 167.735L-160.31 164.58L-161.785 161.38L-163.183 158.138L-164.487 154.863L-165.684 151.561L-166.759 148.239L-167.7 144.907L-168.493 141.573L-169.13 138.245L-169.598 134.934L-169.891 131.648L-170 128.398L-169.919 125.192L-169.644 122.042L-169.169 118.956L-168.493 115.944L-167.613 113.015L-166.531 110.178L-165.248 107.44L-163.766 104.809L-162.089 102.293L-160.224 99.8963L-158.177 97.6247L-155.955 95.4821L-153.568 93.4718L-151.026 91.5959L-148.339 89.8555L-145.519 88.2508L-142.577 86.7806L-139.527 85.4431L-136.382 84.2352L-133.154 83.153L-129.857 82.1914L-126.504 81.3447L-123.108 80.6063L-119.683 79.9686L-116.24 79.4236L-112.793 78.9626L-109.352 78.5761L-105.929 78.2546L-102.534 77.9878L-99.1774 77.7654L-95.8672 77.5767L-92.6116 77.411L-89.4179 77.2577L-86.2923 77.106L-83.2401 76.9455L-80.2657 76.7659L-77.3726 76.5573L-74.5634 76.3101L-71.8395 76.0152L-69.2019 75.6641L-66.6504 75.2488L-64.184 74.7619L-61.8011 74.1968L-59.4993 73.5476L-57.2753 72.809L-55.1256 71.9768L-53.0456 71.0472L-51.0306 70.0176L-49.0754 68.886L-47.1741 67.6515L-45.3207 66.3138L-43.509 64.8737L-41.7323 63.3326L-39.984 61.693L-38.2573 59.9582L-36.5453 58.1323L-34.8411 56.2203L-33.138 54.2282L-31.4291 52.1624L-29.7083 50.0301L-27.9693 47.8389L-26.2064 45.5971L-24.4141 43.3135L-22.5871 40.9977L-20.7206 38.66L-18.8103 36.3113L-16.8521 33.9627L-14.8428 31.6257L-12.7796 29.312L-10.6603 27.0332L-8.48343 24.801L-6.24808 22.6266L-3.95401 20.5211L-1.60164 18.495L0.80806 16.5584L3.27348 14.7206L5.79253 12.9909L8.36258 11.3774L10.9806 9.88812L13.643 8.53012L16.3459 7.30996L19.0852 6.23344L21.8561 5.30552L24.6539 4.53024L27.4734 3.91062L30.3096 3.44863L33.1571 3.14516L36.0105 3L38.8646 3.01184L41.7143 3.17827L44.5545 3.49584L47.3805 3.96005L50.1879 4.56546L52.9725 5.30569L55.7307 6.17352L58.4592 7.16096L61.1552 8.25933L63.8166 9.45932L66.4417 10.7511L69.0294 12.1245L71.579 13.5688L74.0909 15.0732L76.5654 16.6267L79.0041 18.2183L81.4086 19.8369L83.7814 21.4717L86.1254 23.1118L88.4442 24.7469L90.7415 26.3668L93.022 27.962L95.2903 29.5233L97.5515 31.0421L99.8112 32.5105L102.075 33.9212L104.349 35.2677L106.64 36.544L108.952 37.7454L111.294 38.8675L113.67 39.9071L116.087 40.8616L118.551 41.7296L121.068 42.5102L123.643 43.2037L126.282 43.8111L128.989 44.3342L131.769 44.7757L134.626 45.1392L137.563 45.4289L140.583 45.6499L143.688 45.8078L146.881 45.9092L150.161 45.961L153.53 45.9708L156.986 45.9467L160.53 45.8973L164.157 45.8315L167.867 45.7586L171.655 45.6881L175.517 45.6297L179.449 45.5929L183.444 45.5874L187.498 45.6219L191.604 45.7047L195.757 45.8434L199.952 46.0453L204.181 46.317L208.439 46.6646L212.719 47.094L217.016 47.6104L221.322 48.2188L225.63 48.9238L229.934 49.7297L234.227 50.6404L238.501 51.6595L242.748 52.7901L246.961 54.0353L251.133 55.3974L255.255 56.8786L259.32 58.4807L263.319 60.2051L267.245 62.0529L271.088 64.0248L274.841 66.1208L278.497 68.3406L282.048 70.6834L285.486 73.1478L288.805 75.7319L291.998 78.4333L295.06 81.2491L297.984 84.176L300.767 87.2103L303.405 90.3477L305.892 93.5837L308.228 96.9134L310.408 100.332L312.432 103.833L314.298 107.412L316.007 111.063L317.557 114.779L318.951 118.556L320.189 122.386L321.273 126.264L322.207 130.183L322.993 134.139L323.636 138.124L324.138 142.134L324.505 146.163L324.742 150.205L324.854 154.256L324.848 158.31L324.728 162.364L324.502 166.413L324.176 170.453L323.757 174.481L323.251 178.494L322.665 182.489L322.005 186.463L321.28 190.415L320.495 194.342L319.657 198.243L318.772 202.118L317.846 205.966L316.885 209.785L315.894 213.577L314.878 217.341" stroke="#D75929" stroke-width="5"/>
</svg>
