<svg width="549" height="368" viewBox="0 0 549 368" fill="none" xmlns="http://www.w3.org/2000/svg">
<path fill-rule="evenodd" clip-rule="evenodd" d="M223.793 -80.1891L224.594 -79.0611L226.955 -77.8856L230.854 -76.6162L236.318 -75.2055L243.41 -73.6028L252.224 -71.7531L262.875 -69.5961L275.483 -67.0659L290.162 -64.0924L306.995 -60.6036L326.01 -56.5298L347.147 -51.8103L370.22 -46.403L394.883 -40.2955L420.593 -33.5186L446.596 -26.1588L471.932 -18.3688L495.473 -10.3711L515.998 -2.45251L532.308 5.05347L543.354 11.7949L548.374 17.4388L546.992 21.7098L539.279 24.4238L525.742 25.5093L507.251 25.0111L484.926 23.0785L460 19.9393L433.688 15.8683L407.083 11.1548L381.093 6.07526L356.409 0.874146L333.507 -4.24646L312.674 -9.13013L294.042 -13.6631L277.626 -17.769L263.365 -21.4001L251.146 -24.5299L240.836 -27.1455L232.297 -29.2408L225.404 -30.8104L220.049 -31.8448L216.159 -32.3249L213.691 -32.2173L212.654 -31.4679L213.056 -30.0183L214.836 -27.8466L217.959 -24.9176L222.433 -21.1748L228.298 -16.5423L235.615 -10.928L244.464 -4.22699L254.923 3.67316L267.062 12.884L280.922 23.5046L296.488 35.6054L313.67 49.2077L332.268 64.2589L351.945 80.6059L372.207 97.9696L392.392 115.927L411.684 133.906L429.153 151.203L443.823 167.022L454.769 180.543L461.224 191.006L462.681 197.804L458.964 200.555L450.26 199.16L437.094 193.808L420.258 184.946L400.711 173.211L379.464 159.354L357.483 144.148L335.61 128.318L314.522 112.495L294.713 97.1828L276.505 82.7542L260.072 69.4611L245.472 57.4517L232.677 46.7939L221.604 37.4971L212.14 29.5334L204.157 22.855L197.529 17.4077L192.143 13.1422L187.901 10.0238L184.729 8.03949L182.581 7.20642L181.443 7.58051L181.291 9.21161L182.06 12.0908L183.708 16.2397L186.218 21.7168L189.597 28.6106L193.861 37.0342L199.037 47.1172L205.146 58.996L212.2 72.7991L220.189 88.6285L229.066 106.535L238.732 126.485L249.021 148.33L259.686 171.764L270.392 196.3L280.716 221.242L290.164 245.7L298.2 268.619L304.294 288.852L307.979 305.269L308.912 316.875L306.921 322.938L302.04 323.088L294.503 317.365L284.719 306.214L273.22 290.416L260.596 270.984L247.43 249.039L234.247 225.688L221.477 201.936L209.445 178.621L198.363 156.387L188.351 135.69L179.446 116.812L171.63 99.8962L164.847 84.982L159.014 72.0343L154.04 60.9746L149.833 51.7031L146.302 44.1169L143.368 38.124L140.958 33.654L139.015 30.6673L137.489 29.1647L136.345 29.1953L135.538 30.784L135.013 33.8939L134.723 38.5322L134.631 44.7497L134.701 52.6321L134.903 62.292L135.2 73.858L135.555 87.4624L135.92 103.224L136.242 121.223L136.454 141.476L136.479 163.896L136.234 188.257L135.627 214.155L134.568 240.977L132.981 267.888L130.809 293.848L128.033 317.659L124.677 338.057L120.82 353.833L116.588 363.973L112.15 367.79L107.695 365.017L103.418 355.848L99.4918 340.908L96.05 321.169L93.1785 297.817L90.9107 272.116L89.233 245.282L88.0952 218.384L87.4218 192.292L87.1249 167.654L87.1135 144.906L87.301 124.299L87.6096 105.939L87.9721 89.8256L88.3317 75.8849L88.641 64.0029L88.8601 54.0485L88.9538 45.891L88.8894 39.4149L88.6333 34.5294L88.1485 31.1779L87.3904 29.3453L86.3035 29.0649L84.8407 30.328L82.9667 33.0795L80.6353 37.3116L77.7888 43.0579L74.3583 50.3846L70.2643 59.381L65.419 70.1489L59.7292 82.7899L53.1028 97.3871L45.4564 113.984L36.7276 132.556L26.8903 152.979L15.9734 174.993L4.08081 198.174L-8.58978 221.908L-21.7335 245.386L-34.9355 267.628L-47.6841 287.536L-59.402 303.985L-69.4967 315.936L-77.4231 322.562L-82.7481 323.361L-85.2062 318.226L-84.7326 307.462L-81.4668 291.751L-75.7278 272.051L-67.9668 249.482L-58.7076 225.195L-48.4884 200.266L-37.813 175.614L-27.1166 151.966L-16.7491 129.843L-6.97079 109.577L2.04007 91.3409L10.175 75.1824L17.3799 61.0624L23.639 48.8854L28.9616 38.5255L33.3696 29.8466L36.8878 22.7172L39.5357 17.0212L41.321 12.6655L42.232 9.58655L42.2316 7.75635L41.2533 7.18311L39.2662 7.8288L36.2599 9.63177L32.1926 12.5694L26.9944 16.6503L20.5721 21.9064L12.8132 28.3852L3.59338 36.1406L-7.21487 45.2225L-19.7289 55.663L-34.0381 67.4598L-50.1805 80.5561L-68.1142 94.8178L-87.6858 110.011L-108.599 125.783L-130.387 141.651L-152.403 157.003L-173.829 171.126L-193.715 183.25L-211.049 192.617L-224.859 198.564L-234.316 200.609L-238.849 198.519L-238.214 192.347L-232.529 182.432L-222.252 169.35L-208.116 153.842L-191.028 136.726L-171.962 118.806L-151.86 100.803L-131.562 83.3124L-111.754 66.7812L-92.9583 51.5104L-75.5343 37.6716L-59.7021 25.3315L-45.5684 14.4789L-33.1566 5.04962L-22.4337 -3.052L-13.3341 -9.9364L-5.77817 -15.7164L0.312805 -20.4987L5.00479 -24.3778L8.34171 -27.4321L10.3367 -29.7214L10.963 -31.2846L10.156 -32.1426L7.91498 -32.3482L4.25247 -31.959L-0.86441 -31.0113L-7.50638 -29.5261L-15.7748 -27.5142L-25.7936 -24.9811L-37.6993 -21.9326L-51.6273 -18.38L-67.6939 -14.3472L-85.9718 -9.87793L-106.46 -5.04358L-129.047 0.048645L-153.474 5.24927L-179.297 10.3636L-205.858 15.1533L-232.286 19.3458L-257.512 22.6526L-280.335 24.7943L-299.516 25.5333L-313.908 24.7059L-322.593 22.2495L-325 18.2169L-320.986 12.7753L-310.858 6.18738L-295.322 -1.22034L-275.39 -9.09644L-252.247 -17.1022L-227.118 -24.9419L-201.152 -32.3823L-175.339 -39.2595L-150.468 -45.477L-127.113 -50.9959L-105.652 -55.8227L-86.2919 -59.9957L-69.1115 -63.5732L-54.0943 -66.6238L-41.1634 -69.2198L-30.209 -71.4318L-21.1099 -73.3262L-13.7505 -74.9644L-8.03296 -76.4023L-3.88754 -77.6909L-1.28137 -78.8783L-0.227814 -80.0107L-0.775177 -81.1356L-2.89072 -82.3004L-6.54428 -83.5517L-11.755 -84.9366L-18.582 -86.5052L-27.115 -88.3116L-37.4653 -90.4155L-49.7538 -92.8816L-64.096 -95.7797L-80.5821 -99.1816L-99.2509 -103.158L-120.059 -107.771L-142.842 -113.067L-167.283 -119.064L-192.871 -125.738L-218.887 -133.014L-244.401 -140.748L-268.308 -148.731L-289.396 -156.683L-306.453 -164.278L-318.397 -171.165L-324.413 -177.004L-324.057 -181.509L-317.329 -184.478L-304.67 -185.823L-286.898 -185.57L-265.102 -183.852L-240.507 -180.887L-214.338 -176.945L-187.714 -172.315L-161.575 -167.277L-136.645 -162.08L-113.436 -156.935L-92.2607 -152.005L-73.2742 -147.41L-56.5083 -143.232L-41.9102 -139.523L-29.3745 -136.313L-18.7698 -133.615L-9.95807 -131.436L-2.81024 -129.782L2.78311 -128.662L6.90338 -128.092L9.59625 -128.103L10.8642 -128.745L10.6873 -130.081L9.1232 -132.136L6.21344 -134.941L1.95654 -138.55L-3.68253 -143.035L-10.7637 -148.486L-19.3628 -155.007L-29.5604 -162.708L-41.4287 -171.703L-55.0132 -182.094L-70.3114 -193.956L-87.2463 -207.32L-105.637 -222.148L-125.171 -238.304L-145.38 -255.53L-165.628 -273.427L-185.123 -291.447L-202.947 -308.904L-218.127 -325.013L-229.723 -338.954L-236.936 -349.95L-239.21 -357.363L-236.313 -360.773L-228.377 -360.034L-215.874 -355.288L-199.561 -346.946L-180.378 -335.621L-159.335 -322.05L-137.41 -307.007L-115.471 -291.232L-94.2202 -275.371L-74.1816 -259.949L-55.7033 -245.36L-38.9811 -231.873L-24.089 -219.653L-11.0108 -208.778L0.328949 -199.266L10.0411 -191.093L18.2514 -184.213L25.0866 -178.573L30.6635 -174.122L35.0823 -170.823L38.4206 -168.658L40.7297 -167.639L42.0295 -167.815L42.3334 -169.247L41.7072 -171.927L40.1982 -175.87L37.825 -181.131L34.5857 -187.792L30.4637 -195.963L25.4352 -205.773L19.4762 -217.357L12.5724 -230.845L4.72989 -246.347L-4.01083 -263.922L-13.5604 -283.554L-23.7643 -305.113L-34.3896 -328.322L-45.1151 -352.723L-55.5316 -377.655L-65.1541 -402.257L-73.451 -425.497L-79.8877 -446.235L-83.9834 -463.332L-85.3709 -475.761L-83.8495 -482.741L-79.418 -483.841L-72.2804 -479.034L-62.8212 -468.703L-51.5569 -453.582L-39.0722 -434.655L-25.9551 -413.034L-12.7428 -389.836L0.116974 -366.087L12.2838 -342.654L23.5268 -320.213L33.7143 -299.248L42.7956 -280.067L50.7814 -262.835L57.7245 -247.602L63.7027 -234.346L68.8069 -222.992L73.1303 -213.443L76.7631 -205.595L79.7876 -199.353L82.2762 -194.644L84.2904 -191.422L85.8799 -189.681L87.0828 -189.463L87.9391 -190.807L88.5057 -193.675L88.8303 -198.068L88.952 -204.029L88.9051 -211.639L88.7223 -221.008L88.4377 -232.261L88.0894 -245.532L87.7222 -260.943L87.3896 -278.583L87.1555 -298.48L87.0945 -320.566L87.2907 -344.64L87.8343 -370.329L88.8152 -397.053L90.314 -424.015L92.3904 -450.204L95.0709 -474.441L98.3377 -495.466L102.122 -512.053L106.305 -523.147L110.723 -528L115.188 -526.275L119.506 -518.093L123.498 -504.016L127.024 -484.965L129.99 -462.104L132.354 -436.694L134.123 -409.963L135.343 -383.012L136.084 -356.743L136.435 -331.839L136.486 -308.768L136.325 -287.81L136.03 -269.09L135.672 -252.622L135.309 -238.342L134.989 -226.141L134.753 -215.889L134.637 -207.453L134.674 -200.716L134.897 -195.582L135.343 -191.988L136.054 -189.913L137.085 -189.383L138.486 -190.405L140.291 -192.921L142.546 -196.916L145.306 -202.417L148.639 -209.487L152.621 -218.211L157.341 -228.689L162.89 -241.026L169.361 -255.307L176.84 -271.585L185.394 -289.848L195.055 -309.989L205.805 -331.774L217.552 -354.805L230.117 -378.5L243.21 -402.081L256.435 -424.591L269.293 -444.947L281.215 -462.02L291.607 -474.749L299.911 -482.267L305.673 -484.012L308.598 -479.811L308.587 -469.907L305.748 -454.926L300.376 -435.789L292.903 -413.599L283.846 -389.511L273.745 -364.617L263.111 -339.867L252.392 -316.02L241.952 -293.627L232.066 -273.05L222.924 -254.485L214.645 -237.996L207.29 -223.556L200.88 -211.078L195.41 -200.438L190.858 -191.5L187.2 -184.132L184.414 -178.215L182.491 -173.651L181.439 -170.371L181.291 -168.342L182.109 -167.569L183.935 -168.026L186.777 -169.647L190.672 -172.404L195.684 -176.301L201.904 -181.367L209.442 -187.648L218.421 -195.196L228.968 -204.064L241.203 -214.287L255.222 -225.87L271.073 -238.766L288.728 -252.855L308.055 -267.92L328.781 -283.629L350.468 -299.519L372.498 -314.999L394.079 -329.369L414.278 -341.863L432.086 -351.717L446.517 -358.247L456.714 -360.936L462.057 -359.508L462.246 -353.971L457.343 -344.619L447.754 -331.995L434.176 -316.82L417.493 -299.904L398.677 -282.061L378.681 -264.028L358.364 -246.422L338.438 -229.714L319.453 -214.228L301.793 -200.154L285.697 -187.574L271.29 -176.488L258.605 -166.838L247.617 -158.532L238.264 -151.462L230.467 -145.513L224.148 -140.578L219.237 -136.561L215.686 -133.38L213.476 -130.972L212.628 -129.295L213.204 -128.327L215.219 -128.022L218.654 -128.319L223.535 -129.18L229.928 -130.58L237.93 -132.509L247.661 -134.959L259.257 -137.926L272.854 -141.4L288.574 -145.358L306.497 -149.762L326.638 -154.544L348.904 -159.604L373.062 -164.799L398.701 -169.942L425.197 -174.801L451.714 -179.108L477.209 -182.575L500.498 -184.92L520.34 -185.896L535.564 -185.325L545.206 -183.127L548.634 -179.337L545.634 -174.105L536.441 -167.679L521.705 -160.378L502.397 -152.553L479.683 -144.547L454.79 -136.663L428.886 -129.147L402.99 -122.172L377.925 -115.845L354.299 -110.214L332.518 -105.279L312.816 -101.006L295.287 -97.3378L279.93 -94.208L266.673 -91.5444L255.412 -89.2758L246.025 -87.3351L238.396 -85.6599L232.423 -84.1938L228.03 -82.8846L225.179 -81.6843L223.875 -80.5462L223.793 -80.1891Z" fill="#D75929"/>
</svg>
