<svg width="537" height="896" viewBox="0 0 537 896" fill="none" xmlns="http://www.w3.org/2000/svg">
<path fill-rule="evenodd" clip-rule="evenodd" d="M548.793 447.811L549.594 448.939L551.955 450.114L555.854 451.384L561.318 452.795L568.41 454.397L577.224 456.247L587.875 458.404L600.483 460.934L615.162 463.908L631.995 467.396L651.01 471.47L672.147 476.19L695.22 481.597L719.883 487.704L745.593 494.481L771.596 501.841L796.932 509.631L820.473 517.629L840.998 525.547L857.308 533.053L868.354 539.795L873.374 545.439L871.992 549.71L864.279 552.424L850.742 553.509L832.251 553.011L809.926 551.078L785 547.939L758.688 543.868L732.083 539.155L706.093 534.075L681.409 528.874L658.507 523.754L637.674 518.87L619.042 514.337L602.626 510.231L588.365 506.6L576.146 503.47L565.836 500.854L557.297 498.759L550.404 497.19L545.049 496.155L541.159 495.675L538.691 495.783L537.654 496.532L538.056 497.982L539.836 500.153L542.959 503.082L547.433 506.825L553.298 511.458L560.615 517.072L569.464 523.773L579.923 531.673L592.062 540.884L605.922 551.505L621.488 563.605L638.67 577.208L657.268 592.259L676.945 608.606L697.207 625.97L717.392 643.927L736.684 661.906L754.153 679.203L768.823 695.022L779.769 708.543L786.224 719.006L787.681 725.804L783.964 728.555L775.26 727.16L762.094 721.808L745.258 712.946L725.711 701.211L704.464 687.354L682.483 672.148L660.61 656.318L639.522 640.495L619.713 625.183L601.505 610.754L585.072 597.461L570.472 585.452L557.677 574.794L546.604 565.497L537.14 557.533L529.157 550.855L522.529 545.408L517.143 541.142L512.901 538.024L509.729 536.039L507.581 535.206L506.443 535.581L506.291 537.212L507.06 540.091L508.708 544.24L511.218 549.717L514.597 556.611L518.861 565.034L524.037 575.117L530.146 586.996L537.2 600.799L545.189 616.628L554.066 634.535L563.732 654.485L574.021 676.33L584.686 699.764L595.392 724.3L605.716 749.242L615.164 773.7L623.2 796.619L629.294 816.852L632.979 833.269L633.912 844.875L631.921 850.938L627.04 851.088L619.503 845.365L609.719 834.214L598.22 818.416L585.596 798.984L572.43 777.039L559.247 753.688L546.477 729.936L534.445 706.621L523.363 684.387L513.351 663.69L504.446 644.812L496.63 627.896L489.847 612.982L484.014 600.034L479.04 588.975L474.833 579.703L471.302 572.117L468.368 566.124L465.958 561.654L464.015 558.667L462.489 557.165L461.345 557.195L460.538 558.784L460.013 561.894L459.723 566.532L459.631 572.75L459.701 580.632L459.903 590.292L460.2 601.858L460.555 615.462L460.92 631.224L461.242 649.223L461.454 669.476L461.479 691.896L461.234 716.257L460.627 742.155L459.568 768.977L457.981 795.888L455.809 821.848L453.033 845.659L449.677 866.057L445.82 881.833L441.588 891.973L437.15 895.79L432.695 893.017L428.418 883.848L424.492 868.908L421.05 849.169L418.179 825.817L415.911 800.116L414.233 773.282L413.095 746.384L412.422 720.292L412.125 695.654L412.113 672.906L412.301 652.299L412.61 633.939L412.972 617.826L413.332 603.885L413.641 592.003L413.86 582.048L413.954 573.891L413.889 567.415L413.633 562.529L413.148 559.178L412.39 557.345L411.303 557.065L409.841 558.328L407.967 561.079L405.635 565.312L402.789 571.058L399.358 578.385L395.264 587.381L390.419 598.149L384.729 610.79L378.103 625.387L370.456 641.984L361.728 660.556L351.89 680.979L340.973 702.993L329.081 726.174L316.41 749.908L303.266 773.386L290.064 795.628L277.316 815.536L265.598 831.985L255.503 843.936L247.577 850.562L242.252 851.361L239.794 846.226L240.267 835.462L243.533 819.751L249.272 800.051L257.033 777.482L266.292 753.195L276.512 728.266L287.187 703.614L297.883 679.966L308.251 657.843L318.029 637.577L327.04 619.341L335.175 603.182L342.38 589.062L348.639 576.885L353.962 566.525L358.37 557.847L361.888 550.717L364.536 545.021L366.321 540.665L367.232 537.587L367.232 535.756L366.253 535.183L364.266 535.829L361.26 537.632L357.193 540.569L351.994 544.65L345.572 549.906L337.813 556.385L328.593 564.141L317.785 573.222L305.271 583.663L290.962 595.46L274.82 608.556L256.886 622.818L237.314 638.011L216.401 653.783L194.613 669.651L172.597 685.003L151.171 699.126L131.285 711.25L113.951 720.617L100.141 726.564L90.6837 728.609L86.1507 726.519L86.7859 720.347L92.4713 710.432L102.748 697.35L116.884 681.842L133.972 664.726L153.038 646.806L173.14 628.803L193.438 611.312L213.246 594.781L232.042 579.51L249.466 565.672L265.298 553.331L279.432 542.479L291.843 533.05L302.566 524.948L311.666 518.064L319.222 512.284L325.313 507.501L330.005 503.622L333.342 500.568L335.337 498.279L335.963 496.715L335.156 495.857L332.915 495.652L329.252 496.041L324.136 496.989L317.494 498.474L309.225 500.486L299.206 503.019L287.301 506.067L273.373 509.62L257.306 513.653L239.028 518.122L218.54 522.956L195.953 528.049L171.526 533.249L145.703 538.364L119.142 543.153L92.7138 547.346L67.4877 550.653L44.6652 552.794L25.4842 553.533L11.0916 552.706L2.40671 550.25L0 546.217L4.01365 540.775L14.1423 534.187L29.6783 526.78L49.6103 518.904L72.7531 510.898L97.8821 503.058L123.848 495.618L149.661 488.741L174.532 482.523L197.887 477.004L219.348 472.177L238.708 468.004L255.888 464.427L270.906 461.376L283.837 458.78L294.791 456.568L303.89 454.674L311.25 453.036L316.967 451.598L321.112 450.309L323.719 449.122L324.772 447.989L324.225 446.864L322.109 445.7L318.456 444.448L313.245 443.063L306.418 441.495L297.885 439.688L287.535 437.585L275.246 435.118L260.904 432.22L244.418 428.818L225.749 424.842L204.941 420.229L182.158 414.933L157.717 408.936L132.129 402.262L106.113 394.986L80.5992 387.252L56.6923 379.269L35.6045 371.317L18.5474 363.722L6.60268 356.835L0.587392 350.996L0.942881 346.491L7.67054 343.522L20.3303 342.177L38.1024 342.43L59.8978 344.148L84.4927 347.113L110.662 351.055L137.286 355.685L163.425 360.723L188.355 365.92L211.564 371.065L232.739 375.995L251.726 380.59L268.492 384.768L283.09 388.477L295.625 391.687L306.23 394.385L315.042 396.564L322.19 398.218L327.783 399.338L331.903 399.908L334.596 399.897L335.864 399.255L335.687 397.919L334.123 395.864L331.213 393.059L326.957 389.45L321.317 384.965L314.236 379.514L305.637 372.993L295.44 365.292L283.571 356.297L269.987 345.906L254.689 334.044L237.754 320.68L219.363 305.852L199.829 289.696L179.62 272.47L159.372 254.573L139.877 236.553L122.053 219.096L106.873 202.987L95.2767 189.046L88.0643 178.05L85.7905 170.637L88.6865 167.227L96.6233 167.966L109.126 172.712L125.439 181.054L144.622 192.379L165.665 205.95L187.59 220.993L209.529 236.768L230.78 252.629L250.818 268.051L269.297 282.64L286.019 296.127L300.911 308.347L313.989 319.222L325.329 328.734L335.041 336.907L343.251 343.787L350.087 349.427L355.664 353.878L360.082 357.177L363.421 359.342L365.73 360.361L367.03 360.185L367.333 358.753L366.707 356.073L365.198 352.13L362.825 346.869L359.586 340.208L355.464 332.037L350.435 322.227L344.476 310.643L337.572 297.155L329.73 281.653L320.989 264.078L311.44 244.446L301.236 222.887L290.61 199.678L279.885 175.277L269.468 150.345L259.846 125.743L251.549 102.503L245.112 81.7645L241.017 64.6684L239.629 52.2395L241.15 45.2586L245.582 44.1589L252.72 48.9659L262.179 59.297L273.443 74.4181L285.928 93.3449L299.045 114.966L312.257 138.164L325.117 161.913L337.284 185.346L348.527 207.787L358.714 228.752L367.796 247.933L375.781 265.165L382.724 280.398L388.703 293.654L393.807 305.008L398.13 314.557L401.763 322.405L404.788 328.647L407.276 333.356L409.29 336.578L410.88 338.319L412.083 338.537L412.939 337.193L413.506 334.325L413.83 329.932L413.952 323.971L413.905 316.361L413.722 306.992L413.438 295.739L413.089 282.468L412.722 267.057L412.39 249.417L412.156 229.52L412.095 207.434L412.291 183.36L412.834 157.671L413.815 130.947L415.314 103.985L417.39 77.7964L420.071 53.5589L423.338 32.5335L427.122 15.9469L431.305 4.85329L435.723 0L440.188 1.7247L444.506 9.90666L448.498 23.9843L452.024 43.0346L454.99 65.8957L457.354 91.3064L459.123 118.037L460.343 144.988L461.084 171.257L461.435 196.161L461.486 219.232L461.325 240.19L461.03 258.91L460.672 275.378L460.309 289.658L459.989 301.859L459.753 312.111L459.637 320.547L459.674 327.284L459.897 332.418L460.343 336.012L461.054 338.087L462.085 338.617L463.486 337.595L465.291 335.079L467.546 331.084L470.306 325.583L473.639 318.513L477.621 309.789L482.341 299.311L487.89 286.974L494.361 272.693L501.84 256.415L510.394 238.152L520.055 218.011L530.805 196.226L542.552 173.195L555.117 149.5L568.21 125.919L581.435 103.409L594.293 83.0533L606.215 65.9803L616.607 53.2508L624.911 45.7331L630.673 43.9881L633.598 48.1887L633.587 58.0926L630.748 73.0744L625.376 92.2111L617.903 114.401L608.846 138.489L598.745 163.383L588.111 188.133L577.392 211.98L566.952 234.373L557.066 254.95L547.924 273.515L539.645 290.004L532.29 304.444L525.88 316.922L520.41 327.562L515.858 336.5L512.2 343.868L509.414 349.785L507.491 354.349L506.439 357.629L506.291 359.658L507.109 360.431L508.935 359.974L511.777 358.353L515.672 355.596L520.684 351.699L526.904 346.633L534.442 340.352L543.421 332.804L553.968 323.936L566.203 313.713L580.222 302.13L596.073 289.234L613.728 275.145L633.055 260.08L653.781 244.371L675.468 228.481L697.498 213.001L719.079 198.631L739.278 186.137L757.086 176.283L771.517 169.753L781.714 167.064L787.057 168.492L787.246 174.029L782.343 183.381L772.754 196.005L759.176 211.18L742.493 228.096L723.677 245.939L703.681 263.972L683.364 281.578L663.438 298.286L644.453 313.772L626.793 327.846L610.697 340.426L596.29 351.512L583.605 361.162L572.617 369.468L563.264 376.538L555.467 382.487L549.148 387.422L544.237 391.439L540.686 394.62L538.476 397.028L537.628 398.705L538.204 399.673L540.219 399.978L543.654 399.681L548.535 398.82L554.928 397.42L562.93 395.491L572.661 393.041L584.257 390.074L597.854 386.6L613.574 382.642L631.497 378.238L651.638 373.456L673.904 368.396L698.062 363.201L723.701 358.058L750.197 353.199L776.714 348.892L802.209 345.425L825.498 343.08L845.34 342.104L860.564 342.675L870.206 344.873L873.634 348.663L870.634 353.895L861.441 360.321L846.705 367.622L827.397 375.447L804.683 383.453L779.79 391.337L753.886 398.853L727.99 405.828L702.925 412.155L679.299 417.786L657.518 422.721L637.816 426.994L620.287 430.662L604.93 433.792L591.673 436.456L580.412 438.724L571.025 440.665L563.396 442.34L557.423 443.806L553.03 445.115L550.179 446.316L548.875 447.454L548.793 447.811Z" fill="#D75929"/>
</svg>
