<svg width="40" height="40" viewBox="0 0 40 40" fill="none" xmlns="http://www.w3.org/2000/svg">
<path d="M35 2H5C4.20435 2 3.44129 2.31607 2.87868 2.87868C2.31607 3.44129 2 4.20435 2 5V35C2 35.7957 2.31607 36.5587 2.87868 37.1213C3.44129 37.6839 4.20435 38 5 38H35C35.7956 38 36.5587 37.6839 37.1213 37.1213C37.6839 36.5587 38 35.7957 38 35V5C38 4.20435 37.6839 3.44129 37.1213 2.87868C36.5587 2.31607 35.7956 2 35 2Z" stroke="black" stroke-width="4"/>
<path d="M10 11V29" stroke="black" stroke-width="4" stroke-linecap="round" stroke-linejoin="round"/>
<path d="M12 21C15 21 19 20.2 19 16C19 11.8 15 11 12 11H10V21H12Z" stroke="black" stroke-width="4" stroke-linecap="round" stroke-linejoin="round"/>
<path d="M30 17.025C29 17.025 24 16.527 24 20.012C24 23.498 30 22.502 30 25.988C30 29.473 24 28.975 24 28.975" stroke="black" stroke-width="4" stroke-linecap="round" stroke-linejoin="round"/>
</svg>
