<svg width="267" height="39" viewBox="0 0 267 39" fill="none" xmlns="http://www.w3.org/2000/svg">
<path d="M2 22.7386C34.6962 15.0589 68.2015 13.6275 101.643 11.7125C152.853 8.77984 204.143 6.94094 255.319 3.49238C255.615 3.47242 266.438 2.4513 264.839 2.30393C252.577 1.17394 239.318 3.47872 227.158 4.58178C171.904 9.59383 117.089 18.0827 61.905 23.5309C58.0379 23.9127 50.5154 24.5564 46.2487 24.5873C45.6155 24.5919 43.912 23.9572 44.5239 23.795C58.1388 20.1875 73.7065 20.4284 87.6449 19.8665C109.672 18.9786 131.839 18.8198 153.852 20.1637C158.939 20.4742 169.021 21.2932 174.351 22.0123C176.223 22.2649 178.101 22.5424 179.924 23.0357C182.639 23.7707 182.483 24.2913 180.023 25.1815C169.392 29.0289 156.659 29.2629 145.56 30.4635C130.293 32.1151 113.737 32.2572 98.79 36.0096C97.5006 36.3333 101.441 36.2973 102.77 36.2737C113.829 36.0778 124.879 35.702 135.94 35.5805C156.243 35.3574 176.378 35.9917 196.641 37" stroke="white" stroke-width="3" stroke-linecap="round"/>
</svg>
