<svg width="379" height="202" viewBox="0 0 379 202" fill="none" xmlns="http://www.w3.org/2000/svg">
<path d="M611.397 343.585V343.585ZM611.397 343.585L611.4 346.762L611.316 349.938L611.143 353.112L610.882 356.279L610.533 359.439L610.097 362.588L609.574 365.726L608.966 368.849L608.273 371.956L607.496 375.045L606.637 378.113L605.698 381.159L604.678 384.181L603.582 387.177L602.409 390.145L601.163 393.084L599.844 395.992L598.456 398.869L597.001 401.712L595.48 404.52L593.896 407.292L592.252 410.028L590.55 412.726L588.793 415.385L586.983 418.006L585.122 420.586L583.214 423.126L581.261 425.626L579.265 428.084L577.229 430.501L575.156 432.877L573.048 435.212L570.907 437.506L568.737 439.758L566.538 441.969L564.314 444.14L562.066 446.271L559.797 448.361L557.509 450.412L555.202 452.424L552.88 454.397L550.544 456.332L548.194 458.229L545.833 460.089L543.461 461.912L541.08 463.698L538.69 465.448L536.292 467.162L533.888 468.841L531.478 470.484L529.062 472.093L526.642 473.667L524.217 475.207L521.789 476.713L519.357 478.185L516.923 479.624L514.486 481.029L512.048 482.401L509.607 483.741L507.165 485.048L504.722 486.322L502.278 487.563L499.833 488.773L497.388 489.949L494.942 491.094L492.496 492.206L490.05 493.286L487.604 494.333L485.159 495.349L482.714 496.332L480.269 497.282L477.826 498.201L475.383 499.087L472.942 499.941L470.502 500.763L468.065 501.553L465.629 502.31L463.196 503.036L460.766 503.73L458.338 504.392L455.915 505.023L453.495 505.623L451.08 506.191L448.669 506.73L446.263 507.238L443.864 507.717L441.47 508.166L439.083 508.587L436.703 508.98L434.331 509.345L431.967 509.684L429.612 509.997L427.266 510.286L424.93 510.55L422.603 510.791L420.287 511.01L417.982 511.208L415.688 511.385L413.406 511.544L411.136 511.685L408.878 511.809L406.632 511.918L404.399 512.012L402.179 512.094L399.972 512.164L397.778 512.223L395.597 512.273L393.429 512.316L391.274 512.353L389.132 512.384L387.003 512.412L384.887 512.438L382.782 512.463L380.69 512.489L378.609 512.516L376.539 512.547L374.48 512.583L372.431 512.625L370.391 512.673L368.36 512.731L366.337 512.798L364.321 512.876L362.312 512.966L360.308 513.069L358.309 513.186L356.313 513.319L354.32 513.467L352.329 513.632L350.338 513.815L348.346 514.016L346.353 514.237L344.356 514.476L342.355 514.736L340.349 515.016L338.336 515.317L336.314 515.639L334.284 515.983L332.242 516.348L330.189 516.734L328.122 517.141L326.04 517.569L323.943 518.017L321.828 518.486L319.694 518.974L317.541 519.482L315.367 520.007L313.17 520.549L310.951 521.108L308.706 521.682L306.436 522.271L304.14 522.871L301.816 523.484L299.464 524.106L297.083 524.736L294.672 525.373L292.23 526.016L289.757 526.661L287.253 527.308L284.716 527.954L282.147 528.597L279.546 529.236L276.911 529.868L274.244 530.491L271.544 531.102L268.812 531.701L266.047 532.283L263.25 532.848L260.422 533.392L257.562 533.913L254.672 534.41L251.753 534.879L248.804 535.319L245.828 535.727L242.825 536.1L239.796 536.438L236.743 536.737L233.666 536.995L230.568 537.21L227.449 537.38L224.311 537.504L221.156 537.579L217.985 537.604L214.799 537.577L211.601 537.498L208.391 537.364L205.171 537.175L201.943 536.93L198.707 536.628L195.465 536.269L192.219 535.852L188.97 535.377L185.718 534.843L182.466 534.25L179.214 533.599L175.963 532.889L172.714 532.119L169.468 531.292L166.227 530.405L162.991 529.46L159.761 528.457L156.538 527.396L153.322 526.277L150.115 525.101L146.917 523.868L143.73 522.579L140.552 521.233L137.387 519.831L134.233 518.374L131.092 516.862L127.965 515.295L124.851 513.674L121.753 511.999L118.671 510.269L115.605 508.486L112.556 506.65L109.526 504.761L106.514 502.819L103.523 500.825L100.553 498.778L97.6049 496.678L94.6805 494.527L91.7808 492.323L88.9072 490.068L86.061 487.76L83.244 485.401L80.4576 482.989L77.7034 480.527L74.9829 478.013L72.2976 475.448L69.6489 472.832L67.0383 470.166L64.4672 467.45L61.9369 464.685L59.4488 461.871L57.0042 459.009L54.6042 456.099L52.25 453.143L49.9429 450.141L47.6837 447.094L45.4737 444.003L43.3136 440.868L41.2045 437.69L39.1471 434.471L37.1423 431.212L35.1909 427.913L33.2933 424.575L31.4504 421.2L29.6627 417.789L27.9306 414.342L26.2547 410.861L24.6354 407.346L23.073 403.8L21.5678 400.222L20.1203 396.615L18.7305 392.979L17.3989 389.315L16.1254 385.625L14.9103 381.909L13.7538 378.169L12.656 374.406L11.6169 370.62L10.6368 366.813L9.71558 362.986L8.85346 359.14L8.0505 355.275L7.3068 351.394L6.62245 347.497L5.99757 343.585L5.43227 339.658L4.92661 335.719L4.4805 331.768L4.09377 327.806L3.76616 323.834L3.49729 319.853L3.28676 315.864L3.13406 311.868L3.03867 307.865L3 303.857L3.01745 299.844L3.0904 295.828L3.21822 291.808L3.40027 287.785L3.63593 283.761L3.9246 279.735L4.26568 275.709L4.65862 271.683L5.10291 267.657L5.59805 263.633L6.14361 259.61L6.73919 255.59L7.38445 251.572L8.07909 247.558L8.82286 243.547L9.61558 239.541L10.4571 235.54L11.3473 231.545L12.2861 227.556L13.2735 223.573L14.3096 219.598L15.3944 215.63L16.528 211.672L17.7104 207.722L18.9419 203.783L20.2225 199.854L21.5524 195.937L22.9318 192.032L24.3607 188.14L25.8393 184.262L27.3677 180.398L28.9459 176.549L30.574 172.716L32.2519 168.901L33.9796 165.102L35.7569 161.322L37.5837 157.561L39.46 153.82L41.3857 150.099L43.3608 146.4L45.3853 142.723L47.4591 139.069L49.5824 135.439L51.7551 131.834L53.9774 128.256L56.2493 124.704L58.5707 121.181L60.9418 117.686L63.3626 114.223L65.8331 110.79L68.3533 107.391L70.9231 104.025L73.5424 100.695L76.2113 97.4008L78.9295 94.1443L81.6968 90.9265L84.5132 87.7488L87.3783 84.6124L90.2917 81.5186L93.2533 78.4685L96.2626 75.4635L99.3192 72.5047L102.423 69.5934L105.572 66.7306L108.767 63.9177L112.008 61.1557L115.292 58.4457L118.621 55.7888L121.992 53.1861L125.405 50.6385L128.86 48.1472L132.355 45.7129L135.889 43.3366L139.461 41.0192L143.071 38.7615L146.717 36.5643L150.399 34.4282L154.114 32.354L157.863 30.3424L161.643 28.394L165.454 26.5093L169.294 24.689L173.163 22.934L177.06 21.2451L180.982 19.6231L184.93 18.069L188.902 16.584L192.897 15.169L196.914 13.8252L200.953 12.5538L205.011 11.3559L209.088 10.2329L213.183 9.18591L217.295 8.21625L221.421 7.32517L225.562 6.51394L229.715 5.7838L233.879 5.13597L238.053 4.57164L242.235 4.09196L246.424 3.69805L250.618 3.39096L254.815 3.17165L259.014 3.04106L263.213 3L267.409 3.04922L271.602 3.18935L275.79 3.42093L279.969 3.74438L284.139 4.15998L288.298 4.66792L292.442 5.2682L296.571 5.96071L300.682 6.74519L304.772 7.62119L308.841 8.58812L312.885 9.64521L316.904 10.7915L320.893 12.0259L324.853 13.3471L328.78 14.7535L332.673 16.2436L336.53 17.8152L340.349 19.4665L344.128 21.1949L347.866 22.9982L351.562 24.8737L355.213 26.8188L358.818 28.8307L362.377 30.9068L365.888 33.0443L369.35 35.2401L372.762 37.4915L376.124 39.7954L379.435 42.149L382.693 44.5492L385.9 46.993L389.054 49.4774L392.155 51.9995L395.203 54.5562L398.199 57.1446L401.141 59.7618L404.031 62.4047L406.869 65.0706L409.655 67.7567L412.39 70.4601L415.074 73.1782L417.708 75.9083L420.293 78.6478L422.83 81.3942L425.319 84.1452L427.762 86.8984L430.16 89.6515L432.514 92.4023L434.824 95.1489L437.094 97.8893L439.323 100.622L441.513 103.344L443.666 106.055L445.783 108.753L447.866 111.437L449.915 114.105L451.933 116.756L453.921 119.39L455.88 122.004L457.812 124.599L459.719 127.173L461.602 129.726L463.462 132.258L465.301 134.768L467.12 137.256L468.922 139.721L470.707 142.163L472.477 144.581L474.234 146.976L475.979 149.347L477.714 151.694L479.441 154.016L481.161 156.314L482.877 158.588L484.589 160.837L486.3 163.062L488.01 165.263L489.722 167.44L491.438 169.594L493.158 171.724L494.885 173.832L496.619 175.918L498.362 177.983L500.115 180.028L501.88 182.053L503.658 184.06L505.449 186.05L507.254 188.024L509.076 189.983L510.913 191.928L512.766 193.862L514.637 195.785L516.526 197.699L518.432 199.606L520.356 201.508L522.297 203.405L524.257 205.3L526.233 207.196L528.227 209.092L530.237 210.992L532.262 212.897L534.302 214.81L536.357 216.731L538.424 218.663L540.503 220.607L542.592 222.566L544.69 224.541L546.796 226.534L548.909 228.546L551.025 230.579L553.144 232.634L555.264 234.714L557.383 236.819L559.498 238.951L561.607 241.111L563.709 243.301L565.799 245.521L567.877 247.773L569.939 250.058L571.983 252.376L574.006 254.729L576.005 257.117L577.977 259.54L579.92 262L581.83 264.496L583.705 267.029L585.542 269.598L587.337 272.204L589.089 274.847L590.793 277.526L592.447 280.241L594.049 282.991L595.596 285.776L597.084 288.594L598.511 291.446L599.875 294.33L601.173 297.244L602.403 300.188L603.562 303.16L604.648 306.159L605.66 309.183L606.595 312.23L607.451 315.3L608.227 318.389L608.922 321.497L609.533 324.62L610.06 327.758L610.501 330.908L610.856 334.068L611.124 337.235L611.304 340.408L611.397 343.585" stroke="#F36A8D" stroke-width="5"/>
</svg>
