<svg width="294" height="461" viewBox="0 0 294 461" fill="none" xmlns="http://www.w3.org/2000/svg">
<path d="M487.878 217.341V217.341ZM487.878 217.341L486.843 221.077L485.791 224.787L484.727 228.472L483.653 232.131L482.573 235.766L481.487 239.379L480.397 242.969L479.304 246.54L478.207 250.091L477.105 253.624L475.998 257.138L474.882 260.636L473.757 264.118L472.618 267.583L471.463 271.032L470.288 274.464L469.086 277.879L467.855 281.275L466.587 284.651L465.277 288.006L463.919 291.336L462.509 294.639L461.042 297.913L459.512 301.155L457.917 304.362L456.254 307.532L454.521 310.661L452.718 313.748L450.843 316.79L448.896 319.785L446.878 322.73L444.787 325.622L442.625 328.46L440.391 331.241L438.085 333.963L435.709 336.622L433.262 339.217L430.746 341.746L428.163 344.206L425.515 346.596L422.802 348.914L420.028 351.158L417.196 353.328L414.308 355.423L411.367 357.441L408.377 359.383L405.342 361.248L402.265 363.037L399.15 364.75L396.001 366.388L392.823 367.952L389.619 369.443L386.393 370.863L383.151 372.213L379.894 373.495L376.628 374.712L373.356 375.866L370.082 376.959L366.809 377.993L363.541 378.972L360.28 379.897L357.03 380.772L353.793 381.6L350.571 382.383L347.368 383.123L344.183 383.825L341.021 384.489L337.881 385.12L334.765 385.719L331.675 386.288L328.611 386.831L325.574 387.35L322.564 387.846L319.582 388.323L316.628 388.781L313.703 389.223L310.805 389.651L307.935 390.066L305.092 390.471L302.276 390.866L299.487 391.253L296.724 391.634L293.986 392.009L291.273 392.38L288.583 392.747L285.915 393.111L283.269 393.473L280.642 393.832L278.034 394.188L275.444 394.54L272.869 394.888L270.308 395.23L267.761 395.566L265.226 395.896L262.703 396.219L260.19 396.537L257.689 396.852L255.198 397.167L252.717 397.485L250.247 397.809L247.786 398.144L245.335 398.495L242.893 398.865L240.459 399.262L238.032 399.691L235.612 400.159L233.196 400.671L230.782 401.234L228.369 401.853L225.954 402.535L223.534 403.284L221.106 404.104L218.666 404.998L216.211 405.97L213.736 407.021L211.238 408.154L208.713 409.367L206.157 410.662L203.565 412.036L200.934 413.488L198.259 415.014L195.536 416.611L192.763 418.275L189.936 419.999L187.052 421.777L184.108 423.604L181.102 425.471L178.032 427.371L174.897 429.294L171.696 431.232L168.429 433.176L165.095 435.115L161.696 437.04L158.232 438.94L154.706 440.805L151.119 442.624L147.475 444.387L143.777 446.083L140.028 447.702L136.234 449.234L132.399 450.669L128.529 451.997L124.629 453.21L120.705 454.298L116.764 455.253L112.813 456.068L108.859 456.735L104.908 457.248L100.969 457.602L97.0496 457.791L93.1562 457.812L89.2969 457.661L85.479 457.335L81.7099 456.834L77.9964 456.156L74.3455 455.301L70.7635 454.271L67.2564 453.068L63.8299 451.693L60.4888 450.152L57.2377 448.448L54.0805 446.587L51.0204 444.575L48.0599 442.418L45.2012 440.122L42.4453 437.697L39.7931 435.149L37.2444 432.488L34.7986 429.721L32.4544 426.857L30.21 423.905L28.063 420.873L26.0112 417.77L24.0528 414.603L22.186 411.378L20.4094 408.101L18.7218 404.776L17.1223 401.409L15.6103 398.002L14.1858 394.56L12.8488 391.086L11.6001 387.581L10.4408 384.048L9.37257 380.488L8.3977 376.903L7.51857 373.293L6.73752 369.659L6.05674 366.004L5.47826 362.328L5.00378 358.634L4.63471 354.924L4.37204 351.2L4.21638 347.466L4.1679 343.724L4.22632 339.978L4.39089 336.23L4.66038 332.486L5.03306 328.748L5.50667 325.02L6.07847 321.307L6.74519 317.612L7.50304 313.94L8.34774 310.294L9.27451 306.679L10.2781 303.098L11.3527 299.555L12.4921 296.053L13.6898 292.597L14.9386 289.189L16.2312 285.833L17.5599 282.53L18.9164 279.283L20.2926 276.095L21.6798 272.966L23.0693 269.899L24.4521 266.894L25.8193 263.951L27.1618 261.071L28.4705 258.252L29.7367 255.495L30.9513 252.798L32.1058 250.159L33.1919 247.576L34.2013 245.045L35.1264 242.565L35.9601 240.132L36.6954 237.741L37.3263 235.389L37.8472 233.07L38.2532 230.78L38.5402 228.514L38.7048 226.266L38.7447 224.03L38.6581 221.801L38.4445 219.574L38.1039 217.341L37.6378 215.097L37.0481 212.837L36.3381 210.555L35.5117 208.246L34.5741 205.904L33.531 203.524L32.389 201.102L31.1556 198.633L29.8386 196.115L28.4465 193.544L26.9883 190.916L25.4736 188.23L23.9124 185.484L22.3152 182.677L20.6934 179.808L19.0597 176.877L17.4278 173.887L15.812 170.838L14.2277 167.735L12.69 164.58L11.2148 161.38L9.81727 158.138L8.51278 154.863L7.31595 151.561L6.24077 148.239L5.3003 144.907L4.50658 141.573L3.87045 138.245L3.40173 134.934L3.10909 131.648L3 128.398L3.08075 125.192L3.3565 122.042L3.83118 118.956L4.50747 115.944L5.38668 113.015L6.46874 110.178L7.7522 107.44L9.23421 104.809L10.9106 102.293L12.7758 99.8963L14.8232 97.6247L17.0448 95.4821L19.4317 93.4718L21.9741 91.5959L24.6612 89.8555L27.4814 88.2508L30.4228 86.7806L33.4727 85.4431L36.6182 84.2352L39.8462 83.153L43.1433 82.1914L46.4962 81.3447L49.8919 80.6063L53.3172 79.9686L56.7597 79.4236L60.2072 78.9626L63.6479 78.5761L67.0709 78.2546L70.4656 77.9878L73.8226 77.7654L77.1328 77.5767L80.3884 77.411L83.5821 77.2577L86.7077 77.106L89.7599 76.9455L92.7343 76.7659L95.6274 76.5573L98.4366 76.3101L101.16 76.0152L103.798 75.6641L106.35 75.2488L108.816 74.7619L111.199 74.1968L113.501 73.5476L115.725 72.809L117.874 71.9768L119.954 71.0472L121.969 70.0176L123.925 68.886L125.826 67.6515L127.679 66.3138L129.491 64.8737L131.268 63.3326L133.016 61.693L134.743 59.9582L136.455 58.1323L138.159 56.2203L139.862 54.2282L141.571 52.1624L143.292 50.0301L145.031 47.8389L146.794 45.5971L148.586 43.3135L150.413 40.9977L152.279 38.66L154.19 36.3113L156.148 33.9627L158.157 31.6257L160.22 29.312L162.34 27.0332L164.517 24.801L166.752 22.6266L169.046 20.5211L171.398 18.495L173.808 16.5584L176.273 14.7206L178.793 12.9909L181.363 11.3774L183.981 9.88812L186.643 8.53012L189.346 7.30996L192.085 6.23344L194.856 5.30552L197.654 4.53024L200.473 3.91062L203.31 3.44863L206.157 3.14516L209.011 3L211.865 3.01184L214.714 3.17827L217.555 3.49584L220.381 3.96005L223.188 4.56546L225.972 5.30569L228.731 6.17352L231.459 7.16096L234.155 8.25933L236.817 9.45932L239.442 10.7511L242.029 12.1245L244.579 13.5688L247.091 15.0732L249.565 16.6267L252.004 18.2183L254.409 19.8369L256.781 21.4717L259.125 23.1118L261.444 24.7469L263.742 26.3668L266.022 27.962L268.29 29.5233L270.552 31.0421L272.811 32.5105L275.075 33.9212L277.349 35.2677L279.64 36.544L281.952 37.7454L284.294 38.8675L286.67 39.9071L289.087 40.8616L291.551 41.7296L294.068 42.5102L296.643 43.2037L299.282 43.8111L301.989 44.3342L304.769 44.7757L307.626 45.1392L310.563 45.4289L313.583 45.6499L316.688 45.8078L319.881 45.9092L323.161 45.961L326.53 45.9708L329.986 45.9467L333.53 45.8973L337.157 45.8315L340.867 45.7586L344.655 45.6881L348.517 45.6297L352.449 45.5929L356.444 45.5874L360.498 45.6219L364.604 45.7047L368.757 45.8434L372.952 46.0453L377.181 46.317L381.439 46.6646L385.719 47.094L390.016 47.6104L394.322 48.2188L398.63 48.9238L402.934 49.7297L407.227 50.6404L411.501 51.6595L415.748 52.7901L419.961 54.0353L424.133 55.3974L428.255 56.8786L432.32 58.4807L436.319 60.2051L440.245 62.0529L444.088 64.0248L447.841 66.1208L451.497 68.3406L455.048 70.6834L458.486 73.1478L461.805 75.7319L464.998 78.4333L468.06 81.2491L470.984 84.176L473.767 87.2103L476.405 90.3477L478.892 93.5837L481.228 96.9134L483.408 100.332L485.432 103.833L487.298 107.412L489.007 111.063L490.557 114.779L491.951 118.556L493.189 122.386L494.273 126.264L495.207 130.183L495.993 134.139L496.636 138.124L497.138 142.134L497.505 146.163L497.742 150.205L497.854 154.256L497.848 158.31L497.728 162.364L497.502 166.413L497.176 170.453L496.757 174.481L496.251 178.494L495.665 182.489L495.005 186.463L494.28 190.415L493.495 194.342L492.657 198.243L491.772 202.118L490.846 205.966L489.885 209.785L488.894 213.577L487.878 217.341" stroke="#F36A8D" stroke-width="5"/>
</svg>
