<svg width="25" height="33" viewBox="0 0 25 33" fill="none" xmlns="http://www.w3.org/2000/svg">
<path fill-rule="evenodd" clip-rule="evenodd" d="M22.7189 15.2694C24.1039 15.6347 24.7539 16.6343 24.1708 17.5019C21.7473 21.1078 19.2648 24.6884 16.7843 28.266C16.6799 28.4166 16.5755 28.5672 16.4711 28.7177C16.4803 28.7044 16.4507 28.7567 16.3663 28.9056C16.3271 28.9748 16.2761 29.0647 16.2117 29.1787C16.0423 29.4784 15.8213 29.8678 15.5932 30.252C15.3696 30.6288 15.1205 31.0323 14.8954 31.3501C14.7892 31.4999 14.6497 31.6864 14.4906 31.853C14.4212 31.9256 14.2705 32.0779 14.0419 32.2303C13.9304 32.3046 13.7008 32.4469 13.3538 32.5691C13.0091 32.6905 12.3029 32.8751 11.4097 32.7534C9.70438 32.5212 8.95938 31.6604 8.69333 31.3166C8.55228 31.1344 8.43474 30.9456 8.3617 30.8283C8.35497 30.8174 8.34861 30.8072 8.34265 30.7977C8.25164 30.6521 8.21886 30.6059 8.20225 30.586C7.5827 29.8431 6.98998 29.0965 6.41339 28.3542C4.91082 26.4197 2.8322 23.6413 1.208 21.4703C0.868552 21.0165 0.548951 20.5893 0.258605 20.2019C-0.380051 19.3497 0.20492 18.3346 1.56518 17.9345C2.92543 17.5343 4.54587 17.9008 5.18453 18.753C5.47879 19.1456 5.80137 19.5768 6.14297 20.0334C7.76812 22.2057 9.82356 24.953 11.3066 26.8624C11.3978 26.9798 11.4892 27.097 11.5807 27.2139C11.6501 27.1138 11.7195 27.0137 11.7889 26.9137C14.2726 23.3314 16.7441 19.7667 19.1554 16.179C19.7385 15.3113 21.334 14.9041 22.7189 15.2694ZM13.6058 29.8483C13.6057 29.8484 13.6041 29.8466 13.6008 29.8428C13.6042 29.8463 13.6059 29.8483 13.6058 29.8483Z" fill="black"/>
<path fill-rule="evenodd" clip-rule="evenodd" d="M22.7189 0.134024C24.1039 0.499355 24.7539 1.49889 24.1708 2.36656C21.7473 5.97246 19.2648 9.55299 16.7843 13.1306C16.6799 13.2812 16.5755 13.4318 16.4711 13.5824C16.4803 13.569 16.4507 13.6214 16.3663 13.7702C16.3271 13.8394 16.2761 13.9294 16.2117 14.0433C16.0423 14.343 15.8213 14.7324 15.5932 15.1166C15.3696 15.4934 15.1205 15.8969 14.8954 16.2148C14.7892 16.3646 14.6497 16.551 14.4906 16.7176C14.4212 16.7902 14.2705 16.9425 14.0419 17.0949C13.9304 17.1692 13.7008 17.3115 13.3538 17.4337C13.0091 17.5551 12.3029 17.7397 11.4097 17.618C9.70438 17.3858 8.95938 16.525 8.69333 16.1812C8.55228 15.999 8.43474 15.8102 8.3617 15.6929C8.35497 15.6821 8.34861 15.6719 8.34265 15.6623C8.25164 15.5167 8.21886 15.4706 8.20225 15.4507C7.5827 14.7078 6.98998 13.9611 6.41339 13.2188C4.91082 11.2843 2.8322 8.50591 1.208 6.3349C0.868552 5.88117 0.548951 5.45397 0.258605 5.06655C-0.380051 4.21437 0.20492 3.19919 1.56518 2.79908C2.92543 2.39897 4.54587 2.76544 5.18453 3.61763C5.47879 4.01027 5.80137 4.44145 6.14297 4.89804C7.76812 7.07028 9.82356 9.81767 11.3066 11.727C11.3978 11.8445 11.4892 11.9616 11.5807 12.0785C11.6501 11.9784 11.7195 11.8783 11.7889 11.7783C14.2726 8.19599 16.7441 4.63134 19.1554 1.04357C19.7385 0.175912 21.334 -0.231307 22.7189 0.134024ZM13.6058 14.713C13.6057 14.713 13.6041 14.7112 13.6008 14.7074C13.6042 14.711 13.6059 14.7129 13.6058 14.713Z" fill="black"/>
</svg>
