<svg width="230" height="39" viewBox="0 0 230 39" fill="none" xmlns="http://www.w3.org/2000/svg">
<path fill-rule="evenodd" clip-rule="evenodd" d="M0 17.9705C0 17.142 0.671573 16.4705 1.5 16.4705H202.789C203.617 16.4705 204.289 17.142 204.289 17.9705C204.289 18.7989 203.617 19.4705 202.789 19.4705H1.5C0.671573 19.4705 0 18.7989 0 17.9705Z" fill="white"/>
<path fill-rule="evenodd" clip-rule="evenodd" d="M175.965 1.13655C176.166 0.332859 176.981 -0.155782 177.784 0.0451411C179.683 0.519754 181.577 0.998233 183.469 1.47607C193.755 4.07433 203.966 6.65353 214.365 8.48859C214.846 8.57354 215.501 8.66051 216.3 8.76679C217.049 8.86625 217.924 8.98261 218.904 9.13005C220.833 9.42027 223.039 9.81626 224.855 10.3953C225.761 10.6838 226.641 11.0396 227.362 11.4931C228.056 11.9297 228.806 12.5854 229.098 13.5546C229.418 14.6169 229.07 15.6257 228.442 16.4533C227.838 17.2507 226.889 18.0118 225.653 18.7695C220.727 21.7883 215.239 24.0267 209.762 26.0566C208.227 26.6254 206.698 27.1762 205.18 27.7229C201.235 29.1437 197.371 30.5358 193.697 32.1384C193.52 32.2156 193.121 32.3842 192.564 32.6197C191.033 33.2666 188.308 34.4185 185.705 35.5687C183.946 36.3456 182.31 37.0935 181.229 37.6411C180.979 37.7678 180.777 37.8751 180.618 37.9629C180.363 38.4279 179.869 38.7432 179.302 38.7432C179.203 38.7432 178.886 38.7423 178.55 38.5855C178.358 38.4963 178.064 38.3112 177.858 37.9534C177.638 37.5699 177.623 37.172 177.686 36.8695C177.784 36.4006 178.074 36.1101 178.141 36.0425L178.145 36.0384C178.258 35.9243 178.376 35.8333 178.464 35.7698C178.799 35.5283 179.319 35.2459 179.873 34.9653C181.03 34.3786 182.73 33.6031 184.492 32.8246C187.129 31.6597 190.054 30.4231 191.551 29.7904C192.036 29.5855 192.371 29.4439 192.498 29.3886C196.268 27.7438 200.275 26.3006 204.253 24.8677C205.75 24.3283 207.244 23.7903 208.719 23.2436C214.161 21.2272 219.42 19.0706 224.085 16.2117C225.189 15.5352 225.775 15.0061 226.052 14.6411C226.142 14.5213 226.185 14.4411 226.205 14.3939C226.161 14.3363 226.045 14.2091 225.764 14.0323C225.347 13.7702 224.736 13.5059 223.944 13.2536C222.368 12.7511 220.36 12.3829 218.458 12.0967C217.623 11.9711 216.774 11.8573 216.01 11.7548C215.122 11.6358 214.348 11.532 213.843 11.4429C203.328 9.58721 192.995 6.97706 182.711 4.37902C180.825 3.90255 178.941 3.42649 177.057 2.95557C176.253 2.75465 175.765 1.94024 175.965 1.13655ZM226.219 14.3405C226.22 14.3402 226.22 14.3471 226.216 14.3621C226.216 14.3483 226.218 14.3408 226.219 14.3405ZM180.211 38.2092C180.211 38.2092 180.212 38.2083 180.215 38.2064C180.212 38.2082 180.211 38.2092 180.211 38.2092Z" fill="white"/>
</svg>
