<svg width="112" height="102" viewBox="0 0 112 102" fill="none" xmlns="http://www.w3.org/2000/svg">
<path d="M24.3702 54.2281C24.2612 56.4427 23.1936 60.3376 26.3005 60.5259C27.9709 60.6272 29.7867 59.6531 30.473 58.0692C31.4617 55.7878 30.616 52.395 27.7043 52.1418C24.4733 51.8608 21.553 56.2552 25.3451 57.6597C29.1029 59.0515 27.7782 53.6247 26.3005 54.774C22.6038 57.649 30.1733 57.2926 29.1733 55.293C27.9976 52.9417 23.5635 57.3149 26.125 58.5956C29.1914 60.1289 29.2064 54.1692 25.4231 56.0609C22.8823 57.3312 25.2384 60.9532 27.7043 60.1945C28.6303 59.9096 30.3637 57.9556 28.9327 57.1138C27.6645 56.3677 26.0123 58.9315 27.5289 57.0358" stroke="white" stroke-width="3" stroke-linecap="round"/>
<path d="M60.1683 25.0979C67.5748 35.407 65.1261 22.2917 61.9231 23.85C58.907 25.3173 57.275 30.3623 62.0011 30.3623C65.322 30.3623 64.8285 25.7998 61.9231 25.7998C57.8197 25.7998 61.1434 30.8273 63.8339 29.2899C67.2042 27.3641 62.7623 23.1136 60.1877 24.2399C57.5829 25.3795 59.3749 31.0468 62.4495 30.3233C66.0864 29.4676 64.0972 24.7322 62.274 25.6438C61.1922 26.1847 60.61 27.4241 60.9482 28.6075C61.5338 30.6572 63.7345 28.8543 64.7308 28.2565" stroke="white" stroke-width="3" stroke-linecap="round"/>
<path d="M2 99.714C22.8109 100.395 44.1531 92.8599 60.962 80.6839C77.2451 68.8888 89.1858 53.1217 98.4372 35.4095C101.469 29.6048 104.852 23.9639 106.938 17.7443C108.08 14.3423 108.842 10.9459 109.746 7.48834C110.216 5.69076 111.362 0.361477 108.693 2.49683" stroke="white" stroke-width="3" stroke-linecap="round"/>
</svg>
