<svg width="96" height="93" viewBox="0 0 96 93" fill="none" xmlns="http://www.w3.org/2000/svg">
<path d="M35 2H5C4.20435 2 3.44129 2.31607 2.87868 2.87868C2.31607 3.44129 2 4.20435 2 5V35C2 35.7957 2.31607 36.5587 2.87868 37.1213C3.44129 37.6839 4.20435 38 5 38H35C35.7956 38 36.5587 37.6839 37.1213 37.1213C37.6839 36.5587 38 35.7957 38 35V5C38 4.20435 37.6839 3.44129 37.1213 2.87868C36.5587 2.31607 35.7956 2 35 2Z" stroke="black" stroke-width="4"/>
<path d="M12 23H20M16 11L10 29L16 11ZM28 29V21V29ZM28 16V15V16ZM16 11L22 29L16 11Z" stroke="black" stroke-width="4" stroke-linecap="round" stroke-linejoin="round"/>
<rect x="3.5" y="60.5" width="91" height="31" rx="3.5" stroke="black" stroke-width="3" stroke-dasharray="6 6"/>
<path d="M17.3 72.03V79.815H18.095C18.245 79.815 18.32 79.89 18.32 80.04V80.775C18.32 80.925 18.245 81 18.095 81H14.825C14.675 81 14.6 80.925 14.6 80.775V80.04C14.6 79.89 14.675 79.815 14.825 79.815H15.62V72.03H14.825C14.675 72.03 14.6 71.955 14.6 71.805V71.04C14.6 70.89 14.675 70.815 14.825 70.815H18.095C18.245 70.815 18.32 70.89 18.32 71.04V71.805C18.32 71.955 18.245 72.03 18.095 72.03H17.3ZM22.0119 70.035V79.815H22.9569C23.1069 79.815 23.1819 79.89 23.1819 80.04V80.775C23.1819 80.925 23.1069 81 22.9569 81H19.3869C19.2369 81 19.1619 80.925 19.1619 80.775V80.04C19.1619 79.89 19.2369 79.815 19.3869 79.815H20.3319V71.04H19.5219C19.3719 71.04 19.2969 70.965 19.2969 70.815V70.035C19.2969 69.885 19.3719 69.81 19.5219 69.81H21.7869C21.9369 69.81 22.0119 69.885 22.0119 70.035ZM26.4211 70.035V79.815H27.3661C27.5161 79.815 27.5911 79.89 27.5911 80.04V80.775C27.5911 80.925 27.5161 81 27.3661 81H23.7961C23.6461 81 23.5711 80.925 23.5711 80.775V80.04C23.5711 79.89 23.6461 79.815 23.7961 79.815H24.7411V71.04H23.9311C23.7811 71.04 23.7061 70.965 23.7061 70.815V70.035C23.7061 69.885 23.7811 69.81 23.9311 69.81H26.1961C26.3461 69.81 26.4211 69.885 26.4211 70.035ZM35.3902 79.815H36.0502C36.2002 79.815 36.2752 79.89 36.2752 80.04V80.775C36.2752 80.925 36.2002 81 36.0502 81H34.3702C34.2502 81 34.1752 80.925 34.1452 80.775L34.0102 79.935C33.3702 80.765 32.5302 81.18 31.4902 81.18C29.8702 81.18 29.0602 80.33 29.0602 78.63V74.805H28.2652C28.1152 74.805 28.0402 74.73 28.0402 74.58V73.8C28.0402 73.65 28.1152 73.575 28.2652 73.575H30.5152C30.6652 73.575 30.7402 73.65 30.7402 73.8V78.18C30.7402 78.78 30.8152 79.21 30.9652 79.47C31.1252 79.72 31.4552 79.845 31.9552 79.845C32.4652 79.845 32.8852 79.695 33.2152 79.395C33.5452 79.095 33.7102 78.755 33.7102 78.375V74.805H32.7652C32.6152 74.805 32.5402 74.73 32.5402 74.58V73.8C32.5402 73.65 32.6152 73.575 32.7652 73.575H35.1652C35.3152 73.575 35.3902 73.65 35.3902 73.8V79.815ZM37.5597 75.72C37.5597 75.06 37.8147 74.51 38.3247 74.07C38.8347 73.63 39.4797 73.41 40.2597 73.41C41.0397 73.41 41.7147 73.5 42.2847 73.68C42.4247 73.72 42.4947 73.81 42.4947 73.95V75.54C42.4947 75.69 42.4197 75.765 42.2697 75.765H41.3997C41.2397 75.765 41.1747 75.69 41.2047 75.54L41.2797 74.775C40.9797 74.615 40.6497 74.535 40.2897 74.535C39.4897 74.535 39.0897 74.815 39.0897 75.375C39.0897 75.665 39.2197 75.895 39.4797 76.065C39.7397 76.235 40.0547 76.375 40.4247 76.485C40.7947 76.585 41.1647 76.705 41.5347 76.845C41.9147 76.975 42.2347 77.205 42.4947 77.535C42.7547 77.855 42.8847 78.265 42.8847 78.765C42.8847 79.525 42.6197 80.12 42.0897 80.55C41.5597 80.97 40.8147 81.18 39.8547 81.18C39.1847 81.18 38.4797 81.08 37.7397 80.88C37.6097 80.84 37.5447 80.745 37.5447 80.595V79.005C37.5447 78.855 37.6197 78.78 37.7697 78.78H38.6397C38.7897 78.78 38.8597 78.855 38.8497 79.005L38.8047 79.785C39.0747 79.985 39.4597 80.085 39.9597 80.085C40.8497 80.085 41.2947 79.77 41.2947 79.14C41.2947 78.82 41.1647 78.57 40.9047 78.39C40.6547 78.2 40.3447 78.055 39.9747 77.955C39.6147 77.855 39.2497 77.745 38.8797 77.625C38.5097 77.495 38.1947 77.275 37.9347 76.965C37.6847 76.645 37.5597 76.23 37.5597 75.72ZM46.1793 74.805V78.585C46.1793 79.055 46.2393 79.395 46.3593 79.605C46.4793 79.815 46.7043 79.92 47.0343 79.92C47.3643 79.92 47.6843 79.85 47.9943 79.71C48.1043 79.67 48.1843 79.71 48.2343 79.83L48.5043 80.52C48.5143 80.55 48.5193 80.595 48.5193 80.655C48.5193 80.705 48.4693 80.76 48.3693 80.82C47.8893 81.06 47.3193 81.18 46.6593 81.18C45.7693 81.18 45.1843 80.95 44.9043 80.49C44.7043 80.19 44.5893 79.9 44.5593 79.62C44.5193 79.24 44.4993 78.84 44.4993 78.42V74.805H43.6443C43.4943 74.805 43.4193 74.73 43.4193 74.58V73.8C43.4193 73.65 43.4943 73.575 43.6443 73.575H44.4993V71.55C44.4993 71.4 44.5743 71.325 44.7243 71.325H45.9543C46.1043 71.325 46.1793 71.4 46.1793 71.55V73.575H47.6943C47.8443 73.575 47.9193 73.65 47.9193 73.8V74.58C47.9193 74.73 47.8443 74.805 47.6943 74.805H46.1793ZM51.7314 74.865C51.9014 74.465 52.1764 74.125 52.5564 73.845C52.9364 73.555 53.3514 73.41 53.8014 73.41C54.2514 73.41 54.5964 73.45 54.8364 73.53C54.9564 73.57 55.0164 73.66 55.0164 73.8V75.825C55.0164 75.975 54.9414 76.05 54.7914 76.05H53.8164C53.6664 76.05 53.5964 75.975 53.6064 75.825L53.6664 74.955C53.6164 74.945 53.5314 74.94 53.4114 74.94C52.9514 74.94 52.5714 75.13 52.2714 75.51C51.9714 75.88 51.8214 76.38 51.8214 77.01V79.815H53.4714C53.6214 79.815 53.6964 79.89 53.6964 80.04V80.775C53.6964 80.925 53.6214 81 53.4714 81H49.3464C49.1964 81 49.1214 80.925 49.1214 80.775V80.04C49.1214 79.89 49.1964 79.815 49.3464 79.815H50.1414V74.805H49.3314C49.1814 74.805 49.1064 74.73 49.1064 74.58V73.8C49.1064 73.65 49.1814 73.575 49.3314 73.575H51.3114C51.4514 73.575 51.5364 73.65 51.5664 73.8L51.7314 74.865ZM59.9942 76.545V76.02C59.9942 75.31 59.7942 74.865 59.3942 74.685C59.2042 74.605 58.9292 74.565 58.5692 74.565C57.8892 74.565 57.4792 74.885 57.3392 75.525C57.3092 75.675 57.2342 75.75 57.1142 75.75H56.1542C55.9942 75.75 55.9242 75.675 55.9442 75.525C55.9842 74.795 56.2792 74.26 56.8292 73.92C57.3792 73.58 58.0792 73.41 58.9292 73.41C60.7192 73.41 61.6142 74.23 61.6142 75.87V79.815H62.2592C62.4092 79.815 62.4842 79.89 62.4842 80.04V80.775C62.4842 80.925 62.4092 81 62.2592 81H60.4892C60.3592 81 60.2842 80.925 60.2642 80.775L60.1592 80.085C59.6192 80.815 58.8392 81.18 57.8192 81.18C57.1792 81.18 56.6492 81.015 56.2292 80.685C55.8092 80.345 55.5992 79.805 55.5992 79.065C55.5992 78.095 56.0042 77.43 56.8142 77.07C57.4842 76.76 58.2842 76.59 59.2142 76.56C59.4042 76.56 59.6642 76.555 59.9942 76.545ZM60.0242 78.735V77.58C59.0642 77.58 58.4742 77.625 58.2542 77.715C58.0342 77.805 57.8392 77.895 57.6692 77.985C57.3492 78.155 57.1892 78.465 57.1892 78.915C57.1892 79.605 57.5842 79.95 58.3742 79.95C58.8942 79.95 59.2992 79.83 59.5892 79.59C59.8792 79.34 60.0242 79.055 60.0242 78.735ZM65.6325 74.805V78.585C65.6325 79.055 65.6925 79.395 65.8125 79.605C65.9325 79.815 66.1575 79.92 66.4875 79.92C66.8175 79.92 67.1375 79.85 67.4475 79.71C67.5575 79.67 67.6375 79.71 67.6875 79.83L67.9575 80.52C67.9675 80.55 67.9725 80.595 67.9725 80.655C67.9725 80.705 67.9225 80.76 67.8225 80.82C67.3425 81.06 66.7725 81.18 66.1125 81.18C65.2225 81.18 64.6375 80.95 64.3575 80.49C64.1575 80.19 64.0425 79.9 64.0125 79.62C63.9725 79.24 63.9525 78.84 63.9525 78.42V74.805H63.0975C62.9475 74.805 62.8725 74.73 62.8725 74.58V73.8C62.8725 73.65 62.9475 73.575 63.0975 73.575H63.9525V71.55C63.9525 71.4 64.0275 71.325 64.1775 71.325H65.4075C65.5575 71.325 65.6325 71.4 65.6325 71.55V73.575H67.1475C67.2975 73.575 67.3725 73.65 67.3725 73.8V74.58C67.3725 74.73 67.2975 74.805 67.1475 74.805H65.6325ZM68.7096 77.4C68.7096 76.65 68.8246 76 69.0546 75.45C69.2846 74.9 69.5846 74.485 69.9546 74.205C70.6646 73.675 71.4346 73.41 72.2646 73.41C72.8746 73.41 73.3896 73.505 73.8096 73.695C74.2296 73.885 74.5546 74.105 74.7846 74.355C75.0246 74.605 75.2246 74.965 75.3846 75.435C75.5546 75.905 75.6396 76.455 75.6396 77.085C75.6396 78.425 75.2996 79.445 74.6196 80.145C73.9496 80.835 73.0896 81.18 72.0396 81.18C70.9896 81.18 70.1696 80.865 69.5796 80.235C68.9996 79.595 68.7096 78.65 68.7096 77.4ZM72.1596 79.95C72.7596 79.95 73.1946 79.73 73.4646 79.29C73.7446 78.84 73.8846 78.175 73.8846 77.295C73.8846 76.415 73.7446 75.755 73.4646 75.315C73.1946 74.865 72.7496 74.64 72.1296 74.64C70.9796 74.64 70.4046 75.45 70.4046 77.07C70.4046 78.99 70.9896 79.95 72.1596 79.95ZM79.168 74.865C79.338 74.465 79.613 74.125 79.993 73.845C80.373 73.555 80.788 73.41 81.238 73.41C81.688 73.41 82.033 73.45 82.273 73.53C82.393 73.57 82.453 73.66 82.453 73.8V75.825C82.453 75.975 82.378 76.05 82.228 76.05H81.253C81.103 76.05 81.033 75.975 81.043 75.825L81.103 74.955C81.053 74.945 80.968 74.94 80.848 74.94C80.388 74.94 80.008 75.13 79.708 75.51C79.408 75.88 79.258 76.38 79.258 77.01V79.815H80.908C81.058 79.815 81.133 79.89 81.133 80.04V80.775C81.133 80.925 81.058 81 80.908 81H76.783C76.633 81 76.558 80.925 76.558 80.775V80.04C76.558 79.89 76.633 79.815 76.783 79.815H77.578V74.805H76.768C76.618 74.805 76.543 74.73 76.543 74.58V73.8C76.543 73.65 76.618 73.575 76.768 73.575H78.748C78.888 73.575 78.973 73.65 79.003 73.8L79.168 74.865Z" fill="#626262"/>
</svg>
