<svg width="388" height="407" viewBox="0 0 388 407" fill="none" xmlns="http://www.w3.org/2000/svg">
<path fill-rule="evenodd" clip-rule="evenodd" d="M299.141 203.099L299.397 204.171L300.141 205.259L301.344 206.376L302.98 207.534L305.027 208.748L307.464 210.026L310.272 211.381L313.431 212.822L316.918 214.359L320.71 215.998L324.777 217.748L329.089 219.612L333.608 221.594L338.291 223.694L343.09 225.912L347.95 228.243L352.811 230.679L357.609 233.209L362.273 235.818L366.733 238.49L370.915 241.203L374.747 243.933L378.16 246.654L381.088 249.337L383.476 251.954L385.276 254.477L386.451 256.875L386.978 259.125L386.847 261.201L386.06 263.085L384.635 264.76L382.602 266.215L380 267.445L376.882 268.448L373.304 269.228L369.33 269.793L365.027 270.155L360.463 270.329L355.705 270.332L350.817 270.185L345.86 269.909L340.889 269.525L335.957 269.055L331.106 268.521L326.376 267.941L321.799 267.337L317.401 266.727L313.205 266.126L309.227 265.551L305.479 265.015L301.97 264.532L298.704 264.112L295.686 263.767L292.914 263.505L290.389 263.335L288.108 263.265L286.066 263.301L284.26 263.452L282.686 263.723L281.338 264.121L280.212 264.653L279.302 265.323L278.603 266.139L278.112 267.107L277.823 268.234L277.732 269.526L277.835 270.989L278.126 272.631L278.602 274.458L279.258 276.476L280.088 278.691L281.086 281.109L282.245 283.734L283.556 286.569L285.011 289.616L286.598 292.876L288.304 296.345L290.113 300.019L292.008 303.889L293.967 307.942L295.967 312.163L297.981 316.528L299.98 321.013L301.932 325.584L303.801 330.204L305.551 334.83L307.144 339.414L308.541 343.903L309.702 348.24L310.593 352.366L311.177 356.222L311.424 359.749L311.31 362.888L310.814 365.589L309.925 367.805L308.639 369.499L306.959 370.641L304.899 371.216L302.479 371.217L299.726 370.651L296.675 369.538L293.365 367.905L289.841 365.792L286.147 363.248L282.331 360.327L278.438 357.088L274.512 353.593L270.596 349.905L266.728 346.087L262.939 342.2L259.261 338.3L255.716 334.441L252.324 330.672L249.101 327.036L246.057 323.573L243.2 320.319L240.533 317.303L238.059 314.554L235.777 312.096L233.684 309.952L231.776 308.145L230.051 306.696L228.502 305.63L227.126 304.971L225.917 304.75L224.873 305.001L223.98 305.736L223.217 306.933L222.56 308.567L221.991 310.619L221.491 313.074L221.044 315.916L220.634 319.128L220.244 322.695L219.861 326.596L219.469 330.812L219.052 335.314L218.597 340.074L218.09 345.054L217.515 350.211L216.86 355.498L216.113 360.859L215.263 366.232L214.301 371.55L213.219 376.742L212.015 381.734L210.685 386.447L209.232 390.808L207.659 394.743L205.976 398.185L204.192 401.072L202.322 403.355L200.382 404.994L198.391 405.963L196.367 406.249L194.33 405.855L192.302 404.797L190.3 403.103L188.344 400.814L186.448 397.982L184.627 394.664L182.892 390.925L181.251 386.834L179.709 382.459L178.27 377.87L176.933 373.133L175.697 368.312L174.559 363.464L173.512 358.641L172.549 353.892L171.663 349.257L170.845 344.771L170.086 340.463L169.376 336.357L168.706 332.472L168.066 328.822L167.447 325.419L166.84 322.27L166.236 319.38L165.626 316.752L165.001 314.386L164.355 312.282L163.678 310.439L162.963 308.856L162.202 307.528L161.388 306.454L160.514 305.631L159.571 305.056L158.553 304.726L157.451 304.639L156.259 304.793L154.969 305.186L153.572 305.815L152.061 306.678L150.429 307.773L148.669 309.097L146.772 310.646L144.732 312.416L142.543 314.401L140.2 316.593L137.697 318.984L135.033 321.562L132.206 324.313L129.217 327.219L126.069 330.259L122.769 333.409L119.326 336.638L115.755 339.915L112.072 343.2L108.301 346.453L104.467 349.626L100.601 352.672L96.7394 355.536L92.9214 358.167L89.1897 360.509L85.5897 362.511L82.1681 364.121L78.9717 365.294L76.0462 365.992L73.4342 366.181L71.1743 365.84L69.299 364.957L67.8336 363.531L66.7956 361.572L66.1934 359.101L66.0262 356.151L66.2841 352.763L66.9485 348.986L67.9926 344.876L69.383 340.491L71.0806 335.894L73.0418 331.147L75.2207 326.311L77.5697 321.442L80.041 316.596L82.5879 311.821L85.1657 307.16L87.7321 302.651L90.2476 298.326L92.6762 294.21L94.9848 290.325L97.1436 286.686L99.1253 283.306L100.905 280.195L102.459 277.357L103.765 274.798L104.801 272.521L105.545 270.528L105.971 268.822L106.053 267.408L105.76 266.291L105.059 265.477L103.947 264.948L102.443 264.674L100.56 264.629L98.3095 264.788L95.7011 265.131L92.7446 265.636L89.4503 266.284L85.8298 267.055L81.8973 267.928L77.6702 268.883L73.1701 269.895L68.4234 270.942L63.4622 271.998L58.3247 273.036L53.0553 274.028L47.7051 274.946L42.3311 275.76L36.9962 276.44L31.7675 276.959L26.7159 277.289L21.9138 277.407L17.4333 277.292L13.3441 276.927L9.71128 276.301L6.5931 275.406L4.03877 274.243L2.08675 272.817L0.763372 271.139L0.0819142 269.226L0.0422613 267.098L0.631133 264.781L1.82285 262.303L3.58056 259.695L5.85791 256.987L8.6009 254.21L11.75 251.394L15.242 248.569L19.0124 245.758L22.9969 242.987L27.133 240.274L31.3615 237.635L35.6274 235.085L39.8803 232.633L44.0753 230.286L48.1729 228.048L52.139 225.921L55.9447 223.905L59.5661 221.997L62.9835 220.194L66.1814 218.49L69.1476 216.881L71.8731 215.359L74.3512 213.918L76.5773 212.549L78.5484 211.245L80.2627 209.998L81.7193 208.801L82.9181 207.644L83.859 206.521L84.5424 205.422L84.9687 204.341L85.138 203.269L85.0505 202.198L84.7061 201.121L84.1046 200.029L83.2458 198.914L82.1292 197.769L80.7547 196.585L79.1224 195.355L77.233 194.07L75.0878 192.723L72.6896 191.306L70.0423 189.81L67.1519 188.229L64.0266 186.557L60.6776 184.786L57.1193 182.912L53.3699 180.93L49.4519 178.839L45.3928 176.636L41.2248 174.324L36.9857 171.904L32.7188 169.384L28.4726 166.773L24.3008 164.082L20.2614 161.327L16.4159 158.527L12.8281 155.703L9.56286 152.881L6.68385 150.089L4.25201 147.356L2.32334 144.712L0.946849 142.189L0.162605 139.818L0 137.627L0.476373 135.643L1.59608 133.888L3.35011 132.38L5.7162 131.133L8.65965 130.152L12.1344 129.441L16.0851 128.994L20.4483 128.8L25.1558 128.846L30.1358 129.112L35.3158 129.573L40.6244 130.205L45.993 130.979L51.3573 131.867L56.6582 132.839L61.8429 133.865L66.8647 134.919L71.6835 135.971L76.2653 136.997L80.5819 137.973L84.6103 138.874L88.3319 139.68L91.7314 140.369L94.7967 140.922L97.517 141.319L99.8828 141.539L101.884 141.561L103.51 141.363L104.748 140.918L105.582 140.198L106.002 139.177L106.036 137.857L105.716 136.244L105.071 134.342L104.126 132.155L102.903 129.686L101.425 126.936L99.7152 123.911L97.7953 120.616L95.6901 117.059L93.4261 113.251L91.0322 109.206L88.5407 104.945L85.9864 100.491L83.4078 95.8749L80.8462 91.1317L78.3458 86.3032L75.9528 81.4364L73.7145 76.5836L71.6788 71.8015L69.8924 67.1501L68.3997 62.6912L67.2413 58.4868L66.4528 54.5975L66.063 51.0799L66.0932 47.9856L66.5564 45.3584L67.456 43.2335L68.7867 41.6357L70.5338 40.5792L72.6745 40.0664L75.1782 40.0889L78.0083 40.6274L81.1233 41.6531L84.4782 43.1288L88.0265 45.0109L91.7213 47.2503L95.5166 49.7949L99.3687 52.5909L103.237 55.5843L107.085 58.7225L110.88 61.9551L114.593 65.2349L118.202 68.5186L121.687 71.767L125.034 74.9453L128.231 78.0231L131.271 80.9743L134.15 83.7765L136.866 86.4113L139.42 88.8633L141.814 91.1203L144.051 93.1722L146.138 95.0111L148.08 96.631L149.883 98.0269L151.555 99.1951L153.103 100.132L154.535 100.836L155.859 101.305L157.082 101.535L158.211 101.525L159.255 101.273L160.221 100.776L161.117 100.033L161.949 99.0387L162.726 97.7922L163.454 96.2902L164.143 94.5301L164.798 92.5099L165.429 90.2277L166.042 87.6829L166.648 84.876L167.253 81.809L167.867 78.4861L168.499 74.9141L169.158 71.1026L169.855 67.065L170.597 62.8189L171.395 58.3866L172.259 53.7954L173.196 49.0785L174.216 44.2748L175.324 39.4294L176.529 34.5932L177.833 29.8228L179.239 25.1797L180.749 20.7294L182.359 16.5403L184.065 12.6819L185.86 9.22275L187.733 6.2288L189.671 3.76087L191.66 1.87252L193.682 0.607922L195.718 0L197.748 0.0689255L199.753 0.821116L201.711 2.24878L203.605 4.33008L205.418 7.02984L207.135 10.3009L208.743 14.0857L210.235 18.3187L211.605 22.9284L212.849 27.8395L213.969 32.9759L214.969 38.262L215.854 43.6251L216.633 48.9966L217.315 54.3132L217.914 59.5177L218.442 64.559L218.912 69.3929L219.339 73.981L219.738 78.2909L220.122 82.2951L220.508 85.9706L220.91 89.2976L221.344 92.2589L221.825 94.8387L222.37 97.0213L222.997 98.7907L223.724 100.129L224.573 101.014L225.567 101.42L226.723 101.346L228.045 100.823L229.538 99.8834L231.207 98.5539L233.056 96.8584L235.09 94.8194L237.311 92.459L239.724 89.7999L242.33 86.8662L245.126 83.6845L248.112 80.2846L251.279 76.7001L254.618 72.9687L258.116 69.1332L261.754 65.2407L265.511 61.3432L269.357 57.4967L273.262 53.7609L277.189 50.1977L281.097 46.8702L284.943 43.8411L288.68 41.1707L292.264 38.9153L295.647 37.125L298.784 35.8421L301.636 35.0994L304.166 34.9188L306.344 35.3107L308.146 36.2736L309.558 37.794L310.574 39.8472L311.194 42.3983L311.428 45.4038L311.293 48.813L310.814 52.5705L310.017 56.6174L308.938 60.8938L307.612 65.3404L306.077 69.8997L304.373 74.5177L302.538 79.1446L300.608 83.7358L298.621 88.2517L296.608 92.6585L294.601 96.9278L292.626 101.037L290.709 104.966L288.87 108.704L287.13 112.239L285.503 115.566L284.005 118.681L282.646 121.583L281.438 124.275L280.388 126.758L279.504 129.037L278.792 131.117L278.258 133.004L277.907 134.704L277.744 136.224L277.773 137.57L277.998 138.748L278.424 139.766L279.056 140.63L279.898 141.346L280.955 141.921L282.232 142.361L283.734 142.672L285.466 142.86L287.431 142.933L289.636 142.896L292.083 142.757L294.776 142.523L297.716 142.203L300.903 141.806L304.335 141.342L308.008 140.822L311.914 140.258L316.042 139.664L320.378 139.055L324.9 138.446L329.585 137.857L334.401 137.306L339.312 136.813L344.275 136.399L349.242 136.087L354.159 135.896L358.966 135.85L363.599 135.967L367.992 136.267L372.078 136.766L375.789 137.477L379.06 138.408L381.832 139.566L384.052 140.95L385.674 142.556L386.667 144.374L387.008 146.391L386.69 148.588L385.72 150.942L384.115 153.428L381.91 156.018L379.148 158.683L375.883 161.395L372.177 164.125L368.099 166.846L363.72 169.534L359.112 172.165L354.35 174.722L349.501 177.189L344.634 179.554L339.81 181.809L335.084 183.947L330.508 185.967L326.126 187.868L321.977 189.654L318.094 191.328L314.507 192.896L311.241 194.367L308.319 195.748L305.762 197.05L303.588 198.283L301.819 199.458L300.476 200.586L299.583 201.682L299.168 202.758L299.141 203.099Z" fill="#D2E23D"/>
</svg>
