<svg width="302" height="347" viewBox="0 0 302 347" fill="none" xmlns="http://www.w3.org/2000/svg">
<path fill-rule="evenodd" clip-rule="evenodd" d="M172.845 173.527L172.885 173.757L173.004 173.989L173.201 174.226L173.477 174.47L173.832 174.724L174.268 174.99L174.788 175.271L175.393 175.57L176.088 175.889L176.877 176.233L177.764 176.603L178.755 177.005L179.855 177.441L181.073 177.917L182.414 178.438L183.886 179.008L185.499 179.634L187.26 180.321L189.179 181.076L191.265 181.906L193.527 182.818L195.976 183.822L198.62 184.925L201.469 186.136L204.529 187.463L207.808 188.917L211.31 190.506L215.038 192.239L218.993 194.125L223.17 196.169L227.563 198.379L232.159 200.758L236.942 203.309L241.887 206.031L246.966 208.92L252.142 211.968L257.372 215.164L262.605 218.492L267.785 221.929L272.849 225.449L277.729 229.021L282.353 232.608L286.649 236.169L290.544 239.661L293.966 243.037L296.851 246.247L299.14 249.246L300.783 251.985L301.745 254.423L302 256.52L301.539 258.246L300.367 259.576L298.504 260.493L295.983 260.99L292.851 261.067L289.163 260.735L284.987 260.012L280.392 258.921L275.453 257.494L270.248 255.766L264.85 253.776L259.332 251.563L253.759 249.168L248.195 246.631L242.692 243.991L237.298 241.284L232.051 238.543L226.985 235.797L222.123 233.074L217.484 230.396L213.081 227.78L208.922 225.244L205.008 222.798L201.339 220.453L197.911 218.215L194.717 216.089L191.75 214.076L188.999 212.177L186.454 210.393L184.103 208.721L181.936 207.159L179.94 205.703L178.104 204.35L176.416 203.096L174.868 201.937L173.447 200.869L172.145 199.887L170.952 198.987L169.861 198.166L168.862 197.42L167.95 196.745L167.117 196.137L166.356 195.595L165.664 195.114L165.033 194.693L164.46 194.33L163.941 194.022L163.47 193.768L163.046 193.566L162.664 193.416L162.322 193.317L162.018 193.268L161.748 193.27L161.512 193.322L161.306 193.426L161.13 193.581L160.982 193.789L160.86 194.053L160.764 194.372L160.693 194.751L160.646 195.19L160.621 195.695L160.619 196.267L160.638 196.912L160.679 197.632L160.74 198.434L160.822 199.323L160.923 200.304L161.044 201.385L161.184 202.573L161.342 203.874L161.518 205.299L161.712 206.855L161.921 208.553L162.145 210.402L162.384 212.413L162.634 214.597L162.895 216.967L163.163 219.533L163.437 222.306L163.712 225.3L163.985 228.524L164.252 231.988L164.506 235.701L164.743 239.671L164.955 243.901L165.135 248.394L165.275 253.147L165.367 258.154L165.399 263.404L165.363 268.878L165.248 274.554L165.044 280.399L164.741 286.375L164.33 292.435L163.801 298.522L163.149 304.576L162.367 310.525L161.452 316.293L160.405 321.8L159.229 326.963L157.929 331.696L156.514 335.92L154.998 339.555L153.396 342.534L151.728 344.796L150.014 346.296L148.278 347L146.542 346.893L144.832 345.975L143.17 344.264L141.579 341.793L140.078 338.609L138.685 334.773L137.412 330.356L136.271 325.437L135.269 320.098L134.408 314.425L133.688 308.502L133.108 302.412L132.661 296.231L132.34 290.029L132.135 283.871L132.037 277.812L132.033 271.898L132.112 266.169L132.263 260.655L132.475 255.379L132.736 250.359L133.038 245.605L133.369 241.123L133.723 236.913L134.092 232.972L134.469 229.296L134.848 225.876L135.225 222.702L135.595 219.764L135.954 217.05L136.301 214.547L136.631 212.244L136.944 210.129L137.238 208.189L137.511 206.413L137.763 204.79L137.992 203.31L138.198 201.964L138.381 200.741L138.539 199.635L138.672 198.637L138.78 197.741L138.862 196.94L138.918 196.229L138.946 195.603L138.946 195.059L138.917 194.591L138.857 194.199L138.765 193.878L138.638 193.628L138.476 193.449L138.275 193.338L138.032 193.296L137.747 193.319L137.418 193.407L137.041 193.56L136.615 193.776L136.136 194.056L135.601 194.401L135.005 194.813L134.343 195.293L133.611 195.843L132.803 196.466L131.912 197.165L130.932 197.944L129.855 198.806L128.673 199.755L127.378 200.795L125.959 201.931L124.407 203.167L122.71 204.509L120.859 205.96L118.842 207.524L116.645 209.207L114.259 211.011L111.67 212.939L108.867 214.992L105.84 217.171L102.578 219.475L99.0743 221.901L95.3228 224.443L91.3204 227.093L87.0678 229.84L82.5696 232.67L77.8356 235.564L72.8812 238.501L67.7282 241.456L62.4054 244.397L56.9488 247.291L51.4021 250.102L45.8165 252.789L40.2504 255.31L34.7685 257.622L29.4408 259.681L24.3413 261.445L19.5455 262.876L15.1289 263.937L11.1641 264.6L7.71887 264.842L4.85304 264.648L2.61672 264.014L1.04818 262.941L0.172365 261.443L0 259.542L0.527243 257.266L1.736 254.654L3.59483 251.746L6.06039 248.589L9.0793 245.233L12.5903 241.726L16.5266 238.117L20.8181 234.454L25.3939 230.78L30.1842 227.135L35.1218 223.553L40.144 220.065L45.1934 216.694L50.2187 213.462L55.1753 210.382L60.025 207.465L64.7364 204.717L69.2841 202.141L73.6488 199.737L77.8163 197.502L81.7771 195.431L85.5259 193.518L89.0608 191.756L92.3828 190.136L95.495 188.65L98.4029 187.289L101.113 186.044L103.632 184.907L105.97 183.867L108.135 182.919L110.135 182.052L111.98 181.262L113.678 180.539L115.239 179.879L116.67 179.274L117.979 178.72L119.173 178.211L120.26 177.743L121.246 177.311L122.137 176.912L122.938 176.542L123.654 176.197L124.29 175.874L124.849 175.571L125.336 175.285L125.752 175.013L126.102 174.753L126.387 174.503L126.609 174.261L126.769 174.025L126.868 173.794L126.907 173.564L126.887 173.334L126.807 173.103L126.666 172.868L126.464 172.629L126.2 172.382L125.871 172.125L125.476 171.858L125.012 171.576L124.476 171.279L123.865 170.963L123.175 170.625L122.401 170.263L121.54 169.873L120.585 169.452L119.531 168.996L118.371 168.501L117.1 167.962L115.708 167.374L114.19 166.732L112.536 166.03L110.739 165.262L108.789 164.42L106.678 163.499L104.396 162.489L101.936 161.384L99.2872 160.174L96.4432 158.85L93.3967 157.405L90.142 155.829L86.6751 154.113L82.9944 152.249L79.1007 150.229L74.9982 148.047L70.695 145.697L66.2038 143.176L61.5421 140.483L56.7333 137.619L51.807 134.591L46.799 131.405L41.752 128.077L36.7152 124.624L31.7441 121.069L26.8998 117.44L22.2482 113.771L17.8584 110.1L13.8013 106.469L10.1473 102.925L6.96473 99.5148L4.3167 96.2892L2.25938 93.297L0.839545 90.5854L0.092595 88.1984L0.0410042 86.1743L0.693217 84.5452L2.04315 83.3352L4.0703 82.5601L6.74052 82.2261L10.0073 82.3305L13.8136 82.8615L18.094 83.7989L22.7771 85.1154L27.7881 86.7776L33.0512 88.7473L38.4918 90.9833L44.0384 93.4424L49.6245 96.0812L55.1895 98.857L60.6799 101.729L66.0496 104.659L71.2602 107.612L76.2805 110.558L81.0866 113.468L85.6612 116.321L89.9928 119.096L94.0752 121.779L97.9065 124.356L101.489 126.819L104.826 129.163L107.927 131.382L110.801 133.475L113.457 135.443L115.906 137.286L118.162 139.007L120.235 140.609L122.138 142.095L123.882 143.471L125.479 144.741L126.939 145.908L128.273 146.978L129.49 147.956L130.6 148.845L131.61 149.65L132.528 150.374L133.362 151.021L134.118 151.594L134.801 152.096L135.418 152.529L135.972 152.895L136.469 153.196L136.911 153.433L137.303 153.605L137.647 153.714L137.946 153.758L138.202 153.737L138.416 153.648L138.591 153.491L138.728 153.263L138.831 152.965L138.901 152.596L138.94 152.153L138.949 151.633L138.93 151.033L138.883 150.35L138.809 149.579L138.709 148.713L138.584 147.748L138.434 146.677L138.259 145.493L138.06 144.187L137.838 142.751L137.594 141.174L137.328 139.448L137.04 137.562L136.733 135.504L136.408 133.262L136.066 130.824L135.711 128.179L135.344 125.313L134.969 122.216L134.59 118.875L134.212 115.281L133.84 111.426L133.48 107.302L133.14 102.906L132.829 98.2384L132.553 93.3023L132.325 88.1069L132.153 82.6667L132.05 77.003L132.026 71.1442L132.093 65.1264L132.263 58.9942L132.546 52.8001L132.952 46.605L133.489 40.4775L134.163 34.4927L134.979 28.731L135.937 23.2764L137.034 18.2142L138.266 13.6285L139.622 9.59968L141.091 6.20111L142.655 3.49691L144.296 1.53922L145.994 0.366099L147.724 0L149.462 0.44681L151.186 1.69565L152.871 3.71936L154.496 6.47572L156.042 9.90922L157.49 13.9534L158.828 18.5332L160.045 23.5681L161.133 28.9745L162.09 34.6686L162.914 40.5685L163.607 46.5967L164.175 52.6808L164.622 58.7557L164.959 64.7637L165.193 70.6552L165.335 76.3886L165.395 81.9302L165.384 87.2536L165.31 92.3395L165.185 97.1745L165.016 101.751L164.813 106.064L164.584 110.117L164.334 113.911L164.071 117.454L163.799 120.753L163.524 123.819L163.25 126.661L162.979 129.292L162.716 131.723L162.462 133.965L162.22 136.03L161.991 137.93L161.777 139.674L161.578 141.274L161.397 142.74L161.233 144.08L161.087 145.303L160.96 146.417L160.852 147.429L160.764 148.347L160.696 149.176L160.649 149.922L160.623 150.59L160.618 151.185L160.635 151.71L160.675 152.17L160.739 152.568L160.827 152.906L160.94 153.187L161.08 153.413L161.247 153.585L161.443 153.705L161.669 153.773L161.928 153.791L162.221 153.758L162.551 153.675L162.92 153.542L163.33 153.357L163.786 153.119L164.289 152.829L164.845 152.483L165.456 152.08L166.129 151.619L166.867 151.097L167.676 150.51L168.563 149.857L169.533 149.134L170.594 148.337L171.754 147.463L173.02 146.507L174.402 145.467L175.909 144.337L177.551 143.114L179.338 141.793L181.282 140.371L183.394 138.843L185.685 137.206L188.167 135.458L190.851 133.596L193.748 131.619L196.868 129.529L200.221 127.326L203.813 125.014L207.648 122.6L211.73 120.091L216.056 117.499L220.62 114.839L225.413 112.128L230.416 109.387L235.609 106.642L240.96 103.92L246.433 101.255L251.983 98.6813L257.559 96.2367L263.102 93.9612L268.546 91.8952L273.821 90.0794L278.852 88.5527L283.565 87.3516L287.883 86.5082L291.733 86.0492L295.049 85.9948L297.77 86.3573L299.847 87.1408L301.242 88.3403L301.931 89.9423L301.904 91.9249L301.165 94.2582L299.735 96.9059L297.647 99.8266L294.947 102.975L291.689 106.303L287.937 109.763L283.761 113.307L279.233 116.891L274.427 120.472L269.414 124.012L264.264 127.479L259.041 130.843L253.804 134.083L248.606 137.18L243.492 140.121L238.501 142.897L233.663 145.502L229.006 147.936L224.547 150.2L220.3 152.296L216.274 154.231L212.473 156.012L208.899 157.646L205.549 159.142L202.42 160.509L199.505 161.756L196.797 162.892L194.287 163.926L191.966 164.867L189.824 165.723L187.854 166.501L186.043 167.209L184.384 167.853L182.868 168.44L181.486 168.976L180.23 169.466L179.093 169.915L178.068 170.327L177.148 170.707L176.329 171.058L175.605 171.385L174.971 171.69L174.425 171.976L173.962 172.247L173.581 172.504L173.28 172.751L173.058 172.99L172.914 173.224L172.849 173.454L172.845 173.527Z" fill="#D2E23D"/>
</svg>
