<svg width="333" height="224" viewBox="0 0 333 224" fill="none" xmlns="http://www.w3.org/2000/svg">
<path fill-rule="evenodd" clip-rule="evenodd" d="M330.397 343.585L330.4 346.762L330.316 349.938L330.143 353.112L329.882 356.279L329.533 359.439L329.097 362.588L328.574 365.726L327.966 368.849L327.273 371.956L326.496 375.045L325.637 378.113L324.698 381.159L323.678 384.181L322.582 387.177L321.409 390.145L320.163 393.084L318.844 395.992L317.456 398.869L316.001 401.712L314.48 404.52L312.896 407.292L311.252 410.028L309.55 412.726L307.793 415.385L305.983 418.006L304.122 420.586L302.214 423.126L300.261 425.626L298.265 428.084L296.229 430.501L294.156 432.877L292.048 435.212L289.907 437.506L287.737 439.758L285.538 441.969L283.314 444.14L281.066 446.271L278.797 448.361L276.509 450.412L274.202 452.424L271.88 454.397L269.544 456.332L267.194 458.229L264.833 460.089L262.461 461.912L260.08 463.698L257.69 465.448L255.292 467.162L252.888 468.841L250.478 470.484L248.062 472.093L245.642 473.667L243.217 475.207L240.789 476.713L238.357 478.185L235.923 479.624L233.486 481.029L231.048 482.401L228.607 483.741L226.165 485.048L223.722 486.322L221.278 487.563L218.833 488.773L216.388 489.949L213.942 491.094L211.496 492.206L209.05 493.286L206.604 494.333L204.159 495.349L201.714 496.332L199.269 497.282L196.826 498.201L194.383 499.087L191.942 499.941L189.502 500.763L187.065 501.553L184.629 502.31L182.196 503.036L179.766 503.73L177.338 504.392L174.915 505.023L172.495 505.623L170.08 506.191L167.669 506.73L165.263 507.238L162.864 507.717L160.47 508.166L158.083 508.587L155.703 508.98L153.331 509.345L150.967 509.684L148.612 509.997L146.266 510.286L143.93 510.55L141.603 510.791L139.287 511.01L136.982 511.208L134.688 511.385L132.406 511.544L130.136 511.685L127.878 511.809L125.632 511.918L123.399 512.012L121.179 512.094L118.972 512.164L116.778 512.223L114.597 512.273L112.429 512.316L110.274 512.353L108.132 512.384L106.003 512.412L103.887 512.438L101.782 512.463L99.6898 512.489L97.609 512.516L95.5392 512.547L93.4799 512.583L91.4308 512.625L89.391 512.673L87.36 512.731L85.337 512.798L83.3212 512.876L81.3119 512.966L79.308 513.069L77.3088 513.186L75.3133 513.319L73.3203 513.467L71.3289 513.632L69.3379 513.815L67.3463 514.016L65.3528 514.237L63.3562 514.476L61.3553 514.736L59.3489 515.016L57.3357 515.317L55.3144 515.639L53.2837 515.983L51.2422 516.348L49.1887 516.734L47.1219 517.141L45.0403 517.569L42.9427 518.017L40.8279 518.486L38.6944 518.974L36.5412 519.482L34.3669 520.007L32.1704 520.549L29.9506 521.108L27.7062 521.682L25.4364 522.271L23.14 522.871L20.8162 523.484L18.4641 524.106L16.0828 524.736L13.6716 525.373L11.2299 526.016L8.75702 526.661L6.25253 527.308L3.716 527.954L1.14709 528.597L-1.45447 529.236L-4.08875 529.868L-6.75586 530.491L-9.45572 531.102L-12.1882 531.701L-14.953 532.283L-17.7499 532.848L-20.5784 533.392L-23.4379 533.913L-26.3277 534.41L-29.2473 534.879L-32.1956 535.319L-35.1719 535.727L-38.1749 536.1L-41.2038 536.438L-44.2571 536.737L-47.3337 536.995L-50.4322 537.21L-53.5511 537.38L-56.689 537.504L-59.8442 537.579L-63.0154 537.604L-66.2009 537.577L-69.3993 537.498L-72.6091 537.364L-75.829 537.175L-79.0574 536.93L-82.293 536.628L-85.5345 536.269L-88.7806 535.852L-92.0301 535.377L-95.2816 534.843L-98.5341 534.25L-101.786 533.599L-105.037 532.889L-108.286 532.119L-111.532 531.292L-114.773 530.405L-118.009 529.46L-121.239 528.457L-124.462 527.396L-127.678 526.277L-130.885 525.101L-134.083 523.868L-137.27 522.579L-140.448 521.233L-143.613 519.831L-146.767 518.374L-149.908 516.862L-153.035 515.295L-156.149 513.674L-159.247 511.999L-162.329 510.269L-165.395 508.486L-168.444 506.65L-171.474 504.761L-174.486 502.819L-177.477 500.825L-180.447 498.778L-183.395 496.678L-186.319 494.527L-189.219 492.323L-192.093 490.068L-194.939 487.76L-197.756 485.401L-200.542 482.989L-203.297 480.527L-206.017 478.013L-208.702 475.448L-211.351 472.832L-213.962 470.166L-216.533 467.45L-219.063 464.685L-221.551 461.871L-223.996 459.009L-226.396 456.099L-228.75 453.143L-231.057 450.141L-233.316 447.094L-235.526 444.003L-237.686 440.868L-239.796 437.69L-241.853 434.471L-243.858 431.212L-245.809 427.913L-247.707 424.575L-249.55 421.2L-251.337 417.789L-253.069 414.342L-254.745 410.861L-256.365 407.346L-257.927 403.8L-259.432 400.222L-260.88 396.615L-262.269 392.979L-263.601 389.315L-264.875 385.625L-266.09 381.909L-267.246 378.169L-268.344 374.406L-269.383 370.62L-270.363 366.813L-271.284 362.986L-272.147 359.14L-272.949 355.275L-273.693 351.394L-274.378 347.497L-275.002 343.585L-275.568 339.658L-276.073 335.719L-276.52 331.768L-276.906 327.806L-277.234 323.834L-277.503 319.853L-277.713 315.864L-277.866 311.868L-277.961 307.865L-278 303.857L-277.983 299.844L-277.91 295.828L-277.782 291.808L-277.6 287.785L-277.364 283.761L-277.075 279.735L-276.734 275.709L-276.341 271.683L-275.897 267.657L-275.402 263.633L-274.856 259.61L-274.261 255.59L-273.616 251.572L-272.921 247.558L-272.177 243.547L-271.384 239.541L-270.543 235.54L-269.653 231.545L-268.714 227.556L-267.726 223.573L-266.69 219.598L-265.606 215.63L-264.472 211.672L-263.29 207.722L-262.058 203.783L-260.777 199.854L-259.448 195.937L-258.068 192.032L-256.639 188.14L-255.161 184.262L-253.632 180.398L-252.054 176.549L-250.426 172.716L-248.748 168.901L-247.02 165.102L-245.243 161.322L-243.416 157.561L-241.54 153.82L-239.614 150.099L-237.639 146.4L-235.615 142.723L-233.541 139.069L-231.418 135.439L-229.245 131.834L-227.023 128.256L-224.751 124.704L-222.429 121.181L-220.058 117.686L-217.637 114.223L-215.167 110.79L-212.647 107.391L-210.077 104.025L-207.458 100.695L-204.789 97.4008L-202.071 94.1443L-199.303 90.9265L-196.487 87.7488L-193.622 84.6124L-190.708 81.5186L-187.747 78.4685L-184.737 75.4635L-181.681 72.5047L-178.577 69.5934L-175.428 66.7306L-172.233 63.9177L-168.992 61.1557L-165.708 58.4457L-162.379 55.7888L-159.008 53.1861L-155.595 50.6385L-152.14 48.1472L-148.645 45.7129L-145.111 43.3366L-141.539 41.0192L-137.929 38.7615L-134.283 36.5643L-130.601 34.4282L-126.886 32.354L-123.137 30.3424L-119.357 28.394L-115.546 26.5093L-111.706 24.689L-107.837 22.934L-103.94 21.2451L-100.018 19.6231L-96.0702 18.069L-92.0981 16.584L-88.1029 15.169L-84.0856 13.8252L-80.0472 12.5538L-75.9888 11.3559L-71.9116 10.2329L-67.8168 9.18591L-63.7054 8.21625L-59.5789 7.32517L-55.4384 6.51394L-51.2854 5.7838L-47.1212 5.13597L-42.9473 4.57164L-38.7651 4.09196L-34.5763 3.69805L-30.3824 3.39096L-26.1852 3.17165L-21.9862 3.04106L-17.7874 3L-13.5906 3.04922L-9.39752 3.18935L-5.21017 3.42093L-1.03055 3.74438L3.1394 4.15998L7.29764 4.66792L11.4421 5.2682L15.5708 5.96071L19.6815 6.74519L23.7723 7.62119L27.8409 8.58812L31.8854 9.64521L35.9036 10.7915L39.8934 12.0259L43.8529 13.3471L47.7802 14.7535L51.6731 16.2436L55.53 17.8152L59.3489 19.4665L63.1283 21.1949L66.8664 22.9982L70.5617 24.8737L74.2128 26.8188L77.8184 28.8307L81.3772 30.9068L84.8882 33.0443L88.3502 35.2401L91.7625 37.4915L95.1242 39.7954L98.4347 42.149L101.693 44.5492L104.9 46.993L108.054 49.4774L111.155 51.9995L114.203 54.5562L117.199 57.1446L120.141 59.7618L123.031 62.4047L125.869 65.0706L128.655 67.7567L131.39 70.4601L134.074 73.1782L136.708 75.9083L139.293 78.6478L141.83 81.3942L144.319 84.1452L146.762 86.8984L149.16 89.6515L151.514 92.4023L153.824 95.1489L156.094 97.8893L158.323 100.622L160.513 103.344L162.666 106.055L164.783 108.753L166.866 111.437L168.915 114.105L170.933 116.756L172.921 119.39L174.88 122.004L176.812 124.599L178.719 127.173L180.602 129.726L182.462 132.258L184.301 134.768L186.12 137.256L187.922 139.721L189.707 142.163L191.477 144.581L193.234 146.976L194.979 149.347L196.714 151.694L198.441 154.016L200.161 156.314L201.877 158.588L203.589 160.837L205.3 163.062L207.01 165.263L208.722 167.44L210.438 169.594L212.158 171.724L213.885 173.832L215.619 175.918L217.362 177.983L219.115 180.028L220.88 182.053L222.658 184.06L224.449 186.05L226.254 188.024L228.076 189.983L229.913 191.928L231.766 193.862L233.637 195.785L235.526 197.699L237.432 199.606L239.356 201.508L241.297 203.405L243.257 205.3L245.233 207.196L247.227 209.092L249.237 210.992L251.262 212.897L253.302 214.81L255.357 216.731L257.424 218.663L259.503 220.607L261.592 222.566L263.69 224.541L265.796 226.534L267.909 228.546L270.025 230.579L272.144 232.634L274.264 234.714L276.383 236.819L278.498 238.951L280.607 241.111L282.709 243.301L284.799 245.521L286.877 247.773L288.939 250.058L290.983 252.376L293.006 254.729L295.005 257.117L296.977 259.54L298.92 262L300.83 264.496L302.705 267.029L304.542 269.598L306.337 272.204L308.089 274.847L309.793 277.526L311.447 280.241L313.049 282.991L314.596 285.776L316.084 288.594L317.511 291.446L318.875 294.33L320.173 297.244L321.403 300.188L322.562 303.16L323.648 306.159L324.66 309.183L325.595 312.23L326.451 315.3L327.227 318.389L327.922 321.497L328.533 324.62L329.06 327.758L329.501 330.908L329.856 334.068L330.124 337.235L330.304 340.408L330.397 343.585Z" stroke="#D2E23D" stroke-width="5"/>
</svg>
