<svg width="614" height="174" viewBox="0 0 614 174" fill="none" xmlns="http://www.w3.org/2000/svg">
<path d="M611.397 -23.4154V-23.4154ZM611.397 -23.4154L611.4 -20.2379L611.316 -17.0615L611.143 -13.8885L610.882 -10.721L610.533 -7.56131L610.097 -4.41159L609.574 -1.27402L608.966 1.84927L608.273 4.95621L607.496 8.04477L606.637 11.1129L605.698 14.1589L604.678 17.1807L603.582 20.1765L602.409 23.1449L601.163 26.084L599.844 28.9924L598.456 31.8688L597.001 34.7117L595.48 37.5199L593.896 40.2923L592.252 43.028L590.55 45.7259L588.793 48.3853L586.983 51.0056L585.122 53.586L583.214 56.1261L581.261 58.6256L579.265 61.084L577.229 63.5013L575.156 65.8773L573.048 68.2121L570.907 70.5056L568.737 72.7579L566.538 74.9694L564.314 77.1402L562.066 79.2708L559.797 81.3613L557.509 83.4123L555.202 85.4241L552.88 87.3973L550.544 89.3322L548.194 91.2293L545.833 93.0891L543.461 94.9119L541.08 96.6981L538.69 98.448L536.292 100.162L533.888 101.841L531.478 103.484L529.062 105.093L526.642 106.667L524.217 108.207L521.789 109.713L519.357 111.185L516.923 112.624L514.486 114.029L512.048 115.401L509.607 116.741L507.165 118.048L504.722 119.322L502.278 120.563L499.833 121.773L497.388 122.949L494.942 124.094L492.496 125.206L490.05 126.286L487.604 127.333L485.159 128.349L482.714 129.332L480.269 130.282L477.826 131.201L475.383 132.087L472.942 132.941L470.502 133.763L468.065 134.553L465.629 135.31L463.196 136.036L460.766 136.73L458.338 137.392L455.915 138.023L453.495 138.623L451.08 139.191L448.669 139.73L446.263 140.238L443.864 140.717L441.47 141.166L439.083 141.587L436.703 141.98L434.331 142.345L431.967 142.684L429.612 142.997L427.266 143.286L424.93 143.55L422.603 143.791L420.287 144.01L417.982 144.208L415.688 144.385L413.406 144.544L411.136 144.685L408.878 144.809L406.632 144.918L404.399 145.012L402.179 145.094L399.972 145.164L397.778 145.223L395.597 145.273L393.429 145.316L391.274 145.353L389.132 145.384L387.003 145.412L384.887 145.438L382.782 145.463L380.69 145.489L378.609 145.516L376.539 145.547L374.48 145.583L372.431 145.625L370.391 145.673L368.36 145.731L366.337 145.798L364.321 145.876L362.312 145.966L360.308 146.069L358.309 146.186L356.313 146.319L354.32 146.467L352.329 146.632L350.338 146.815L348.346 147.016L346.353 147.237L344.356 147.476L342.355 147.736L340.349 148.016L338.336 148.317L336.314 148.639L334.284 148.983L332.242 149.348L330.189 149.734L328.122 150.141L326.04 150.569L323.943 151.017L321.828 151.486L319.694 151.974L317.541 152.482L315.367 153.007L313.17 153.549L310.951 154.108L308.706 154.682L306.436 155.271L304.14 155.871L301.816 156.484L299.464 157.106L297.083 157.736L294.672 158.373L292.23 159.016L289.757 159.661L287.253 160.308L284.716 160.954L282.147 161.597L279.546 162.236L276.911 162.868L274.244 163.491L271.544 164.102L268.812 164.701L266.047 165.283L263.25 165.848L260.422 166.392L257.562 166.913L254.672 167.41L251.753 167.879L248.804 168.319L245.828 168.727L242.825 169.1L239.796 169.438L236.743 169.737L233.666 169.995L230.568 170.21L227.449 170.38L224.311 170.504L221.156 170.579L217.985 170.604L214.799 170.577L211.601 170.498L208.391 170.364L205.171 170.175L201.943 169.93L198.707 169.628L195.465 169.269L192.219 168.852L188.97 168.377L185.718 167.843L182.466 167.25L179.214 166.599L175.963 165.889L172.714 165.119L169.468 164.292L166.227 163.405L162.991 162.46L159.761 161.457L156.538 160.396L153.322 159.277L150.115 158.101L146.917 156.868L143.73 155.579L140.552 154.233L137.387 152.831L134.233 151.374L131.092 149.862L127.965 148.295L124.851 146.674L121.753 144.999L118.671 143.269L115.605 141.486L112.556 139.65L109.526 137.761L106.514 135.819L103.523 133.825L100.553 131.778L97.6049 129.678L94.6805 127.527L91.7808 125.323L88.9072 123.068L86.061 120.76L83.244 118.401L80.4576 115.989L77.7034 113.527L74.9829 111.013L72.2976 108.448L69.6489 105.832L67.0383 103.166L64.4672 100.45L61.9369 97.6847L59.4488 94.8708L57.0042 92.0089L54.6042 89.0994L52.25 86.1433L49.9429 83.1413L47.6837 80.0941L45.4737 77.0026L43.3136 73.8677L41.2045 70.6903L39.1471 67.4714L37.1423 64.2119L35.1909 60.9128L33.2933 57.5753L31.4504 54.2002L29.6627 50.7887L27.9306 47.3418L26.2547 43.8606L24.6354 40.3463L23.073 36.7999L21.5678 33.2225L20.1203 29.6152L18.7305 25.9792L17.3989 22.3155L16.1254 18.6252L14.9103 14.9094L13.7538 11.1692L12.656 7.40564L11.6169 3.61987L10.6368 -0.187103L9.71558 -4.01419L8.85346 -7.86038L8.0505 -11.7246L7.3068 -15.6059L6.62245 -19.5032L5.99757 -23.4154L5.43227 -27.3416L4.92661 -31.2808L4.4805 -35.2318L4.09377 -39.1938L3.76616 -43.1658L3.49729 -47.1468L3.28676 -51.1358L3.13406 -55.1321L3.03867 -59.1347L3 -63.1428L3.01745 -67.1557L3.0904 -71.1725L3.21822 -75.1924L3.40027 -79.215L3.63593 -83.2393L3.9246 -87.2649L4.26568 -91.291L4.65862 -95.3172L5.10291 -99.3427L5.59805 -103.367L6.14361 -107.39L6.73919 -111.41L7.38445 -115.428L8.07909 -119.442L8.82286 -123.453L9.61558 -127.459L10.4571 -131.46L11.3473 -135.455L12.2861 -139.444L13.2735 -143.427L14.3096 -147.402L15.3944 -151.37L16.528 -155.328L17.7104 -159.278L18.9419 -163.217L20.2225 -167.146L21.5524 -171.063L22.9318 -174.968L24.3607 -178.86L25.8393 -182.738L27.3677 -186.602L28.9459 -190.451L30.574 -194.284L32.2519 -198.099L33.9796 -201.898L35.7569 -205.678L37.5837 -209.439L39.46 -213.18L41.3857 -216.901L43.3608 -220.6L45.3853 -224.277L47.4591 -227.931L49.5824 -231.561L51.7551 -235.166L53.9774 -238.744L56.2493 -242.296L58.5707 -245.819L60.9418 -249.314L63.3626 -252.777L65.8331 -256.21L68.3533 -259.609L70.9231 -262.975L73.5424 -266.305L76.2113 -269.599L78.9295 -272.856L81.6968 -276.073L84.5132 -279.251L87.3783 -282.388L90.2917 -285.481L93.2533 -288.531L96.2626 -291.536L99.3192 -294.495L102.423 -297.407L105.572 -300.269L108.767 -303.082L112.008 -305.844L115.292 -308.554L118.621 -311.211L121.992 -313.814L125.405 -316.361L128.86 -318.853L132.355 -321.287L135.889 -323.663L139.461 -325.981L143.071 -328.238L146.717 -330.436L150.399 -332.572L154.114 -334.646L157.863 -336.658L161.643 -338.606L165.454 -340.491L169.294 -342.311L173.163 -344.066L177.06 -345.755L180.982 -347.377L184.93 -348.931L188.902 -350.416L192.897 -351.831L196.914 -353.175L200.953 -354.446L205.011 -355.644L209.088 -356.767L213.183 -357.814L217.295 -358.784L221.421 -359.675L225.562 -360.486L229.715 -361.216L233.879 -361.864L238.053 -362.428L242.235 -362.908L246.424 -363.302L250.618 -363.609L254.815 -363.828L259.014 -363.959L263.213 -364L267.409 -363.951L271.602 -363.811L275.79 -363.579L279.969 -363.256L284.139 -362.84L288.298 -362.332L292.442 -361.732L296.571 -361.039L300.682 -360.255L304.772 -359.379L308.841 -358.412L312.885 -357.355L316.904 -356.208L320.893 -354.974L324.853 -353.653L328.78 -352.246L332.673 -350.756L336.53 -349.185L340.349 -347.534L344.128 -345.805L347.866 -344.002L351.562 -342.126L355.213 -340.181L358.818 -338.169L362.377 -336.093L365.888 -333.956L369.35 -331.76L372.762 -329.509L376.124 -327.205L379.435 -324.851L382.693 -322.451L385.9 -320.007L389.054 -317.523L392.155 -315L395.203 -312.444L398.199 -309.855L401.141 -307.238L404.031 -304.595L406.869 -301.929L409.655 -299.243L412.39 -296.54L415.074 -293.822L417.708 -291.092L420.293 -288.352L422.83 -285.606L425.319 -282.855L427.762 -280.102L430.16 -277.349L432.514 -274.598L434.824 -271.851L437.094 -269.111L439.323 -266.378L441.513 -263.656L443.666 -260.945L445.783 -258.247L447.866 -255.563L449.915 -252.895L451.933 -250.244L453.921 -247.61L455.88 -244.996L457.812 -242.401L459.719 -239.827L461.602 -237.274L463.462 -234.742L465.301 -232.232L467.12 -229.744L468.922 -227.279L470.707 -224.837L472.477 -222.419L474.234 -220.024L475.979 -217.653L477.714 -215.306L479.441 -212.984L481.161 -210.686L482.877 -208.412L484.589 -206.163L486.3 -203.938L488.01 -201.737L489.722 -199.56L491.438 -197.406L493.158 -195.276L494.885 -193.168L496.619 -191.082L498.362 -189.017L500.115 -186.972L501.88 -184.947L503.658 -182.94L505.449 -180.95L507.254 -178.976L509.076 -177.017L510.913 -175.072L512.766 -173.138L514.637 -171.215L516.526 -169.301L518.432 -167.394L520.356 -165.492L522.297 -163.595L524.257 -161.7L526.233 -159.804L528.227 -157.908L530.237 -156.008L532.262 -154.103L534.302 -152.19L536.357 -150.269L538.424 -148.337L540.503 -146.393L542.592 -144.434L544.69 -142.459L546.796 -140.466L548.909 -138.454L551.025 -136.421L553.144 -134.366L555.264 -132.286L557.383 -130.181L559.498 -128.049L561.607 -125.889L563.709 -123.699L565.799 -121.479L567.877 -119.227L569.939 -116.942L571.983 -114.624L574.006 -112.271L576.005 -109.883L577.977 -107.46L579.92 -105L581.83 -102.504L583.705 -99.9712L585.542 -97.4017L587.337 -94.7956L589.089 -92.1529L590.793 -89.4739L592.447 -86.7592L594.049 -84.009L595.596 -81.2243L597.084 -78.4056L598.511 -75.554L599.875 -72.6705L601.173 -69.7561L602.403 -66.8122L603.562 -63.8401L604.648 -60.8412L605.66 -57.8171L606.595 -54.7695L607.451 -51.7001L608.227 -48.6107L608.922 -45.5032L609.533 -42.3795L610.06 -39.2418L610.501 -36.092L610.856 -32.9323L611.124 -29.7649L611.304 -26.5918L611.397 -23.4154" stroke="#D2E23D" stroke-width="5"/>
</svg>
